{"glyphs":{"0":{"ha":997,"x_min":19,"x_max":967,"o":"m 469 29 q 442 -15 464 -3 q 393 -24 419 -28 q 349 -1 367 -19 q 338 50 332 18 q 285 19 318 19 q 222 37 253 18 q 177 85 192 56 q 182 144 163 115 q 117 126 142 118 q 96 158 93 133 q 138 210 99 183 q 91 222 111 204 q 60 267 71 239 q 49 326 49 296 q 60 380 49 357 q 100 408 72 403 q 40 426 60 408 q 19 467 19 443 q 39 508 19 490 q 99 526 58 526 q 44 555 61 529 q 30 613 28 581 q 53 667 32 644 q 111 688 74 690 q 75 725 82 701 q 78 772 68 749 q 112 806 89 794 q 164 804 135 817 q 160 842 151 821 q 191 883 169 863 q 238 916 213 903 q 287 931 264 929 q 321 915 310 932 q 322 970 313 950 q 348 994 331 990 q 383 985 365 999 q 408 938 400 971 q 436 992 408 974 q 500 1010 464 1010 q 564 992 536 1010 q 592 936 592 974 q 635 976 604 969 q 700 971 667 983 q 752 933 733 958 q 758 874 771 907 q 808 892 782 896 q 851 870 833 889 q 872 826 869 851 q 849 776 874 800 q 909 771 885 788 q 942 726 933 754 q 940 672 951 699 q 892 633 928 644 q 937 612 919 633 q 960 558 954 590 q 962 494 967 526 q 940 440 957 463 q 894 418 924 418 q 928 388 918 413 q 935 331 938 364 q 922 266 933 297 q 893 215 911 235 q 851 200 875 196 q 872 141 878 174 q 842 84 867 108 q 784 55 817 60 q 725 78 751 50 q 731 5 744 29 q 692 -10 718 -19 q 647 47 665 -1 q 631 -15 651 7 q 578 -41 611 -37 q 515 -28 546 -44 q 469 29 485 -11 m 378 431 q 409 420 400 431 q 413 397 418 410 q 390 381 408 385 q 421 360 407 379 q 442 317 435 342 q 444 271 449 292 q 465 281 457 282 q 474 267 474 279 q 510 280 486 285 q 567 254 533 275 q 551 296 542 274 q 589 314 561 318 q 574 340 575 322 q 584 370 574 357 q 615 382 594 383 q 589 396 597 382 q 581 428 581 410 q 590 459 581 446 q 617 472 599 472 q 591 491 600 472 q 581 536 582 510 q 585 584 579 563 q 607 611 592 606 q 576 628 592 611 q 549 670 560 646 q 538 715 539 694 q 517 701 528 701 q 503 714 507 701 q 473 690 493 696 q 435 697 453 685 q 426 665 438 681 q 396 650 414 649 q 417 624 411 643 q 422 584 424 606 q 408 547 419 563 q 378 532 397 532 q 406 517 396 532 q 415 481 415 501 q 406 446 415 461 q 378 431 397 431 z "},"1":{"ha":774,"x_min":64,"x_max":746,"o":"m 390 43 q 333 69 353 43 q 314 131 314 96 q 333 193 314 167 q 390 219 353 219 q 319 238 338 219 q 319 274 301 256 q 390 292 338 292 q 328 308 349 292 q 308 344 308 324 q 328 381 308 365 q 390 396 349 396 q 349 419 364 396 q 328 475 333 442 q 331 539 324 508 q 307 561 315 544 q 271 535 297 540 q 225 556 244 529 q 200 517 218 528 q 162 512 182 507 q 130 534 142 517 q 124 579 118 551 q 83 596 99 576 q 66 641 68 615 q 75 688 64 667 q 111 713 86 710 q 94 766 90 740 q 119 807 99 792 q 165 820 139 822 q 213 790 190 818 q 188 849 188 822 q 204 888 188 875 q 246 894 221 900 q 296 856 271 888 q 292 911 279 885 q 333 952 306 938 q 390 963 361 967 q 435 931 418 960 q 455 991 435 971 q 502 1011 475 1011 q 550 991 529 1011 q 571 931 571 971 q 588 995 568 978 q 630 997 608 1013 q 654 935 651 982 q 705 906 688 935 q 722 840 722 878 q 705 774 722 803 q 654 746 688 746 q 728 728 710 746 q 728 693 746 711 q 654 675 710 675 q 708 653 690 675 q 726 602 726 631 q 708 552 726 574 q 654 531 690 531 q 701 510 683 531 q 725 460 719 490 q 725 401 731 431 q 701 351 719 371 q 654 331 683 331 q 713 311 699 331 q 713 273 728 292 q 654 254 699 254 q 694 234 679 254 q 715 184 710 214 q 715 124 721 154 q 694 74 710 94 q 654 54 679 54 q 638 5 657 22 q 593 -15 619 -12 q 544 -4 567 -18 q 519 42 522 10 q 499 -10 519 7 q 453 -28 479 -28 q 408 -10 428 -28 q 390 43 389 7 z "},"2":{"ha":978,"x_min":21,"x_max":917,"o":"m 90 60 q 35 76 49 60 q 35 110 21 93 q 90 126 49 126 q 42 155 56 135 q 34 195 29 175 q 60 226 39 215 q 117 229 82 238 q 106 280 99 253 q 136 331 114 307 q 188 368 158 354 q 246 381 218 382 q 290 356 274 379 q 260 424 258 400 q 287 444 263 449 q 344 396 311 440 q 324 458 319 428 q 353 506 329 488 q 406 524 376 525 q 461 490 436 522 q 444 533 440 514 q 466 558 449 553 q 504 547 483 564 q 492 588 488 567 q 514 619 497 608 q 487 648 496 629 q 479 686 478 667 q 454 697 465 688 q 438 724 443 707 q 411 683 433 703 q 360 649 389 663 q 305 637 331 636 q 268 657 279 638 q 247 599 268 618 q 196 581 225 581 q 145 599 167 581 q 124 657 124 618 q 68 673 86 658 q 51 706 50 688 q 71 736 51 724 q 128 747 90 749 q 92 799 96 771 q 105 849 89 826 q 149 876 121 871 q 208 860 176 882 q 203 917 192 890 q 240 957 214 943 q 294 966 267 971 q 339 929 322 961 q 363 984 336 964 q 426 1008 389 1004 q 492 998 463 1013 q 526 949 522 983 q 549 1008 531 994 q 582 1004 567 1021 q 593 943 597 988 q 629 985 603 975 q 683 986 656 994 q 726 955 710 978 q 731 899 742 932 q 787 938 760 938 q 820 913 814 939 q 797 849 826 888 q 853 866 829 868 q 886 848 876 864 q 888 810 896 832 q 847 768 879 789 q 898 747 881 769 q 916 692 915 724 q 901 637 917 661 q 851 613 885 613 q 880 564 879 594 q 863 506 881 533 q 817 467 844 479 q 761 474 789 456 q 774 429 779 453 q 751 385 769 406 q 708 357 732 365 q 663 357 683 349 q 674 314 676 340 q 730 295 704 313 q 753 244 756 278 q 771 301 753 286 q 807 301 789 315 q 825 244 825 286 q 873 240 851 256 q 906 199 894 225 q 913 147 917 172 q 882 110 908 121 q 894 69 899 89 q 872 35 889 49 q 835 22 856 22 q 797 42 814 21 q 778 -1 797 15 q 729 -22 758 -17 q 671 -22 700 -28 q 622 -1 642 -17 q 603 42 603 15 q 583 -9 603 8 q 536 -26 563 -26 q 490 -9 510 -26 q 469 42 469 8 q 442 -20 469 0 q 378 -40 414 -40 q 314 -20 342 -40 q 286 42 286 0 q 265 -8 286 8 q 214 -24 243 -24 q 163 -8 185 -24 q 142 42 142 8 q 128 -24 142 -8 q 101 -19 114 -40 q 90 60 89 1 z "},"3":{"ha":985,"x_min":51,"x_max":965,"o":"m 318 47 q 274 16 304 19 q 214 27 244 13 q 166 67 183 42 q 163 121 149 92 q 106 91 132 93 q 68 104 81 89 q 60 144 56 119 q 96 196 65 168 q 56 235 60 213 q 72 269 51 257 q 128 264 92 281 q 150 315 128 297 q 202 332 172 332 q 254 315 232 332 q 276 264 276 297 q 303 313 281 303 q 344 308 325 324 q 360 254 364 293 q 385 284 364 275 q 437 291 407 293 q 492 279 467 289 q 511 360 483 324 q 481 403 485 375 q 458 370 474 376 q 428 380 442 364 q 414 432 414 396 q 380 405 401 408 q 339 412 358 401 q 311 442 319 422 q 315 486 303 463 q 245 506 263 489 q 246 540 228 524 q 318 554 264 557 q 318 617 299 588 q 369 656 338 647 q 361 682 361 667 q 323 701 339 686 q 307 743 307 715 q 280 692 307 708 q 218 675 253 675 q 156 692 183 675 q 129 743 129 708 q 90 763 104 743 q 71 812 75 783 q 72 869 67 840 q 93 916 78 897 q 133 935 108 935 q 161 990 135 972 q 222 1006 188 1007 q 283 987 257 1006 q 307 931 308 968 q 331 984 307 967 q 388 1001 356 1001 q 444 984 419 1001 q 468 931 468 967 q 485 985 468 967 q 526 1004 503 1004 q 567 985 550 1004 q 585 931 585 967 q 600 985 585 967 q 635 1004 615 1004 q 669 985 654 1004 q 685 931 685 967 q 705 979 685 963 q 751 996 725 996 q 798 979 778 996 q 818 931 818 963 q 890 967 881 979 q 836 907 899 956 q 886 878 871 906 q 900 818 901 851 q 880 760 899 785 q 826 738 861 736 q 836 679 846 708 q 800 627 826 650 q 743 596 774 604 q 773 564 763 585 q 771 517 783 543 q 820 532 793 539 q 869 502 847 525 q 897 451 892 479 q 879 403 901 424 q 946 406 926 415 q 953 378 965 396 q 893 349 940 361 q 944 329 928 347 q 958 290 960 311 q 939 253 957 268 q 886 240 921 238 q 902 197 906 222 q 881 144 899 171 q 839 97 864 117 q 788 71 814 76 q 744 83 763 65 q 749 13 763 36 q 710 -3 736 -11 q 665 51 685 6 q 642 -6 671 15 q 563 -31 614 -28 q 449 -15 513 -33 q 318 47 385 4 z "},"4":{"ha":1021,"x_min":11,"x_max":988,"o":"m 531 115 q 470 105 494 97 q 442 132 446 113 q 385 125 415 121 q 332 147 354 129 q 310 197 310 165 q 290 144 310 164 q 242 118 271 125 q 185 118 214 111 q 138 144 157 125 q 118 197 118 164 q 74 167 92 168 q 54 184 56 165 q 78 232 53 203 q 28 252 44 232 q 11 298 11 272 q 28 344 11 324 q 78 364 44 364 q 32 409 42 383 q 33 457 22 435 q 72 487 44 479 q 135 475 99 494 q 106 525 108 496 q 119 584 104 554 q 158 635 133 614 q 211 662 182 657 q 267 647 240 667 q 231 694 236 669 q 240 737 226 719 q 278 756 253 754 q 333 735 304 757 q 297 785 301 758 q 308 831 293 813 q 349 853 322 850 q 407 832 376 856 q 397 885 388 857 q 431 933 406 914 q 485 955 456 953 q 535 931 514 957 q 562 990 535 971 q 624 1010 589 1010 q 685 990 658 1010 q 713 931 713 971 q 756 938 735 946 q 790 909 776 929 q 803 867 804 889 q 781 829 803 844 q 838 806 818 829 q 857 751 857 782 q 838 697 857 721 q 781 674 818 674 q 838 653 818 674 q 857 607 857 633 q 838 560 857 581 q 781 540 818 540 q 826 522 810 540 q 843 479 842 503 q 891 459 869 481 q 911 396 913 438 q 962 402 943 413 q 977 371 981 392 q 940 335 974 350 q 979 299 971 325 q 978 247 988 274 q 948 203 969 219 q 896 197 926 188 q 887 136 904 158 q 844 113 869 114 q 822 95 838 103 q 781 88 806 88 q 810 35 811 57 q 787 13 808 14 q 735 42 765 11 q 714 -10 735 8 q 663 -33 693 -29 q 601 -22 632 -36 q 549 26 569 -7 q 531 115 529 60 m 403 381 q 421 419 403 410 q 456 419 439 429 q 474 381 474 410 q 481 407 474 397 q 497 419 488 417 q 502 463 492 440 q 540 485 513 485 q 517 501 525 485 q 506 540 508 517 q 508 583 504 563 q 465 585 486 576 q 451 556 469 565 q 407 567 433 547 q 419 540 421 557 q 408 509 418 524 q 382 488 397 494 q 351 492 367 482 q 367 460 368 481 q 360 421 367 440 q 388 417 374 426 q 403 381 403 407 z "},"5":{"ha":958,"x_min":6,"x_max":928,"o":"m 389 31 q 357 -35 379 -21 q 319 -28 335 -49 q 313 44 303 -7 q 273 19 300 22 q 216 28 246 17 q 161 60 186 39 q 126 105 136 81 q 128 151 115 129 q 65 137 88 128 q 45 171 42 146 q 89 218 49 196 q 24 223 43 208 q 17 258 6 238 q 74 289 28 279 q 93 358 81 340 q 115 361 106 376 q 119 299 124 346 q 144 335 125 324 q 187 345 164 347 q 227 328 210 343 q 244 283 244 313 q 258 327 244 313 q 291 342 272 342 q 324 327 310 342 q 338 283 338 313 q 381 317 350 313 q 444 308 411 321 q 494 271 476 294 q 513 288 499 288 q 526 325 497 319 q 528 378 508 350 q 493 418 496 383 q 468 412 482 407 q 449 438 454 417 q 426 393 447 407 q 381 388 406 379 q 346 433 357 397 q 322 389 346 404 q 267 372 299 374 q 206 380 235 369 q 168 414 178 390 q 156 374 174 374 q 125 424 139 375 q 73 449 89 428 q 60 494 57 469 q 83 536 63 519 q 139 549 103 553 q 92 573 107 553 q 81 617 78 593 q 102 657 83 640 q 153 669 121 674 q 85 691 101 675 q 88 718 69 707 q 158 724 107 729 q 113 753 126 728 q 103 808 100 778 q 125 859 107 838 q 176 878 143 881 q 165 922 160 901 q 186 953 169 943 q 224 960 203 964 q 260 931 244 956 q 288 991 260 971 q 354 1011 317 1011 q 420 991 392 1011 q 449 931 449 971 q 469 981 449 963 q 518 1006 489 1000 q 577 1006 547 1013 q 627 981 607 1000 q 647 931 647 963 q 683 970 656 961 q 743 971 711 979 q 796 942 775 963 q 810 892 817 921 q 863 866 846 889 q 878 814 879 843 q 858 763 876 785 q 803 743 839 742 q 783 708 803 721 q 733 690 763 694 q 673 690 703 685 q 623 708 643 694 q 603 743 603 721 q 585 706 603 719 q 542 689 568 693 q 492 691 517 685 q 454 713 468 697 q 446 684 456 697 q 421 665 436 671 q 440 640 438 654 q 432 615 442 626 q 435 608 433 613 q 469 642 443 632 q 522 644 496 651 q 556 608 547 638 q 578 655 557 644 q 619 652 600 665 q 638 604 639 639 q 674 633 649 629 q 726 626 700 638 q 766 593 751 615 q 768 546 781 571 q 808 547 786 557 q 850 515 831 538 q 882 467 869 493 q 894 416 894 440 q 875 381 893 392 q 917 347 906 376 q 923 283 928 318 q 899 224 918 249 q 851 203 881 199 q 881 156 878 181 q 869 113 883 131 q 829 93 854 96 q 776 114 804 90 q 790 58 794 82 q 767 24 785 35 q 726 22 749 14 q 685 61 703 31 q 660 6 690 28 q 582 -22 631 -15 q 481 -17 533 -29 q 389 31 428 -4 z "},"6":{"ha":961,"x_min":6,"x_max":939,"o":"m 469 28 q 443 -22 465 -7 q 394 -33 421 -36 q 350 -10 368 -29 q 336 44 332 10 q 301 -3 322 4 q 267 8 279 -11 q 267 67 254 26 q 228 53 253 50 q 176 72 203 56 q 128 113 149 89 q 99 160 107 136 q 106 201 92 183 q 44 200 68 189 q 13 233 19 211 q 19 277 6 254 q 71 313 33 300 q 38 340 47 318 q 31 392 29 363 q 44 449 33 422 q 74 492 56 476 q 117 501 93 507 q 78 551 83 524 q 87 601 72 578 q 128 630 101 624 q 189 615 156 636 q 160 656 164 635 q 167 691 156 676 q 199 707 178 706 q 246 689 219 708 q 219 734 221 707 q 229 788 217 761 q 265 835 242 815 q 315 860 288 856 q 365 846 342 864 q 342 892 342 868 q 360 933 343 917 q 401 951 376 950 q 449 931 425 953 q 463 979 449 963 q 495 996 476 996 q 528 979 514 996 q 542 931 542 963 q 556 992 542 976 q 583 992 569 1007 q 596 931 596 976 q 622 976 604 963 q 656 985 639 989 q 683 961 674 981 q 685 910 692 942 q 731 851 728 876 q 710 823 735 826 q 642 851 685 819 q 670 806 667 833 q 663 752 674 779 q 631 706 651 725 q 683 701 657 713 q 724 665 710 690 q 728 604 739 640 q 781 618 750 626 q 837 585 811 610 q 871 529 863 560 q 857 476 879 499 q 899 462 882 479 q 924 417 915 444 q 931 362 932 390 q 919 312 931 333 q 883 288 907 290 q 928 251 917 274 q 931 210 939 229 q 899 183 922 190 q 842 190 875 176 q 846 152 854 175 q 817 108 838 129 q 769 70 796 86 q 719 51 743 54 q 682 65 694 49 q 670 19 688 39 q 624 -10 653 0 q 563 -21 594 -21 q 505 -9 531 -21 q 469 28 479 3 m 382 294 q 422 288 400 296 q 465 265 444 279 q 492 235 485 250 q 515 268 494 256 q 557 278 536 281 q 550 313 543 296 q 578 333 557 331 q 546 380 557 349 q 542 433 535 411 q 481 426 518 424 q 425 444 443 429 q 422 422 429 429 q 401 419 414 414 q 404 390 413 403 q 375 382 396 378 q 392 339 390 367 q 382 294 394 311 z "},"7":{"ha":868,"x_min":1,"x_max":878,"o":"m 231 100 q 192 140 200 115 q 195 187 185 164 q 230 220 206 210 q 285 217 254 231 q 242 260 246 233 q 261 300 239 286 q 322 297 283 314 q 287 335 293 310 q 292 384 281 360 q 326 419 303 408 q 378 417 349 431 q 332 460 342 435 q 333 509 322 486 q 369 541 343 532 q 432 533 396 550 q 381 583 385 556 q 406 615 378 610 q 383 644 389 626 q 382 681 376 663 q 365 699 372 686 q 358 729 358 711 q 342 670 358 690 q 303 650 325 650 q 264 670 281 650 q 247 729 247 690 q 222 679 247 696 q 164 663 197 663 q 106 680 131 663 q 81 731 81 697 q 22 759 42 731 q 1 824 1 788 q 22 890 1 861 q 81 918 42 918 q 92 978 76 957 q 131 1003 108 1000 q 174 988 154 1006 q 197 931 193 969 q 217 989 197 969 q 264 1008 238 1008 q 310 989 290 1008 q 331 931 331 969 q 350 971 331 956 q 399 991 369 986 q 456 991 428 996 q 504 971 485 986 q 524 931 524 956 q 543 975 524 958 q 592 997 563 992 q 649 997 621 1001 q 697 975 678 992 q 717 931 717 958 q 758 946 738 949 q 794 928 779 943 q 809 891 808 913 q 790 851 810 869 q 860 836 843 851 q 860 806 878 821 q 790 790 843 790 q 833 756 822 782 q 835 703 843 731 q 806 658 828 675 q 753 649 785 640 q 790 615 782 635 q 790 576 799 594 q 761 551 782 558 q 711 558 740 544 q 753 515 744 542 q 751 465 763 489 q 715 432 740 442 q 654 438 689 422 q 701 399 690 421 q 703 357 711 376 q 669 332 694 338 q 610 343 644 326 q 651 306 642 328 q 652 265 661 283 q 620 239 643 246 q 565 247 597 232 q 611 209 600 231 q 614 169 622 188 q 582 146 606 151 q 522 157 558 140 q 565 121 556 142 q 565 82 574 100 q 535 58 557 64 q 481 67 513 51 q 465 7 486 29 q 410 -20 443 -15 q 351 -10 378 -25 q 318 42 324 4 q 299 -11 318 6 q 257 -23 279 -28 q 224 13 235 -18 q 231 100 214 43 z "},"8":{"ha":989,"x_min":22,"x_max":940,"o":"m 454 29 q 426 -15 449 -3 q 376 -24 403 -28 q 330 -2 349 -21 q 317 49 311 17 q 284 -4 301 6 q 258 5 267 -14 q 264 67 249 24 q 219 31 244 36 q 173 38 193 25 q 147 76 153 51 q 161 132 142 101 q 122 138 140 124 q 88 176 103 151 q 67 229 74 201 q 67 280 61 257 q 92 311 72 303 q 33 342 44 321 q 42 378 22 364 q 107 382 61 392 q 101 426 92 400 q 135 474 111 451 q 183 506 158 497 q 194 549 182 525 q 142 519 163 518 q 121 542 121 521 q 153 593 121 563 q 114 619 128 592 q 97 683 100 646 q 106 749 94 721 q 142 781 117 778 q 100 834 101 807 q 124 871 99 861 q 190 854 150 881 q 185 917 172 889 q 226 960 197 946 q 285 969 254 975 q 333 926 315 963 q 350 975 331 956 q 399 1003 369 994 q 460 1008 429 1011 q 513 988 490 1004 q 538 943 535 972 q 560 999 542 986 q 593 995 578 1011 q 604 936 608 979 q 647 974 615 968 q 713 967 679 981 q 765 928 746 954 q 774 871 785 903 q 819 867 796 883 q 859 820 843 850 q 876 761 875 790 q 854 719 878 732 q 888 688 881 713 q 890 634 896 663 q 866 585 883 606 q 824 565 849 564 q 884 531 872 557 q 874 488 896 506 q 869 465 875 479 q 850 435 864 451 q 894 425 875 440 q 926 383 914 410 q 939 326 938 356 q 928 274 940 297 q 892 246 917 251 q 917 197 918 228 q 896 137 915 165 q 848 96 876 108 q 793 103 819 83 q 788 58 801 79 q 747 23 774 38 q 691 3 721 8 q 637 4 661 -3 q 604 35 613 11 q 591 -24 607 -4 q 549 -46 575 -44 q 497 -29 524 -47 q 454 29 471 -11 m 581 588 q 561 613 563 596 q 568 649 560 631 q 592 675 576 667 q 568 697 574 681 q 572 726 563 713 q 554 731 561 724 q 551 751 547 739 q 501 738 533 739 q 449 751 469 738 q 437 701 451 728 q 401 664 422 675 q 415 647 413 658 q 413 625 418 636 q 462 624 432 631 q 523 607 492 618 q 581 588 554 596 m 565 194 q 555 235 544 217 q 585 254 565 254 q 572 302 572 272 q 585 351 572 332 q 571 355 575 349 q 569 372 567 361 q 526 367 551 358 q 493 396 501 375 q 458 362 485 375 q 408 353 432 349 q 412 322 418 338 q 386 304 406 307 q 409 274 401 294 q 411 239 417 254 q 459 242 431 247 q 516 224 488 238 q 565 194 544 210 z "},"9":{"ha":949,"x_min":3,"x_max":953,"o":"m 228 24 q 201 80 199 46 q 225 143 203 114 q 279 184 247 172 q 340 174 311 196 q 295 230 299 206 q 317 258 292 254 q 383 232 342 263 q 361 263 365 244 q 363 297 357 281 q 289 319 322 301 q 258 363 256 336 q 221 329 242 335 q 183 333 200 324 q 161 365 165 343 q 174 414 157 388 q 118 409 146 396 q 72 450 90 422 q 52 508 53 478 q 79 557 51 539 q 19 572 36 553 q 15 613 3 590 q 71 639 28 635 q 26 678 36 650 q 26 738 17 707 q 61 785 36 768 q 121 790 86 801 q 96 836 97 814 q 108 872 94 858 q 144 885 122 886 q 190 863 167 885 q 188 926 174 897 q 231 967 201 954 q 290 973 260 981 q 336 929 319 965 q 357 979 333 961 q 413 1000 381 997 q 472 989 446 1003 q 501 943 499 975 q 537 997 508 982 q 598 1006 565 1011 q 652 976 631 1000 q 667 915 674 953 q 711 948 683 944 q 763 938 739 951 q 798 898 788 924 q 792 843 808 872 q 849 872 828 874 q 869 849 871 871 q 832 796 867 826 q 890 799 867 810 q 922 765 914 788 q 920 719 931 743 q 875 682 910 694 q 933 667 914 682 q 952 635 953 653 q 932 603 951 617 q 874 590 913 590 q 917 542 910 574 q 909 478 924 510 q 865 431 894 447 q 800 432 836 415 q 831 390 828 413 q 822 349 835 367 q 787 328 810 332 q 738 344 764 325 q 784 285 781 313 q 760 253 788 258 q 689 279 733 247 q 727 228 722 256 q 717 182 732 201 q 676 160 703 163 q 617 182 649 157 q 657 130 654 153 q 637 103 660 107 q 576 128 614 100 q 619 69 618 97 q 594 36 621 42 q 526 61 568 31 q 520 2 533 24 q 485 -24 507 -19 q 444 -12 464 -28 q 417 42 424 4 q 400 -16 417 -1 q 367 -16 383 -31 q 351 42 351 -1 q 338 -17 351 -3 q 310 -17 324 -32 q 296 42 296 -3 q 277 -24 296 -7 q 241 -29 258 -42 q 228 24 224 -17 m 425 539 q 459 543 440 550 q 486 514 478 536 q 503 549 485 538 q 540 549 522 560 q 544 601 535 571 q 571 646 553 631 q 519 676 544 650 q 492 729 493 703 q 460 715 479 717 q 428 724 440 714 q 430 691 438 700 q 407 692 422 682 q 403 644 413 669 q 372 608 393 618 q 394 592 388 606 q 393 567 400 579 q 420 565 410 574 q 425 539 431 557 z "},"A":{"ha":1049,"x_min":6,"x_max":1040,"o":"m 76 131 q 17 166 29 147 q 26 192 6 185 q 94 183 47 200 q 49 220 60 196 q 46 268 38 244 q 78 303 54 292 q 138 303 101 315 q 92 347 101 315 q 94 412 83 379 q 133 464 106 444 q 196 471 160 483 q 156 509 164 482 q 158 565 149 536 q 192 611 168 594 q 247 617 215 628 q 210 659 217 628 q 216 724 204 690 q 252 779 228 758 q 307 789 276 800 q 285 831 285 803 q 303 887 286 858 q 343 930 319 915 q 390 931 367 944 q 407 997 390 981 q 440 997 424 1013 q 456 931 456 981 q 476 977 456 960 q 528 1000 497 994 q 591 1000 560 1006 q 643 977 622 994 q 664 931 664 960 q 717 943 693 949 q 754 918 742 938 q 762 874 767 899 q 726 831 757 850 q 787 823 761 843 q 825 769 813 803 q 829 703 838 735 q 788 658 821 671 q 854 659 832 675 q 869 617 876 643 q 817 575 861 590 q 874 579 856 589 q 884 551 892 569 q 836 518 876 532 q 897 520 878 532 q 909 487 917 508 q 860 450 901 465 q 906 444 885 458 q 943 401 928 429 q 964 342 958 374 q 962 286 969 311 q 929 251 954 261 q 979 249 957 261 q 1017 210 1001 236 q 1036 156 1032 185 q 1031 103 1040 126 q 993 69 1021 79 q 990 18 1006 36 q 950 4 974 0 q 914 42 926 8 q 897 -15 914 4 q 859 -33 881 -33 q 821 -15 838 -33 q 804 42 804 4 q 758 30 783 22 q 715 60 733 38 q 693 107 696 82 q 658 83 678 85 q 624 97 638 81 q 613 147 610 114 q 570 101 603 114 q 503 97 538 89 q 453 133 468 106 q 431 81 456 99 q 376 69 407 63 q 328 117 344 75 q 324 66 340 90 q 278 27 308 42 q 220 14 249 13 q 178 42 192 15 q 160 -24 178 -7 q 125 -24 143 -40 q 107 42 107 -7 q 97 -7 107 8 q 75 -14 86 -22 q 62 29 64 -6 q 76 131 60 64 m 478 356 q 497 388 478 376 q 540 400 515 399 q 585 394 565 401 q 591 420 583 407 q 613 439 599 433 q 580 464 590 443 q 574 506 569 485 q 604 536 579 528 q 561 553 581 528 q 536 608 542 578 q 508 592 524 599 q 481 589 493 586 q 492 548 496 574 q 472 504 489 522 q 432 493 456 486 q 454 464 450 488 q 458 413 458 440 q 461 368 458 386 q 478 356 464 350 z "},"Á":{"ha":1049,"x_min":6,"x_max":1040,"o":"m 76 131 q 17 166 29 147 q 26 192 6 185 q 94 183 47 200 q 49 220 60 196 q 46 268 38 244 q 78 303 54 292 q 138 303 101 315 q 92 347 101 315 q 94 412 83 379 q 133 464 106 444 q 196 471 160 483 q 156 509 164 482 q 158 565 149 536 q 192 611 168 594 q 247 617 215 628 q 210 659 217 628 q 216 724 204 690 q 252 779 228 758 q 307 789 276 800 q 285 831 285 803 q 303 887 286 858 q 343 930 319 915 q 390 931 367 944 q 407 997 390 981 q 440 997 424 1013 q 456 931 456 981 q 476 977 456 960 q 528 1000 497 994 q 591 1000 560 1006 q 643 977 622 994 q 664 931 664 960 q 717 943 693 949 q 754 918 742 938 q 762 874 767 899 q 726 831 757 850 q 787 823 761 843 q 825 769 813 803 q 829 703 838 735 q 788 658 821 671 q 854 659 832 675 q 869 617 876 643 q 817 575 861 590 q 874 579 856 589 q 884 551 892 569 q 836 518 876 532 q 897 520 878 532 q 909 487 917 508 q 860 450 901 465 q 906 444 885 458 q 943 401 928 429 q 964 342 958 374 q 962 286 969 311 q 929 251 954 261 q 979 249 957 261 q 1017 210 1001 236 q 1036 156 1032 185 q 1031 103 1040 126 q 993 69 1021 79 q 990 18 1006 36 q 950 4 974 0 q 914 42 926 8 q 897 -15 914 4 q 859 -33 881 -33 q 821 -15 838 -33 q 804 42 804 4 q 758 30 783 22 q 715 60 733 38 q 693 107 696 82 q 658 83 678 85 q 624 97 638 81 q 613 147 610 114 q 570 101 603 114 q 503 97 538 89 q 453 133 468 106 q 431 81 456 99 q 376 69 407 63 q 328 117 344 75 q 324 66 340 90 q 278 27 308 42 q 220 14 249 13 q 178 42 192 15 q 160 -24 178 -7 q 125 -24 143 -40 q 107 42 107 -7 q 97 -7 107 8 q 75 -14 86 -22 q 62 29 64 -6 q 76 131 60 64 m 478 356 q 497 388 478 376 q 540 400 515 399 q 585 394 565 401 q 591 420 583 407 q 613 439 599 433 q 580 464 590 443 q 574 506 569 485 q 604 536 579 528 q 561 553 581 528 q 536 608 542 578 q 508 592 524 599 q 481 589 493 586 q 492 548 496 574 q 472 504 489 522 q 432 493 456 486 q 454 464 450 488 q 458 413 458 440 q 461 368 458 386 q 478 356 464 350 m 428 1129 q 419 1159 414 1139 q 441 1199 425 1179 q 476 1228 457 1218 q 508 1226 494 1238 q 510 1260 496 1243 q 544 1283 524 1278 q 576 1271 565 1289 q 601 1294 576 1286 q 657 1303 625 1303 q 713 1294 689 1303 q 738 1271 738 1286 q 757 1302 738 1294 q 796 1302 776 1310 q 815 1271 815 1294 q 840 1294 825 1293 q 863 1284 854 1296 q 863 1250 872 1272 q 874 1217 879 1233 q 852 1197 868 1201 q 819 1207 836 1192 q 826 1176 833 1192 q 802 1157 818 1161 q 774 1169 786 1153 q 777 1136 785 1154 q 752 1103 769 1118 q 715 1085 735 1089 q 683 1096 696 1081 q 690 1065 697 1079 q 668 1047 683 1050 q 639 1060 653 1043 q 626 1033 642 1043 q 588 1022 610 1024 q 548 1026 565 1019 q 528 1049 531 1032 q 508 1021 528 1029 q 466 1020 489 1013 q 429 1053 443 1028 q 428 1129 415 1079 z "},"Ă":{"ha":1049,"x_min":6,"x_max":1040,"o":"m 76 131 q 17 166 29 147 q 26 192 6 185 q 94 183 47 200 q 49 220 60 196 q 46 268 38 244 q 78 303 54 292 q 138 303 101 315 q 92 347 101 315 q 94 412 83 379 q 133 464 106 444 q 196 471 160 483 q 156 509 164 482 q 158 565 149 536 q 192 611 168 594 q 247 617 215 628 q 210 659 217 628 q 216 724 204 690 q 252 779 228 758 q 307 789 276 800 q 285 831 285 803 q 303 887 286 858 q 343 930 319 915 q 390 931 367 944 q 407 997 390 981 q 440 997 424 1013 q 456 931 456 981 q 476 977 456 960 q 528 1000 497 994 q 591 1000 560 1006 q 643 977 622 994 q 664 931 664 960 q 717 943 693 949 q 754 918 742 938 q 762 874 767 899 q 726 831 757 850 q 787 823 761 843 q 825 769 813 803 q 829 703 838 735 q 788 658 821 671 q 854 659 832 675 q 869 617 876 643 q 817 575 861 590 q 874 579 856 589 q 884 551 892 569 q 836 518 876 532 q 897 520 878 532 q 909 487 917 508 q 860 450 901 465 q 906 444 885 458 q 943 401 928 429 q 964 342 958 374 q 962 286 969 311 q 929 251 954 261 q 979 249 957 261 q 1017 210 1001 236 q 1036 156 1032 185 q 1031 103 1040 126 q 993 69 1021 79 q 990 18 1006 36 q 950 4 974 0 q 914 42 926 8 q 897 -15 914 4 q 859 -33 881 -33 q 821 -15 838 -33 q 804 42 804 4 q 758 30 783 22 q 715 60 733 38 q 693 107 696 82 q 658 83 678 85 q 624 97 638 81 q 613 147 610 114 q 570 101 603 114 q 503 97 538 89 q 453 133 468 106 q 431 81 456 99 q 376 69 407 63 q 328 117 344 75 q 324 66 340 90 q 278 27 308 42 q 220 14 249 13 q 178 42 192 15 q 160 -24 178 -7 q 125 -24 143 -40 q 107 42 107 -7 q 97 -7 107 8 q 75 -14 86 -22 q 62 29 64 -6 q 76 131 60 64 m 478 356 q 497 388 478 376 q 540 400 515 399 q 585 394 565 401 q 591 420 583 407 q 613 439 599 433 q 580 464 590 443 q 574 506 569 485 q 604 536 579 528 q 561 553 581 528 q 536 608 542 578 q 508 592 524 599 q 481 589 493 586 q 492 548 496 574 q 472 504 489 522 q 432 493 456 486 q 454 464 450 488 q 458 413 458 440 q 461 368 458 386 q 478 356 464 350 m 413 1060 q 381 1052 401 1047 q 342 1073 361 1057 q 313 1108 322 1089 q 314 1139 303 1126 q 278 1151 292 1132 q 265 1193 264 1169 q 288 1224 265 1217 q 289 1248 281 1235 q 313 1271 297 1261 q 343 1281 328 1281 q 367 1271 358 1282 q 388 1284 371 1283 q 425 1278 406 1285 q 456 1258 444 1271 q 464 1233 468 1246 q 494 1254 472 1253 q 538 1244 515 1256 q 569 1217 560 1233 q 590 1248 575 1232 q 621 1272 606 1264 q 646 1271 636 1279 q 666 1295 647 1289 q 708 1299 685 1301 q 749 1286 732 1297 q 763 1257 765 1275 q 788 1234 782 1253 q 789 1194 793 1215 q 772 1157 785 1172 q 740 1146 758 1142 q 748 1109 757 1131 q 718 1076 739 1088 q 679 1081 697 1065 q 662 1047 685 1063 q 598 1026 639 1032 q 508 1027 557 1019 q 413 1060 460 1035 z "},"Â":{"ha":1049,"x_min":6,"x_max":1040,"o":"m 76 131 q 17 166 29 147 q 26 192 6 185 q 94 183 47 200 q 49 220 60 196 q 46 268 38 244 q 78 303 54 292 q 138 303 101 315 q 92 347 101 315 q 94 412 83 379 q 133 464 106 444 q 196 471 160 483 q 156 509 164 482 q 158 565 149 536 q 192 611 168 594 q 247 617 215 628 q 210 659 217 628 q 216 724 204 690 q 252 779 228 758 q 307 789 276 800 q 285 831 285 803 q 303 887 286 858 q 343 930 319 915 q 390 931 367 944 q 407 997 390 981 q 440 997 424 1013 q 456 931 456 981 q 476 977 456 960 q 528 1000 497 994 q 591 1000 560 1006 q 643 977 622 994 q 664 931 664 960 q 717 943 693 949 q 754 918 742 938 q 762 874 767 899 q 726 831 757 850 q 787 823 761 843 q 825 769 813 803 q 829 703 838 735 q 788 658 821 671 q 854 659 832 675 q 869 617 876 643 q 817 575 861 590 q 874 579 856 589 q 884 551 892 569 q 836 518 876 532 q 897 520 878 532 q 909 487 917 508 q 860 450 901 465 q 906 444 885 458 q 943 401 928 429 q 964 342 958 374 q 962 286 969 311 q 929 251 954 261 q 979 249 957 261 q 1017 210 1001 236 q 1036 156 1032 185 q 1031 103 1040 126 q 993 69 1021 79 q 990 18 1006 36 q 950 4 974 0 q 914 42 926 8 q 897 -15 914 4 q 859 -33 881 -33 q 821 -15 838 -33 q 804 42 804 4 q 758 30 783 22 q 715 60 733 38 q 693 107 696 82 q 658 83 678 85 q 624 97 638 81 q 613 147 610 114 q 570 101 603 114 q 503 97 538 89 q 453 133 468 106 q 431 81 456 99 q 376 69 407 63 q 328 117 344 75 q 324 66 340 90 q 278 27 308 42 q 220 14 249 13 q 178 42 192 15 q 160 -24 178 -7 q 125 -24 143 -40 q 107 42 107 -7 q 97 -7 107 8 q 75 -14 86 -22 q 62 29 64 -6 q 76 131 60 64 m 478 356 q 497 388 478 376 q 540 400 515 399 q 585 394 565 401 q 591 420 583 407 q 613 439 599 433 q 580 464 590 443 q 574 506 569 485 q 604 536 579 528 q 561 553 581 528 q 536 608 542 578 q 508 592 524 599 q 481 589 493 586 q 492 548 496 574 q 472 504 489 522 q 432 493 456 486 q 454 464 450 488 q 458 413 458 440 q 461 368 458 386 q 478 356 464 350 m 229 1058 q 216 1089 214 1069 q 232 1126 218 1108 q 263 1151 246 1143 q 296 1146 281 1158 q 287 1175 283 1158 q 303 1206 290 1192 q 333 1226 317 1221 q 363 1219 350 1231 q 366 1247 356 1232 q 395 1272 376 1261 q 432 1283 414 1282 q 457 1271 450 1283 q 479 1298 457 1289 q 531 1307 501 1307 q 582 1298 560 1307 q 604 1271 604 1289 q 629 1283 613 1285 q 663 1272 646 1282 q 688 1247 679 1263 q 688 1219 696 1232 q 716 1225 700 1231 q 745 1205 732 1219 q 763 1174 758 1190 q 754 1146 767 1157 q 780 1135 769 1149 q 794 1103 790 1122 q 794 1068 799 1085 q 774 1049 789 1051 q 759 1019 774 1026 q 729 1019 744 1011 q 714 1049 714 1026 q 689 1031 708 1033 q 646 1034 669 1028 q 604 1053 622 1040 q 585 1082 586 1067 q 557 1060 579 1068 q 508 1050 535 1051 q 461 1056 482 1049 q 440 1078 440 1063 q 423 1049 443 1061 q 375 1032 403 1038 q 324 1030 347 1026 q 297 1049 301 1033 q 283 1016 297 1024 q 253 1018 269 1008 q 229 1058 236 1028 z "},"Ä":{"ha":1049,"x_min":6,"x_max":1040,"o":"m 76 131 q 17 166 29 147 q 26 192 6 185 q 94 183 47 200 q 49 220 60 196 q 46 268 38 244 q 78 303 54 292 q 138 303 101 315 q 92 347 101 315 q 94 412 83 379 q 133 464 106 444 q 196 471 160 483 q 156 509 164 482 q 158 565 149 536 q 192 611 168 594 q 247 617 215 628 q 210 659 217 628 q 216 724 204 690 q 252 779 228 758 q 307 789 276 800 q 285 831 285 803 q 303 887 286 858 q 343 930 319 915 q 390 931 367 944 q 407 997 390 981 q 440 997 424 1013 q 456 931 456 981 q 476 977 456 960 q 528 1000 497 994 q 591 1000 560 1006 q 643 977 622 994 q 664 931 664 960 q 717 943 693 949 q 754 918 742 938 q 762 874 767 899 q 726 831 757 850 q 787 823 761 843 q 825 769 813 803 q 829 703 838 735 q 788 658 821 671 q 854 659 832 675 q 869 617 876 643 q 817 575 861 590 q 874 579 856 589 q 884 551 892 569 q 836 518 876 532 q 897 520 878 532 q 909 487 917 508 q 860 450 901 465 q 906 444 885 458 q 943 401 928 429 q 964 342 958 374 q 962 286 969 311 q 929 251 954 261 q 979 249 957 261 q 1017 210 1001 236 q 1036 156 1032 185 q 1031 103 1040 126 q 993 69 1021 79 q 990 18 1006 36 q 950 4 974 0 q 914 42 926 8 q 897 -15 914 4 q 859 -33 881 -33 q 821 -15 838 -33 q 804 42 804 4 q 758 30 783 22 q 715 60 733 38 q 693 107 696 82 q 658 83 678 85 q 624 97 638 81 q 613 147 610 114 q 570 101 603 114 q 503 97 538 89 q 453 133 468 106 q 431 81 456 99 q 376 69 407 63 q 328 117 344 75 q 324 66 340 90 q 278 27 308 42 q 220 14 249 13 q 178 42 192 15 q 160 -24 178 -7 q 125 -24 143 -40 q 107 42 107 -7 q 97 -7 107 8 q 75 -14 86 -22 q 62 29 64 -6 q 76 131 60 64 m 478 356 q 497 388 478 376 q 540 400 515 399 q 585 394 565 401 q 591 420 583 407 q 613 439 599 433 q 580 464 590 443 q 574 506 569 485 q 604 536 579 528 q 561 553 581 528 q 536 608 542 578 q 508 592 524 599 q 481 589 493 586 q 492 548 496 574 q 472 504 489 522 q 432 493 456 486 q 454 464 450 488 q 458 413 458 440 q 461 368 458 386 q 478 356 464 350 m 226 1163 q 209 1187 211 1168 q 215 1227 207 1206 q 235 1263 222 1249 q 263 1271 247 1276 q 278 1301 263 1290 q 315 1311 294 1311 q 352 1301 336 1311 q 368 1271 368 1290 q 390 1280 375 1282 q 422 1269 406 1278 q 447 1247 438 1260 q 449 1224 456 1235 q 478 1206 471 1224 q 478 1169 485 1188 q 449 1151 471 1151 q 474 1135 468 1151 q 474 1101 481 1118 q 449 1085 468 1085 q 447 1056 458 1069 q 417 1038 435 1042 q 390 1049 400 1033 q 369 1020 390 1028 q 317 1022 347 1013 q 262 1066 288 1032 q 226 1163 236 1100 m 600 1146 q 584 1167 588 1147 q 584 1212 581 1188 q 597 1254 588 1236 q 619 1271 607 1272 q 639 1300 619 1290 q 683 1310 658 1310 q 728 1300 708 1310 q 747 1271 747 1290 q 775 1274 758 1281 q 806 1251 792 1267 q 827 1217 821 1235 q 822 1190 833 1200 q 846 1175 838 1190 q 854 1140 854 1160 q 846 1106 854 1121 q 822 1090 838 1090 q 815 1062 828 1075 q 780 1040 801 1049 q 739 1033 758 1032 q 714 1049 719 1033 q 700 1027 714 1033 q 666 1029 686 1021 q 628 1066 646 1038 q 600 1146 610 1094 z "},"À":{"ha":1049,"x_min":6,"x_max":1040,"o":"m 76 131 q 17 166 29 147 q 26 192 6 185 q 94 183 47 200 q 49 220 60 196 q 46 268 38 244 q 78 303 54 292 q 138 303 101 315 q 92 347 101 315 q 94 412 83 379 q 133 464 106 444 q 196 471 160 483 q 156 509 164 482 q 158 565 149 536 q 192 611 168 594 q 247 617 215 628 q 210 659 217 628 q 216 724 204 690 q 252 779 228 758 q 307 789 276 800 q 285 831 285 803 q 303 887 286 858 q 343 930 319 915 q 390 931 367 944 q 407 997 390 981 q 440 997 424 1013 q 456 931 456 981 q 476 977 456 960 q 528 1000 497 994 q 591 1000 560 1006 q 643 977 622 994 q 664 931 664 960 q 717 943 693 949 q 754 918 742 938 q 762 874 767 899 q 726 831 757 850 q 787 823 761 843 q 825 769 813 803 q 829 703 838 735 q 788 658 821 671 q 854 659 832 675 q 869 617 876 643 q 817 575 861 590 q 874 579 856 589 q 884 551 892 569 q 836 518 876 532 q 897 520 878 532 q 909 487 917 508 q 860 450 901 465 q 906 444 885 458 q 943 401 928 429 q 964 342 958 374 q 962 286 969 311 q 929 251 954 261 q 979 249 957 261 q 1017 210 1001 236 q 1036 156 1032 185 q 1031 103 1040 126 q 993 69 1021 79 q 990 18 1006 36 q 950 4 974 0 q 914 42 926 8 q 897 -15 914 4 q 859 -33 881 -33 q 821 -15 838 -33 q 804 42 804 4 q 758 30 783 22 q 715 60 733 38 q 693 107 696 82 q 658 83 678 85 q 624 97 638 81 q 613 147 610 114 q 570 101 603 114 q 503 97 538 89 q 453 133 468 106 q 431 81 456 99 q 376 69 407 63 q 328 117 344 75 q 324 66 340 90 q 278 27 308 42 q 220 14 249 13 q 178 42 192 15 q 160 -24 178 -7 q 125 -24 143 -40 q 107 42 107 -7 q 97 -7 107 8 q 75 -14 86 -22 q 62 29 64 -6 q 76 131 60 64 m 478 356 q 497 388 478 376 q 540 400 515 399 q 585 394 565 401 q 591 420 583 407 q 613 439 599 433 q 580 464 590 443 q 574 506 569 485 q 604 536 579 528 q 561 553 581 528 q 536 608 542 578 q 508 592 524 599 q 481 589 493 586 q 492 548 496 574 q 472 504 489 522 q 432 493 456 486 q 454 464 450 488 q 458 413 458 440 q 461 368 458 386 q 478 356 464 350 m 419 1054 q 390 1043 408 1040 q 354 1058 371 1046 q 331 1088 338 1071 q 335 1119 324 1106 q 307 1106 322 1103 q 285 1124 292 1110 q 293 1156 279 1139 q 263 1149 283 1143 q 223 1172 243 1156 q 192 1208 203 1189 q 192 1239 182 1226 q 183 1263 179 1251 q 198 1279 186 1275 q 222 1271 210 1283 q 238 1294 222 1286 q 272 1303 253 1303 q 307 1294 292 1303 q 322 1271 322 1286 q 338 1299 322 1290 q 372 1308 353 1308 q 407 1299 392 1308 q 422 1271 422 1290 q 440 1296 425 1289 q 474 1299 456 1303 q 506 1285 493 1296 q 515 1256 518 1274 q 553 1264 535 1272 q 577 1236 572 1256 q 563 1200 582 1217 q 601 1204 581 1217 q 629 1169 622 1192 q 618 1132 636 1147 q 645 1110 639 1131 q 643 1068 651 1089 q 614 1049 635 1047 q 600 1013 614 1022 q 572 1013 586 1004 q 558 1049 558 1022 q 542 1026 558 1033 q 500 1018 525 1018 q 453 1027 475 1018 q 419 1054 431 1036 z "},"Ā":{"ha":1049,"x_min":6,"x_max":1040,"o":"m 76 131 q 17 166 29 147 q 26 192 6 185 q 94 183 47 200 q 49 220 60 196 q 46 268 38 244 q 78 303 54 292 q 138 303 101 315 q 92 347 101 315 q 94 412 83 379 q 133 464 106 444 q 196 471 160 483 q 156 509 164 482 q 158 565 149 536 q 192 611 168 594 q 247 617 215 628 q 210 659 217 628 q 216 724 204 690 q 252 779 228 758 q 307 789 276 800 q 285 831 285 803 q 303 887 286 858 q 343 930 319 915 q 390 931 367 944 q 407 997 390 981 q 440 997 424 1013 q 456 931 456 981 q 476 977 456 960 q 528 1000 497 994 q 591 1000 560 1006 q 643 977 622 994 q 664 931 664 960 q 717 943 693 949 q 754 918 742 938 q 762 874 767 899 q 726 831 757 850 q 787 823 761 843 q 825 769 813 803 q 829 703 838 735 q 788 658 821 671 q 854 659 832 675 q 869 617 876 643 q 817 575 861 590 q 874 579 856 589 q 884 551 892 569 q 836 518 876 532 q 897 520 878 532 q 909 487 917 508 q 860 450 901 465 q 906 444 885 458 q 943 401 928 429 q 964 342 958 374 q 962 286 969 311 q 929 251 954 261 q 979 249 957 261 q 1017 210 1001 236 q 1036 156 1032 185 q 1031 103 1040 126 q 993 69 1021 79 q 990 18 1006 36 q 950 4 974 0 q 914 42 926 8 q 897 -15 914 4 q 859 -33 881 -33 q 821 -15 838 -33 q 804 42 804 4 q 758 30 783 22 q 715 60 733 38 q 693 107 696 82 q 658 83 678 85 q 624 97 638 81 q 613 147 610 114 q 570 101 603 114 q 503 97 538 89 q 453 133 468 106 q 431 81 456 99 q 376 69 407 63 q 328 117 344 75 q 324 66 340 90 q 278 27 308 42 q 220 14 249 13 q 178 42 192 15 q 160 -24 178 -7 q 125 -24 143 -40 q 107 42 107 -7 q 97 -7 107 8 q 75 -14 86 -22 q 62 29 64 -6 q 76 131 60 64 m 478 356 q 497 388 478 376 q 540 400 515 399 q 585 394 565 401 q 591 420 583 407 q 613 439 599 433 q 580 464 590 443 q 574 506 569 485 q 604 536 579 528 q 561 553 581 528 q 536 608 542 578 q 508 592 524 599 q 481 589 493 586 q 492 548 496 574 q 472 504 489 522 q 432 493 456 486 q 454 464 450 488 q 458 413 458 440 q 461 368 458 386 q 478 356 464 350 m 238 1079 q 206 1099 214 1079 q 206 1138 197 1118 q 238 1157 214 1157 q 218 1176 222 1161 q 219 1209 214 1192 q 235 1237 224 1226 q 263 1243 247 1247 q 284 1267 263 1260 q 334 1275 306 1275 q 384 1267 363 1275 q 406 1243 406 1260 q 424 1274 406 1264 q 467 1283 443 1283 q 508 1274 490 1283 q 526 1243 526 1264 q 541 1270 526 1261 q 574 1279 556 1279 q 607 1270 593 1279 q 621 1243 621 1261 q 641 1272 621 1263 q 687 1281 661 1281 q 733 1272 713 1281 q 753 1243 753 1263 q 778 1242 764 1251 q 805 1215 793 1232 q 819 1182 817 1199 q 811 1157 822 1165 q 842 1136 835 1157 q 842 1094 850 1115 q 811 1074 835 1074 q 813 1043 821 1056 q 789 1031 804 1031 q 764 1049 774 1031 q 741 1022 764 1031 q 688 1014 718 1014 q 633 1022 657 1014 q 610 1049 610 1031 q 586 1023 610 1032 q 532 1014 563 1014 q 478 1023 501 1014 q 456 1049 456 1032 q 438 1021 456 1028 q 401 1021 419 1014 q 383 1049 383 1028 q 367 1020 383 1028 q 334 1020 350 1013 q 318 1049 318 1028 q 303 1022 318 1028 q 269 1030 288 1017 q 238 1079 250 1043 z "},"Ą":{"ha":1049,"x_min":10,"x_max":1063,"o":"m 942 -262 q 903 -322 926 -311 q 865 -311 879 -333 q 867 -239 851 -289 q 816 -244 842 -256 q 774 -206 790 -232 q 757 -151 757 -179 q 783 -107 757 -124 q 728 -99 750 -112 q 697 -63 706 -86 q 693 -17 688 -40 q 721 22 699 7 q 674 35 696 21 q 640 73 653 50 q 628 119 626 96 q 567 99 604 100 q 501 116 529 99 q 472 168 472 133 q 454 107 474 128 q 409 86 435 86 q 365 107 383 86 q 340 58 360 81 q 294 29 321 36 q 244 42 268 22 q 222 -17 244 3 q 169 -37 199 -37 q 118 -17 140 -37 q 96 42 96 3 q 61 9 78 13 q 40 22 44 6 q 56 68 36 39 q 17 106 25 79 q 19 163 10 133 q 52 208 29 192 q 106 214 75 225 q 66 257 74 226 q 69 321 58 288 q 106 374 81 354 q 164 382 132 393 q 122 424 131 393 q 125 486 114 454 q 162 537 136 518 q 221 543 188 556 q 181 578 190 554 q 181 628 172 603 q 213 666 190 653 q 265 669 235 679 q 226 703 235 679 q 227 753 218 728 q 258 791 236 778 q 308 794 279 804 q 271 835 278 807 q 276 889 264 863 q 312 929 288 915 q 368 931 336 943 q 386 987 367 968 q 431 1006 406 1006 q 475 988 456 1007 q 494 931 494 968 q 518 985 494 967 q 574 1004 542 1004 q 629 985 606 1004 q 653 931 653 967 q 694 939 674 946 q 729 913 715 932 q 744 873 743 894 q 725 836 744 851 q 780 835 756 847 q 820 797 804 822 q 840 743 836 772 q 831 689 843 714 q 789 654 819 664 q 851 656 826 667 q 885 623 876 646 q 880 576 893 600 q 829 539 867 551 q 893 542 868 553 q 926 508 918 531 q 921 462 933 486 q 869 424 908 438 q 924 422 900 435 q 965 381 949 408 q 985 324 981 354 q 978 267 989 293 q 938 231 967 242 q 983 224 961 239 q 1019 180 1004 208 q 1041 119 1035 151 q 1040 62 1047 88 q 1008 28 1032 36 q 1015 -28 1025 -3 q 982 -69 1004 -54 q 993 -124 997 -93 q 956 -175 989 -154 q 1010 -157 989 -151 q 1028 -184 1031 -162 q 993 -229 1026 -206 q 1051 -277 1063 -260 q 942 -262 1039 -294 m 506 356 q 517 403 506 392 q 539 403 528 415 q 550 356 550 392 q 561 408 550 394 q 583 410 572 421 q 593 367 593 400 q 613 394 596 388 q 597 453 599 421 q 618 493 596 486 q 573 503 589 485 q 560 545 557 521 q 592 578 564 569 q 556 579 569 571 q 540 600 542 588 q 517 600 529 596 q 493 580 508 586 q 460 583 478 574 q 481 554 478 576 q 477 508 485 532 q 454 467 469 483 q 421 456 439 450 q 444 433 438 451 q 455 395 450 415 q 470 363 460 375 q 506 356 481 350 z "},"Å":{"ha":1049,"x_min":6,"x_max":1040,"o":"m 76 131 q 17 166 29 147 q 26 192 6 185 q 94 183 47 200 q 49 220 60 196 q 46 268 38 244 q 78 303 54 292 q 138 303 101 315 q 92 347 101 315 q 94 412 83 379 q 133 464 106 444 q 196 471 160 483 q 156 509 164 482 q 158 565 149 536 q 192 611 168 594 q 247 617 215 628 q 210 659 217 628 q 216 724 204 690 q 252 779 228 758 q 307 789 276 800 q 285 831 285 803 q 303 887 286 858 q 343 930 319 915 q 390 931 367 944 q 407 997 390 981 q 440 997 424 1013 q 456 931 456 981 q 476 977 456 960 q 528 1000 497 994 q 591 1000 560 1006 q 643 977 622 994 q 664 931 664 960 q 717 943 693 949 q 754 918 742 938 q 762 874 767 899 q 726 831 757 850 q 787 823 761 843 q 825 769 813 803 q 829 703 838 735 q 788 658 821 671 q 854 659 832 675 q 869 617 876 643 q 817 575 861 590 q 874 579 856 589 q 884 551 892 569 q 836 518 876 532 q 897 520 878 532 q 909 487 917 508 q 860 450 901 465 q 906 444 885 458 q 943 401 928 429 q 964 342 958 374 q 962 286 969 311 q 929 251 954 261 q 979 249 957 261 q 1017 210 1001 236 q 1036 156 1032 185 q 1031 103 1040 126 q 993 69 1021 79 q 990 18 1006 36 q 950 4 974 0 q 914 42 926 8 q 897 -15 914 4 q 859 -33 881 -33 q 821 -15 838 -33 q 804 42 804 4 q 758 30 783 22 q 715 60 733 38 q 693 107 696 82 q 658 83 678 85 q 624 97 638 81 q 613 147 610 114 q 570 101 603 114 q 503 97 538 89 q 453 133 468 106 q 431 81 456 99 q 376 69 407 63 q 328 117 344 75 q 324 66 340 90 q 278 27 308 42 q 220 14 249 13 q 178 42 192 15 q 160 -24 178 -7 q 125 -24 143 -40 q 107 42 107 -7 q 97 -7 107 8 q 75 -14 86 -22 q 62 29 64 -6 q 76 131 60 64 m 478 356 q 497 388 478 376 q 540 400 515 399 q 585 394 565 401 q 591 420 583 407 q 613 439 599 433 q 580 464 590 443 q 574 506 569 485 q 604 536 579 528 q 561 553 581 528 q 536 608 542 578 q 508 592 524 599 q 481 589 493 586 q 492 548 496 574 q 472 504 489 522 q 432 493 456 486 q 454 464 450 488 q 458 413 458 440 q 461 368 458 386 q 478 356 464 350 m 449 1057 q 421 1065 436 1050 q 394 1105 406 1081 q 382 1151 383 1129 q 394 1178 381 1172 q 372 1201 374 1186 q 382 1227 369 1217 q 414 1229 394 1238 q 424 1258 408 1243 q 465 1283 440 1272 q 510 1296 489 1294 q 538 1285 532 1297 q 569 1291 547 1297 q 614 1267 592 1285 q 649 1231 636 1250 q 651 1199 661 1211 q 669 1174 667 1194 q 667 1128 672 1153 q 649 1086 661 1103 q 621 1072 636 1069 q 607 1032 631 1049 q 540 1018 583 1015 q 449 1057 497 1021 m 514 1172 q 535 1153 524 1164 q 554 1136 546 1142 q 541 1158 546 1143 q 538 1183 536 1172 q 514 1172 528 1175 m 565 1132 l 561 1132 q 565 1132 564 1132 z "},"Ã":{"ha":1049,"x_min":6,"x_max":1040,"o":"m 76 131 q 17 166 29 147 q 26 192 6 185 q 94 183 47 200 q 49 220 60 196 q 46 268 38 244 q 78 303 54 292 q 138 303 101 315 q 92 347 101 315 q 94 412 83 379 q 133 464 106 444 q 196 471 160 483 q 156 509 164 482 q 158 565 149 536 q 192 611 168 594 q 247 617 215 628 q 210 659 217 628 q 216 724 204 690 q 252 779 228 758 q 307 789 276 800 q 285 831 285 803 q 303 887 286 858 q 343 930 319 915 q 390 931 367 944 q 407 997 390 981 q 440 997 424 1013 q 456 931 456 981 q 476 977 456 960 q 528 1000 497 994 q 591 1000 560 1006 q 643 977 622 994 q 664 931 664 960 q 717 943 693 949 q 754 918 742 938 q 762 874 767 899 q 726 831 757 850 q 787 823 761 843 q 825 769 813 803 q 829 703 838 735 q 788 658 821 671 q 854 659 832 675 q 869 617 876 643 q 817 575 861 590 q 874 579 856 589 q 884 551 892 569 q 836 518 876 532 q 897 520 878 532 q 909 487 917 508 q 860 450 901 465 q 906 444 885 458 q 943 401 928 429 q 964 342 958 374 q 962 286 969 311 q 929 251 954 261 q 979 249 957 261 q 1017 210 1001 236 q 1036 156 1032 185 q 1031 103 1040 126 q 993 69 1021 79 q 990 18 1006 36 q 950 4 974 0 q 914 42 926 8 q 897 -15 914 4 q 859 -33 881 -33 q 821 -15 838 -33 q 804 42 804 4 q 758 30 783 22 q 715 60 733 38 q 693 107 696 82 q 658 83 678 85 q 624 97 638 81 q 613 147 610 114 q 570 101 603 114 q 503 97 538 89 q 453 133 468 106 q 431 81 456 99 q 376 69 407 63 q 328 117 344 75 q 324 66 340 90 q 278 27 308 42 q 220 14 249 13 q 178 42 192 15 q 160 -24 178 -7 q 125 -24 143 -40 q 107 42 107 -7 q 97 -7 107 8 q 75 -14 86 -22 q 62 29 64 -6 q 76 131 60 64 m 478 356 q 497 388 478 376 q 540 400 515 399 q 585 394 565 401 q 591 420 583 407 q 613 439 599 433 q 580 464 590 443 q 574 506 569 485 q 604 536 579 528 q 561 553 581 528 q 536 608 542 578 q 508 592 524 599 q 481 589 493 586 q 492 548 496 574 q 472 504 489 522 q 432 493 456 486 q 454 464 450 488 q 458 413 458 440 q 461 368 458 386 q 478 356 464 350 m 594 1043 q 572 1028 590 1029 q 531 1033 553 1026 q 490 1051 508 1039 q 467 1076 472 1063 q 444 1049 463 1061 q 402 1031 425 1036 q 360 1028 379 1025 q 335 1049 340 1032 q 311 1019 332 1025 q 270 1022 290 1013 q 253 1056 250 1032 q 235 1085 236 1060 q 242 1142 233 1111 q 265 1194 250 1172 q 294 1211 279 1215 q 292 1247 281 1228 q 324 1273 303 1265 q 360 1264 346 1281 q 384 1282 360 1276 q 440 1286 408 1288 q 494 1276 471 1285 q 518 1256 518 1268 q 542 1279 521 1274 q 586 1280 563 1285 q 622 1261 610 1275 q 630 1285 619 1276 q 655 1292 640 1294 q 681 1271 669 1290 q 694 1306 681 1297 q 722 1306 708 1315 q 736 1271 736 1297 q 765 1280 746 1286 q 797 1258 785 1274 q 799 1228 808 1242 q 814 1197 815 1221 q 801 1145 813 1172 q 773 1101 790 1118 q 739 1092 756 1083 q 730 1060 746 1075 q 688 1036 714 1046 q 636 1027 663 1026 q 594 1043 610 1028 z "},"Æ":{"ha":1396,"x_min":4,"x_max":1383,"o":"m 67 88 q 17 124 31 101 q 12 167 4 146 q 44 197 19 188 q 104 194 68 207 q 53 226 67 207 q 44 263 39 246 q 74 285 50 279 q 135 279 97 292 q 91 313 101 290 q 88 358 81 336 q 118 390 96 379 q 174 390 140 401 q 130 426 140 401 q 128 476 119 451 q 160 514 136 501 q 217 515 183 526 q 160 552 171 531 q 172 584 150 574 q 239 578 193 594 q 192 610 204 590 q 185 647 179 629 q 214 672 192 665 q 271 667 236 679 q 235 701 244 676 q 230 758 225 726 q 251 816 235 789 q 290 857 267 843 q 339 861 313 871 q 347 910 328 886 q 399 947 367 933 q 460 958 431 960 q 501 931 490 956 q 522 979 501 963 q 571 996 543 996 q 619 979 599 996 q 640 931 640 963 q 664 992 640 972 q 718 1013 688 1013 q 772 992 749 1013 q 796 931 796 972 q 810 981 796 964 q 843 999 825 999 q 876 981 861 999 q 890 931 890 964 q 904 994 890 978 q 932 994 918 1010 q 946 931 946 978 q 963 1002 946 985 q 996 1002 979 1019 q 1013 931 1013 985 q 1033 989 1013 969 q 1082 1008 1054 1008 q 1131 989 1110 1008 q 1151 931 1151 969 q 1185 974 1160 963 q 1238 978 1210 985 q 1283 950 1265 971 q 1292 897 1300 929 q 1339 874 1322 897 q 1356 822 1356 851 q 1342 768 1357 792 q 1296 743 1326 744 q 1281 705 1296 718 q 1246 692 1265 692 q 1211 705 1226 692 q 1196 743 1196 718 q 1171 695 1196 711 q 1113 679 1146 679 q 1054 695 1079 679 q 1029 743 1029 711 q 1003 701 1029 714 q 949 692 976 689 q 951 647 954 671 q 935 604 947 622 q 935 578 936 589 q 957 613 938 601 q 1001 623 976 624 q 1043 610 1025 622 q 1061 572 1061 597 q 1083 615 1061 601 q 1133 629 1104 629 q 1183 615 1161 629 q 1204 572 1204 601 q 1242 611 1222 607 q 1271 597 1263 615 q 1261 543 1279 578 q 1317 528 1299 543 q 1336 492 1336 513 q 1317 456 1336 471 q 1261 440 1299 440 q 1263 392 1272 411 q 1233 364 1253 372 q 1192 364 1213 356 q 1161 400 1171 372 q 1140 360 1161 374 q 1092 346 1119 346 q 1043 360 1064 346 q 1022 400 1022 374 q 1006 348 1022 363 q 972 340 989 333 q 939 297 967 308 q 949 275 949 289 q 1009 279 978 282 q 1063 264 1040 276 q 1085 229 1085 251 q 1106 276 1085 264 q 1147 276 1126 288 q 1168 229 1168 264 q 1190 274 1169 260 q 1238 286 1211 288 q 1285 269 1265 285 q 1303 222 1304 253 q 1367 205 1351 222 q 1367 169 1383 188 q 1303 151 1351 151 q 1331 114 1328 138 q 1321 69 1333 90 q 1287 38 1308 47 q 1240 42 1265 28 q 1219 -18 1240 -3 q 1178 -18 1199 -33 q 1157 42 1157 -3 q 1140 -14 1157 4 q 1099 -32 1122 -32 q 1058 -14 1076 -32 q 1040 42 1040 4 q 1013 -17 1040 3 q 949 -36 986 -36 q 885 -17 913 -36 q 858 42 858 3 q 840 -14 858 4 q 799 -32 822 -32 q 759 -14 776 -32 q 742 42 742 4 q 724 -17 742 3 q 685 -37 707 -37 q 646 -17 663 -36 q 629 43 629 3 q 585 52 601 43 q 567 72 569 61 q 539 85 550 74 q 525 115 528 96 q 485 91 510 93 q 442 107 460 89 q 415 56 438 78 q 364 29 393 33 q 308 49 335 25 q 295 -15 311 7 q 256 -37 279 -36 q 215 -19 233 -39 q 194 42 197 0 q 171 -10 194 7 q 119 -22 147 -26 q 73 9 90 -18 q 67 88 56 36 m 474 356 q 483 407 474 394 q 503 407 493 419 q 513 356 513 394 q 537 406 511 390 q 588 414 563 421 q 595 468 585 442 q 629 494 606 494 q 602 511 611 494 q 593 549 593 528 q 602 588 593 571 q 629 604 611 604 q 601 622 611 604 q 591 661 592 639 q 599 700 590 683 q 593 699 596 699 q 556 677 578 685 q 518 674 535 669 q 524 629 529 656 q 502 585 519 603 q 461 574 485 567 q 491 542 488 565 q 479 503 494 519 q 438 493 464 486 q 463 464 458 488 q 467 413 468 440 q 465 367 465 385 q 474 356 465 350 z "},"Ǽ":{"ha":1396,"x_min":4,"x_max":1383,"o":"m 67 88 q 17 124 31 101 q 12 167 4 146 q 44 197 19 188 q 104 194 68 207 q 53 226 67 207 q 44 263 39 246 q 74 285 50 279 q 135 279 97 292 q 91 313 101 290 q 88 358 81 336 q 118 390 96 379 q 174 390 140 401 q 130 426 140 401 q 128 476 119 451 q 160 514 136 501 q 217 515 183 526 q 160 552 171 531 q 172 584 150 574 q 239 578 193 594 q 192 610 204 590 q 185 647 179 629 q 214 672 192 665 q 271 667 236 679 q 235 701 244 676 q 230 758 225 726 q 251 816 235 789 q 290 857 267 843 q 339 861 313 871 q 347 910 328 886 q 399 947 367 933 q 460 958 431 960 q 501 931 490 956 q 522 979 501 963 q 571 996 543 996 q 619 979 599 996 q 640 931 640 963 q 664 992 640 972 q 718 1013 688 1013 q 772 992 749 1013 q 796 931 796 972 q 810 981 796 964 q 843 999 825 999 q 876 981 861 999 q 890 931 890 964 q 904 994 890 978 q 932 994 918 1010 q 946 931 946 978 q 963 1002 946 985 q 996 1002 979 1019 q 1013 931 1013 985 q 1033 989 1013 969 q 1082 1008 1054 1008 q 1131 989 1110 1008 q 1151 931 1151 969 q 1185 974 1160 963 q 1238 978 1210 985 q 1283 950 1265 971 q 1292 897 1300 929 q 1339 874 1322 897 q 1356 822 1356 851 q 1342 768 1357 792 q 1296 743 1326 744 q 1281 705 1296 718 q 1246 692 1265 692 q 1211 705 1226 692 q 1196 743 1196 718 q 1171 695 1196 711 q 1113 679 1146 679 q 1054 695 1079 679 q 1029 743 1029 711 q 1003 701 1029 714 q 949 692 976 689 q 951 647 954 671 q 935 604 947 622 q 935 578 936 589 q 957 613 938 601 q 1001 623 976 624 q 1043 610 1025 622 q 1061 572 1061 597 q 1083 615 1061 601 q 1133 629 1104 629 q 1183 615 1161 629 q 1204 572 1204 601 q 1242 611 1222 607 q 1271 597 1263 615 q 1261 543 1279 578 q 1317 528 1299 543 q 1336 492 1336 513 q 1317 456 1336 471 q 1261 440 1299 440 q 1263 392 1272 411 q 1233 364 1253 372 q 1192 364 1213 356 q 1161 400 1171 372 q 1140 360 1161 374 q 1092 346 1119 346 q 1043 360 1064 346 q 1022 400 1022 374 q 1006 348 1022 363 q 972 340 989 333 q 939 297 967 308 q 949 275 949 289 q 1009 279 978 282 q 1063 264 1040 276 q 1085 229 1085 251 q 1106 276 1085 264 q 1147 276 1126 288 q 1168 229 1168 264 q 1190 274 1169 260 q 1238 286 1211 288 q 1285 269 1265 285 q 1303 222 1304 253 q 1367 205 1351 222 q 1367 169 1383 188 q 1303 151 1351 151 q 1331 114 1328 138 q 1321 69 1333 90 q 1287 38 1308 47 q 1240 42 1265 28 q 1219 -18 1240 -3 q 1178 -18 1199 -33 q 1157 42 1157 -3 q 1140 -14 1157 4 q 1099 -32 1122 -32 q 1058 -14 1076 -32 q 1040 42 1040 4 q 1013 -17 1040 3 q 949 -36 986 -36 q 885 -17 913 -36 q 858 42 858 3 q 840 -14 858 4 q 799 -32 822 -32 q 759 -14 776 -32 q 742 42 742 4 q 724 -17 742 3 q 685 -37 707 -37 q 646 -17 663 -36 q 629 43 629 3 q 585 52 601 43 q 567 72 569 61 q 539 85 550 74 q 525 115 528 96 q 485 91 510 93 q 442 107 460 89 q 415 56 438 78 q 364 29 393 33 q 308 49 335 25 q 295 -15 311 7 q 256 -37 279 -36 q 215 -19 233 -39 q 194 42 197 0 q 171 -10 194 7 q 119 -22 147 -26 q 73 9 90 -18 q 67 88 56 36 m 474 356 q 483 407 474 394 q 503 407 493 419 q 513 356 513 394 q 537 406 511 390 q 588 414 563 421 q 595 468 585 442 q 629 494 606 494 q 602 511 611 494 q 593 549 593 528 q 602 588 593 571 q 629 604 611 604 q 601 622 611 604 q 591 661 592 639 q 599 700 590 683 q 593 699 596 699 q 556 677 578 685 q 518 674 535 669 q 524 629 529 656 q 502 585 519 603 q 461 574 485 567 q 491 542 488 565 q 479 503 494 519 q 438 493 464 486 q 463 464 458 488 q 467 413 468 440 q 465 367 465 385 q 474 356 465 350 m 601 1129 q 593 1159 588 1139 q 615 1199 599 1179 q 649 1228 631 1218 q 682 1226 668 1238 q 683 1260 669 1243 q 718 1283 697 1278 q 750 1271 739 1289 q 774 1294 750 1286 q 831 1303 799 1303 q 887 1294 863 1303 q 911 1271 911 1286 q 931 1302 911 1294 q 969 1302 950 1310 q 989 1271 989 1294 q 1013 1294 999 1293 q 1037 1284 1028 1296 q 1036 1250 1046 1272 q 1047 1217 1053 1233 q 1026 1197 1042 1201 q 993 1207 1010 1192 q 999 1176 1007 1192 q 976 1157 992 1161 q 947 1169 960 1153 q 951 1136 958 1154 q 926 1103 943 1118 q 889 1085 908 1089 q 857 1096 869 1081 q 864 1065 871 1079 q 842 1047 857 1050 q 813 1060 826 1043 q 799 1033 815 1043 q 761 1022 783 1024 q 722 1026 739 1019 q 701 1049 704 1032 q 682 1021 701 1029 q 640 1020 663 1013 q 603 1053 617 1028 q 601 1129 589 1079 z "},"B":{"ha":1019,"x_min":36,"x_max":1010,"o":"m 118 221 q 61 244 81 221 q 42 298 42 267 q 61 352 42 329 q 118 375 81 375 q 65 397 83 375 q 47 448 47 419 q 65 498 47 476 q 118 519 83 519 q 76 540 92 519 q 55 590 60 560 q 55 649 50 619 q 76 698 60 678 q 118 718 92 718 q 53 740 69 718 q 53 785 36 763 q 118 807 69 807 q 73 829 88 810 q 60 873 58 849 q 78 915 61 897 q 125 931 94 932 q 149 992 125 971 q 203 1013 172 1013 q 257 992 233 1013 q 281 931 281 971 q 302 974 281 958 q 355 996 324 990 q 417 996 386 1001 q 470 974 449 990 q 492 931 492 958 q 511 991 492 971 q 556 1011 531 1011 q 601 991 582 1011 q 619 929 619 971 q 640 981 624 965 q 674 995 656 997 q 706 974 693 993 q 714 919 718 954 q 747 975 726 964 q 780 966 768 986 q 779 901 792 946 q 825 925 799 925 q 872 908 851 925 q 899 865 893 890 q 886 815 906 840 q 947 808 924 824 q 976 765 969 792 q 969 714 982 739 q 918 681 956 689 q 961 650 950 669 q 965 613 972 631 q 938 586 958 594 q 885 590 917 578 q 913 523 917 549 q 882 499 908 497 q 824 542 856 500 q 840 501 839 522 q 903 457 876 488 q 913 397 929 426 q 967 397 946 406 q 992 369 988 388 q 985 333 997 351 q 939 306 972 315 q 994 275 978 297 q 1005 228 1010 253 q 977 189 1000 204 q 914 182 954 174 q 942 128 942 156 q 924 81 942 100 q 878 62 906 63 q 822 88 850 61 q 834 24 840 44 q 808 13 828 4 q 771 65 789 22 q 755 14 775 35 q 703 -17 735 -7 q 640 -24 672 -26 q 583 -5 607 -21 q 556 42 560 11 q 533 -15 556 4 q 481 -35 511 -35 q 429 -15 451 -35 q 407 42 407 4 q 390 -6 407 10 q 349 -22 372 -22 q 308 -6 325 -22 q 290 42 290 10 q 273 2 290 15 q 229 -8 256 -11 q 177 18 203 -6 q 134 91 151 42 q 118 221 117 140 m 382 660 q 415 641 404 660 q 428 600 425 622 q 431 568 431 578 q 450 599 433 590 q 485 601 467 607 q 507 575 503 594 q 531 612 504 600 q 578 614 557 624 q 584 645 575 629 q 610 667 593 661 q 588 694 596 675 q 583 728 581 713 q 565 725 572 719 q 560 746 557 731 q 510 727 543 725 q 464 751 478 729 q 451 723 464 735 q 422 711 439 711 q 419 677 429 694 q 382 660 408 660 m 508 197 q 527 230 507 221 q 567 233 547 239 q 570 284 560 257 q 601 325 581 311 q 561 355 579 335 q 540 396 543 375 q 504 374 529 378 q 457 376 479 369 q 445 335 461 354 q 404 318 429 315 q 432 278 425 306 q 435 228 439 250 q 482 230 456 238 q 508 197 508 222 z "},"C":{"ha":1018,"x_min":19,"x_max":992,"o":"m 417 33 q 381 -11 407 0 q 326 -15 354 -22 q 280 16 297 -7 q 272 74 263 39 q 222 28 247 32 q 189 49 197 25 q 206 114 181 74 q 153 108 181 96 q 108 147 126 119 q 89 203 90 174 q 113 250 88 232 q 49 247 68 238 q 42 274 31 257 q 100 303 54 292 q 43 319 63 301 q 22 363 24 338 q 37 410 19 389 q 92 433 54 431 q 44 460 60 433 q 28 522 28 488 q 44 582 28 556 q 93 608 61 608 q 65 642 71 617 q 64 698 58 667 q 85 758 69 729 q 120 802 100 786 q 163 810 140 818 q 151 863 143 836 q 183 907 160 889 q 235 926 207 925 q 282 900 263 926 q 292 951 276 929 q 336 984 308 972 q 394 997 364 996 q 448 985 425 997 q 478 943 471 972 q 503 994 479 978 q 556 1010 526 1011 q 608 990 586 1008 q 629 936 631 971 q 668 977 640 967 q 728 982 696 988 q 788 959 761 976 q 828 915 815 942 q 831 858 842 889 q 875 878 853 879 q 912 861 897 876 q 926 824 926 846 q 901 781 925 801 q 953 772 932 789 q 983 728 975 756 q 983 676 992 701 q 943 642 974 651 q 931 581 943 596 q 906 581 918 565 q 893 642 893 596 q 873 601 893 617 q 823 581 853 586 q 763 581 793 576 q 713 601 733 586 q 693 642 693 617 q 643 616 665 613 q 617 642 621 619 q 642 692 614 664 q 583 658 610 656 q 551 685 556 660 q 528 682 539 671 q 490 635 515 656 q 435 611 464 615 q 441 561 458 589 q 369 536 424 533 q 432 521 417 535 q 432 493 447 507 q 369 479 417 479 q 433 465 414 481 q 446 429 453 449 q 406 400 439 410 q 460 361 439 396 q 479 293 482 326 q 493 286 488 294 q 540 328 508 314 q 602 338 571 343 q 651 299 633 332 q 660 347 644 328 q 702 373 676 367 q 751 369 728 379 q 782 331 775 360 q 803 392 782 371 q 851 413 824 413 q 900 392 879 413 q 921 331 921 371 q 975 315 960 335 q 979 274 990 296 q 928 250 968 253 q 958 206 956 232 q 944 158 960 181 q 905 126 929 135 q 854 135 881 117 q 851 80 868 107 q 803 36 835 53 q 739 21 771 19 q 693 50 707 22 q 690 -8 701 8 q 660 -15 678 -25 q 633 36 642 -4 q 604 -31 636 -12 q 522 -33 572 -49 q 417 33 471 -18 z "},"Ć":{"ha":1018,"x_min":19,"x_max":992,"o":"m 417 33 q 381 -11 407 0 q 326 -15 354 -22 q 280 16 297 -7 q 272 74 263 39 q 222 28 247 32 q 189 49 197 25 q 206 114 181 74 q 153 108 181 96 q 108 147 126 119 q 89 203 90 174 q 113 250 88 232 q 49 247 68 238 q 42 274 31 257 q 100 303 54 292 q 43 319 63 301 q 22 363 24 338 q 37 410 19 389 q 92 433 54 431 q 44 460 60 433 q 28 522 28 488 q 44 582 28 556 q 93 608 61 608 q 65 642 71 617 q 64 698 58 667 q 85 758 69 729 q 120 802 100 786 q 163 810 140 818 q 151 863 143 836 q 183 907 160 889 q 235 926 207 925 q 282 900 263 926 q 292 951 276 929 q 336 984 308 972 q 394 997 364 996 q 448 985 425 997 q 478 943 471 972 q 503 994 479 978 q 556 1010 526 1011 q 608 990 586 1008 q 629 936 631 971 q 668 977 640 967 q 728 982 696 988 q 788 959 761 976 q 828 915 815 942 q 831 858 842 889 q 875 878 853 879 q 912 861 897 876 q 926 824 926 846 q 901 781 925 801 q 953 772 932 789 q 983 728 975 756 q 983 676 992 701 q 943 642 974 651 q 931 581 943 596 q 906 581 918 565 q 893 642 893 596 q 873 601 893 617 q 823 581 853 586 q 763 581 793 576 q 713 601 733 586 q 693 642 693 617 q 643 616 665 613 q 617 642 621 619 q 642 692 614 664 q 583 658 610 656 q 551 685 556 660 q 528 682 539 671 q 490 635 515 656 q 435 611 464 615 q 441 561 458 589 q 369 536 424 533 q 432 521 417 535 q 432 493 447 507 q 369 479 417 479 q 433 465 414 481 q 446 429 453 449 q 406 400 439 410 q 460 361 439 396 q 479 293 482 326 q 493 286 488 294 q 540 328 508 314 q 602 338 571 343 q 651 299 633 332 q 660 347 644 328 q 702 373 676 367 q 751 369 728 379 q 782 331 775 360 q 803 392 782 371 q 851 413 824 413 q 900 392 879 413 q 921 331 921 371 q 975 315 960 335 q 979 274 990 296 q 928 250 968 253 q 958 206 956 232 q 944 158 960 181 q 905 126 929 135 q 854 135 881 117 q 851 80 868 107 q 803 36 835 53 q 739 21 771 19 q 693 50 707 22 q 690 -8 701 8 q 660 -15 678 -25 q 633 36 642 -4 q 604 -31 636 -12 q 522 -33 572 -49 q 417 33 471 -18 m 413 1129 q 404 1159 399 1139 q 426 1199 410 1179 q 460 1228 442 1218 q 493 1226 479 1238 q 494 1260 481 1243 q 529 1283 508 1278 q 561 1271 550 1289 q 585 1294 561 1286 q 642 1303 610 1303 q 698 1294 674 1303 q 722 1271 722 1286 q 742 1302 722 1294 q 781 1302 761 1310 q 800 1271 800 1294 q 824 1294 810 1293 q 848 1284 839 1296 q 847 1250 857 1272 q 858 1217 864 1233 q 837 1197 853 1201 q 804 1207 821 1192 q 810 1176 818 1192 q 787 1157 803 1161 q 758 1169 771 1153 q 762 1136 769 1154 q 737 1103 754 1118 q 700 1085 719 1089 q 668 1096 681 1081 q 675 1065 682 1079 q 653 1047 668 1050 q 624 1060 638 1043 q 610 1033 626 1043 q 572 1022 594 1024 q 533 1026 550 1019 q 513 1049 515 1032 q 493 1021 513 1029 q 451 1020 474 1013 q 414 1053 428 1028 q 413 1129 400 1079 z "},"Č":{"ha":1018,"x_min":19,"x_max":992,"o":"m 417 33 q 381 -11 407 0 q 326 -15 354 -22 q 280 16 297 -7 q 272 74 263 39 q 222 28 247 32 q 189 49 197 25 q 206 114 181 74 q 153 108 181 96 q 108 147 126 119 q 89 203 90 174 q 113 250 88 232 q 49 247 68 238 q 42 274 31 257 q 100 303 54 292 q 43 319 63 301 q 22 363 24 338 q 37 410 19 389 q 92 433 54 431 q 44 460 60 433 q 28 522 28 488 q 44 582 28 556 q 93 608 61 608 q 65 642 71 617 q 64 698 58 667 q 85 758 69 729 q 120 802 100 786 q 163 810 140 818 q 151 863 143 836 q 183 907 160 889 q 235 926 207 925 q 282 900 263 926 q 292 951 276 929 q 336 984 308 972 q 394 997 364 996 q 448 985 425 997 q 478 943 471 972 q 503 994 479 978 q 556 1010 526 1011 q 608 990 586 1008 q 629 936 631 971 q 668 977 640 967 q 728 982 696 988 q 788 959 761 976 q 828 915 815 942 q 831 858 842 889 q 875 878 853 879 q 912 861 897 876 q 926 824 926 846 q 901 781 925 801 q 953 772 932 789 q 983 728 975 756 q 983 676 992 701 q 943 642 974 651 q 931 581 943 596 q 906 581 918 565 q 893 642 893 596 q 873 601 893 617 q 823 581 853 586 q 763 581 793 576 q 713 601 733 586 q 693 642 693 617 q 643 616 665 613 q 617 642 621 619 q 642 692 614 664 q 583 658 610 656 q 551 685 556 660 q 528 682 539 671 q 490 635 515 656 q 435 611 464 615 q 441 561 458 589 q 369 536 424 533 q 432 521 417 535 q 432 493 447 507 q 369 479 417 479 q 433 465 414 481 q 446 429 453 449 q 406 400 439 410 q 460 361 439 396 q 479 293 482 326 q 493 286 488 294 q 540 328 508 314 q 602 338 571 343 q 651 299 633 332 q 660 347 644 328 q 702 373 676 367 q 751 369 728 379 q 782 331 775 360 q 803 392 782 371 q 851 413 824 413 q 900 392 879 413 q 921 331 921 371 q 975 315 960 335 q 979 274 990 296 q 928 250 968 253 q 958 206 956 232 q 944 158 960 181 q 905 126 929 135 q 854 135 881 117 q 851 80 868 107 q 803 36 835 53 q 739 21 771 19 q 693 50 707 22 q 690 -8 701 8 q 660 -15 678 -25 q 633 36 642 -4 q 604 -31 636 -12 q 522 -33 572 -49 q 417 33 471 -18 m 382 1064 q 347 1062 368 1051 q 305 1094 325 1072 q 276 1139 285 1117 q 281 1174 268 1161 q 249 1176 265 1165 q 223 1206 233 1186 q 213 1244 213 1225 q 228 1271 213 1263 q 253 1300 229 1292 q 309 1306 278 1308 q 363 1291 340 1303 q 385 1258 386 1279 q 415 1274 392 1276 q 463 1259 439 1272 q 494 1229 488 1246 q 517 1255 499 1246 q 555 1260 536 1264 q 581 1235 574 1256 q 594 1269 575 1254 q 640 1290 613 1283 q 692 1293 668 1297 q 721 1271 715 1289 q 753 1278 735 1286 q 783 1251 772 1269 q 779 1218 793 1233 q 785 1181 793 1204 q 756 1135 776 1157 q 713 1102 735 1113 q 675 1104 690 1092 q 667 1074 682 1090 q 629 1047 653 1058 q 584 1035 606 1036 q 556 1049 563 1033 q 535 1021 556 1031 q 483 1013 514 1011 q 424 1026 453 1014 q 382 1064 396 1039 z "},"Ç":{"ha":1018,"x_min":17,"x_max":994,"o":"m 444 -253 q 445 -217 438 -233 q 468 -189 453 -200 q 463 -149 460 -171 q 485 -108 465 -128 q 441 -85 454 -108 q 432 -36 428 -61 q 394 -15 410 -35 q 386 40 379 4 q 344 -10 372 1 q 286 -11 315 -21 q 242 26 257 -1 q 239 92 226 53 q 199 87 222 78 q 152 118 175 96 q 113 168 129 140 q 94 221 97 196 q 110 260 92 246 q 57 276 76 256 q 34 324 38 296 q 44 377 31 353 q 92 406 58 401 q 37 418 56 404 q 17 450 18 432 q 35 481 17 468 q 92 496 54 494 q 51 521 65 497 q 35 577 38 544 q 42 642 33 610 q 67 694 50 674 q 111 713 85 714 q 94 758 89 728 q 122 819 100 789 q 170 865 143 850 q 219 864 197 881 q 208 926 201 900 q 236 962 215 951 q 281 963 257 972 q 324 917 306 953 q 327 966 317 947 q 356 989 338 985 q 392 981 375 993 q 417 938 410 968 q 438 988 417 969 q 492 1013 460 1007 q 555 1013 524 1019 q 608 988 586 1007 q 629 936 629 968 q 660 996 639 983 q 696 988 682 1008 q 700 921 710 968 q 738 947 713 943 q 790 942 763 951 q 840 913 818 932 q 872 871 863 894 q 868 824 881 847 q 937 851 911 856 q 958 822 963 847 q 910 765 954 797 q 974 772 954 782 q 986 740 994 761 q 933 703 978 719 q 947 660 950 681 q 927 628 943 640 q 891 618 911 617 q 854 642 871 619 q 835 585 854 604 q 790 567 815 567 q 746 585 765 567 q 726 642 726 604 q 713 585 726 600 q 685 585 699 571 q 671 642 671 600 q 615 616 644 614 q 562 639 585 618 q 533 688 539 660 q 488 688 511 668 q 456 625 482 654 q 399 596 429 596 q 426 558 417 583 q 434 505 435 533 q 423 452 433 476 q 393 418 413 428 q 445 401 422 421 q 481 352 468 382 q 490 294 493 322 q 511 267 507 293 q 534 288 519 286 q 561 269 549 289 q 588 322 564 299 q 641 351 611 346 q 693 331 671 356 q 713 381 693 364 q 760 399 733 399 q 806 381 786 399 q 826 331 826 364 q 840 392 826 376 q 868 392 854 407 q 882 331 882 376 q 919 372 899 367 q 948 359 939 378 q 940 304 957 340 q 977 265 971 292 q 972 210 983 238 q 938 167 961 182 q 883 167 914 153 q 913 112 910 136 q 903 75 917 88 q 865 67 889 63 q 814 103 840 72 q 826 45 831 68 q 804 14 821 22 q 766 16 788 6 q 728 61 744 26 q 714 3 733 26 q 662 -29 694 -19 q 599 -35 629 -39 q 583 -79 601 -60 q 585 -118 590 -94 q 615 -162 613 -132 q 596 -219 617 -192 q 535 -260 575 -247 q 444 -253 496 -272 z "},"Ĉ":{"ha":1018,"x_min":19,"x_max":992,"o":"m 417 33 q 381 -11 407 0 q 326 -15 354 -22 q 280 16 297 -7 q 272 74 263 39 q 222 28 247 32 q 189 49 197 25 q 206 114 181 74 q 153 108 181 96 q 108 147 126 119 q 89 203 90 174 q 113 250 88 232 q 49 247 68 238 q 42 274 31 257 q 100 303 54 292 q 43 319 63 301 q 22 363 24 338 q 37 410 19 389 q 92 433 54 431 q 44 460 60 433 q 28 522 28 488 q 44 582 28 556 q 93 608 61 608 q 65 642 71 617 q 64 698 58 667 q 85 758 69 729 q 120 802 100 786 q 163 810 140 818 q 151 863 143 836 q 183 907 160 889 q 235 926 207 925 q 282 900 263 926 q 292 951 276 929 q 336 984 308 972 q 394 997 364 996 q 448 985 425 997 q 478 943 471 972 q 503 994 479 978 q 556 1010 526 1011 q 608 990 586 1008 q 629 936 631 971 q 668 977 640 967 q 728 982 696 988 q 788 959 761 976 q 828 915 815 942 q 831 858 842 889 q 875 878 853 879 q 912 861 897 876 q 926 824 926 846 q 901 781 925 801 q 953 772 932 789 q 983 728 975 756 q 983 676 992 701 q 943 642 974 651 q 931 581 943 596 q 906 581 918 565 q 893 642 893 596 q 873 601 893 617 q 823 581 853 586 q 763 581 793 576 q 713 601 733 586 q 693 642 693 617 q 643 616 665 613 q 617 642 621 619 q 642 692 614 664 q 583 658 610 656 q 551 685 556 660 q 528 682 539 671 q 490 635 515 656 q 435 611 464 615 q 441 561 458 589 q 369 536 424 533 q 432 521 417 535 q 432 493 447 507 q 369 479 417 479 q 433 465 414 481 q 446 429 453 449 q 406 400 439 410 q 460 361 439 396 q 479 293 482 326 q 493 286 488 294 q 540 328 508 314 q 602 338 571 343 q 651 299 633 332 q 660 347 644 328 q 702 373 676 367 q 751 369 728 379 q 782 331 775 360 q 803 392 782 371 q 851 413 824 413 q 900 392 879 413 q 921 331 921 371 q 975 315 960 335 q 979 274 990 296 q 928 250 968 253 q 958 206 956 232 q 944 158 960 181 q 905 126 929 135 q 854 135 881 117 q 851 80 868 107 q 803 36 835 53 q 739 21 771 19 q 693 50 707 22 q 690 -8 701 8 q 660 -15 678 -25 q 633 36 642 -4 q 604 -31 636 -12 q 522 -33 572 -49 q 417 33 471 -18 m 214 1058 q 201 1089 199 1069 q 217 1126 203 1108 q 248 1151 231 1143 q 281 1146 265 1158 q 272 1175 268 1158 q 288 1206 275 1192 q 318 1226 301 1221 q 347 1219 335 1231 q 351 1247 340 1232 q 380 1272 361 1261 q 417 1283 399 1282 q 442 1271 435 1283 q 464 1298 442 1289 q 515 1307 486 1307 q 567 1298 544 1307 q 589 1271 589 1289 q 614 1283 597 1285 q 647 1272 631 1282 q 672 1247 664 1263 q 672 1219 681 1232 q 701 1225 685 1231 q 730 1205 717 1219 q 747 1174 743 1190 q 739 1146 751 1157 q 765 1135 754 1149 q 779 1103 775 1122 q 778 1068 783 1085 q 758 1049 774 1051 q 744 1019 758 1026 q 714 1019 729 1011 q 699 1049 699 1026 q 674 1031 693 1033 q 631 1034 654 1028 q 589 1053 607 1040 q 569 1082 571 1067 q 542 1060 564 1068 q 493 1050 519 1051 q 446 1056 467 1049 q 425 1078 425 1063 q 408 1049 428 1061 q 360 1032 388 1038 q 309 1030 332 1026 q 282 1049 286 1033 q 268 1016 282 1024 q 238 1018 254 1008 q 214 1058 221 1028 z "},"Ċ":{"ha":1018,"x_min":19,"x_max":992,"o":"m 417 33 q 381 -11 407 0 q 326 -15 354 -22 q 280 16 297 -7 q 272 74 263 39 q 222 28 247 32 q 189 49 197 25 q 206 114 181 74 q 153 108 181 96 q 108 147 126 119 q 89 203 90 174 q 113 250 88 232 q 49 247 68 238 q 42 274 31 257 q 100 303 54 292 q 43 319 63 301 q 22 363 24 338 q 37 410 19 389 q 92 433 54 431 q 44 460 60 433 q 28 522 28 488 q 44 582 28 556 q 93 608 61 608 q 65 642 71 617 q 64 698 58 667 q 85 758 69 729 q 120 802 100 786 q 163 810 140 818 q 151 863 143 836 q 183 907 160 889 q 235 926 207 925 q 282 900 263 926 q 292 951 276 929 q 336 984 308 972 q 394 997 364 996 q 448 985 425 997 q 478 943 471 972 q 503 994 479 978 q 556 1010 526 1011 q 608 990 586 1008 q 629 936 631 971 q 668 977 640 967 q 728 982 696 988 q 788 959 761 976 q 828 915 815 942 q 831 858 842 889 q 875 878 853 879 q 912 861 897 876 q 926 824 926 846 q 901 781 925 801 q 953 772 932 789 q 983 728 975 756 q 983 676 992 701 q 943 642 974 651 q 931 581 943 596 q 906 581 918 565 q 893 642 893 596 q 873 601 893 617 q 823 581 853 586 q 763 581 793 576 q 713 601 733 586 q 693 642 693 617 q 643 616 665 613 q 617 642 621 619 q 642 692 614 664 q 583 658 610 656 q 551 685 556 660 q 528 682 539 671 q 490 635 515 656 q 435 611 464 615 q 441 561 458 589 q 369 536 424 533 q 432 521 417 535 q 432 493 447 507 q 369 479 417 479 q 433 465 414 481 q 446 429 453 449 q 406 400 439 410 q 460 361 439 396 q 479 293 482 326 q 493 286 488 294 q 540 328 508 314 q 602 338 571 343 q 651 299 633 332 q 660 347 644 328 q 702 373 676 367 q 751 369 728 379 q 782 331 775 360 q 803 392 782 371 q 851 413 824 413 q 900 392 879 413 q 921 331 921 371 q 975 315 960 335 q 979 274 990 296 q 928 250 968 253 q 958 206 956 232 q 944 158 960 181 q 905 126 929 135 q 854 135 881 117 q 851 80 868 107 q 803 36 835 53 q 739 21 771 19 q 693 50 707 22 q 690 -8 701 8 q 660 -15 678 -25 q 633 36 642 -4 q 604 -31 636 -12 q 522 -33 572 -49 q 417 33 471 -18 m 390 1085 q 366 1099 374 1085 q 358 1132 358 1114 q 366 1165 358 1150 q 390 1179 374 1179 q 372 1202 375 1183 q 374 1242 368 1221 q 393 1278 381 1264 q 421 1288 406 1292 q 442 1311 421 1303 q 493 1319 464 1319 q 544 1311 522 1319 q 565 1288 565 1303 q 594 1294 575 1301 q 626 1270 614 1286 q 629 1240 639 1254 q 659 1226 649 1240 q 669 1193 669 1211 q 659 1160 669 1175 q 629 1146 649 1146 q 638 1122 640 1140 q 626 1085 636 1104 q 601 1054 615 1065 q 576 1049 588 1043 q 551 1022 576 1031 q 492 1017 526 1014 q 429 1036 458 1019 q 390 1085 400 1053 z "},"D":{"ha":1028,"x_min":36,"x_max":1013,"o":"m 118 65 q 64 83 82 65 q 46 126 46 101 q 64 169 46 150 q 118 188 82 188 q 53 204 69 188 q 53 238 38 221 q 118 254 69 254 q 60 270 75 254 q 60 303 46 286 q 118 319 75 319 q 65 343 83 319 q 47 397 47 367 q 65 451 47 428 q 118 475 83 475 q 56 490 76 475 q 36 525 36 506 q 56 560 36 544 q 118 575 76 575 q 53 597 69 575 q 53 642 36 619 q 118 664 69 664 q 68 690 85 664 q 51 749 51 715 q 68 809 51 783 q 118 835 85 835 q 99 875 97 851 q 117 917 101 899 q 154 942 132 936 q 197 931 176 947 q 215 979 197 963 q 256 996 232 996 q 297 979 279 996 q 314 931 314 963 q 333 977 314 960 q 382 1001 353 994 q 440 1001 411 1007 q 489 977 469 994 q 508 931 508 960 q 534 990 513 971 q 582 1006 556 1008 q 627 981 608 1003 q 642 918 646 958 q 676 972 654 963 q 710 963 697 982 q 711 899 724 943 q 760 938 732 932 q 811 929 788 943 q 842 888 835 915 q 831 828 850 861 q 886 831 858 844 q 932 790 914 818 q 949 731 950 761 q 921 682 949 700 q 988 680 969 692 q 994 650 1007 668 q 933 622 981 632 q 981 603 963 622 q 1006 556 1000 585 q 1007 499 1013 528 q 984 450 1001 469 q 938 429 967 431 q 993 409 979 428 q 992 373 1007 390 q 935 357 976 356 q 969 315 964 347 q 961 248 974 283 q 925 191 949 213 q 871 181 901 169 q 906 125 906 149 q 883 100 906 101 q 825 132 860 99 q 820 91 835 111 q 778 55 806 71 q 721 31 751 39 q 665 26 690 22 q 632 50 640 31 q 621 1 635 18 q 588 -19 607 -17 q 551 -6 568 -21 q 532 42 535 10 q 511 -3 532 14 q 459 -26 490 -21 q 397 -26 428 -32 q 344 -3 365 -21 q 322 42 322 14 q 301 0 322 15 q 250 -19 281 -15 q 188 -15 219 -22 q 137 13 157 -7 q 118 65 117 32 m 382 290 q 417 269 407 290 q 440 278 426 289 q 453 229 453 268 q 464 274 453 261 q 487 278 475 286 q 501 244 499 271 q 526 279 504 269 q 568 281 549 289 q 572 324 563 301 q 600 362 582 346 q 639 376 618 378 q 615 411 622 389 q 613 457 608 433 q 631 497 617 481 q 669 514 644 514 q 624 531 638 513 q 614 573 610 550 q 642 607 618 596 q 601 624 611 604 q 610 663 592 643 q 586 669 594 658 q 583 696 578 679 q 535 691 563 681 q 506 729 508 701 q 478 694 500 700 q 443 706 457 689 q 435 685 443 692 q 414 683 426 678 q 382 676 403 676 q 419 654 407 676 q 432 602 432 632 q 419 550 432 572 q 382 528 407 528 q 419 505 407 528 q 431 453 431 482 q 419 401 431 424 q 382 378 407 378 q 431 356 418 378 q 431 313 443 335 q 382 290 418 290 z "},"Ð":{"ha":1064,"x_min":40,"x_max":1039,"o":"m 151 158 q 103 183 119 158 q 88 238 88 207 q 103 294 88 269 q 151 318 119 318 q 99 338 114 318 q 89 378 83 357 q 56 405 67 382 q 61 461 44 428 q 45 505 40 479 q 69 551 50 531 q 113 576 89 572 q 81 617 90 590 q 77 673 72 644 q 101 722 82 701 q 151 742 119 742 q 101 767 118 742 q 83 824 83 792 q 101 882 83 857 q 151 907 118 907 q 158 968 140 949 q 200 979 175 988 q 236 931 225 971 q 257 973 236 957 q 308 994 278 989 q 369 994 339 999 q 421 973 400 989 q 442 931 442 957 q 456 991 442 976 q 483 991 469 1006 q 497 931 497 976 q 513 992 497 976 q 543 992 528 1007 q 558 931 558 976 q 587 969 564 957 q 641 982 610 982 q 701 971 672 982 q 748 940 731 960 q 760 893 765 921 q 801 934 778 926 q 844 931 825 942 q 869 895 864 919 q 856 839 875 871 q 905 870 885 869 q 925 851 925 871 q 896 800 925 831 q 947 807 924 815 q 981 778 969 799 q 988 733 993 757 q 956 694 983 710 q 1010 678 990 699 q 1033 628 1029 657 q 1021 574 1036 599 q 971 547 1006 550 q 1022 519 1004 547 q 1038 454 1039 490 q 1021 390 1038 418 q 971 361 1004 361 q 1017 331 1004 354 q 1024 281 1029 307 q 997 240 1018 256 q 940 232 975 225 q 990 176 986 203 q 967 141 993 149 q 894 163 940 133 q 906 106 915 133 q 871 60 896 78 q 816 45 846 43 q 767 78 786 47 q 756 15 775 39 q 705 -16 736 -10 q 646 -8 674 -22 q 610 44 618 6 q 586 -14 610 6 q 531 -33 563 -33 q 474 -15 499 -33 q 450 42 450 4 q 433 -18 450 -3 q 400 -18 417 -33 q 383 42 383 -3 q 365 -28 383 -11 q 326 -28 346 -46 q 307 42 307 -11 q 283 -12 307 4 q 227 -19 258 -29 q 173 35 196 -8 q 151 158 150 78 m 415 333 q 450 318 438 333 q 468 282 463 303 q 475 245 474 261 q 476 229 476 229 q 488 258 476 250 q 514 263 500 267 q 533 243 528 260 q 555 277 536 261 q 599 302 574 293 q 643 308 624 311 q 638 336 629 324 q 671 343 647 349 q 649 374 656 353 q 646 419 643 396 q 660 460 649 443 q 693 476 672 476 q 667 493 676 476 q 658 532 658 510 q 664 574 657 554 q 686 597 671 593 q 648 619 658 594 q 653 661 638 643 q 617 672 633 657 q 601 706 600 686 q 573 692 590 692 q 544 703 556 692 q 536 733 532 714 q 508 705 531 714 q 461 699 485 696 q 456 676 463 688 q 436 658 450 664 q 467 642 453 657 q 485 607 481 626 q 482 572 490 588 q 510 572 496 578 q 532 553 525 567 q 531 521 539 539 q 558 494 551 513 q 557 457 564 476 q 534 426 550 438 q 497 422 518 415 q 494 389 503 403 q 469 371 485 375 q 460 346 474 358 q 415 333 447 333 z "},"Ď":{"ha":1028,"x_min":36,"x_max":1013,"o":"m 118 65 q 64 83 82 65 q 46 126 46 101 q 64 169 46 150 q 118 188 82 188 q 53 204 69 188 q 53 238 38 221 q 118 254 69 254 q 60 270 75 254 q 60 303 46 286 q 118 319 75 319 q 65 343 83 319 q 47 397 47 367 q 65 451 47 428 q 118 475 83 475 q 56 490 76 475 q 36 525 36 506 q 56 560 36 544 q 118 575 76 575 q 53 597 69 575 q 53 642 36 619 q 118 664 69 664 q 68 690 85 664 q 51 749 51 715 q 68 809 51 783 q 118 835 85 835 q 99 875 97 851 q 117 917 101 899 q 154 942 132 936 q 197 931 176 947 q 215 979 197 963 q 256 996 232 996 q 297 979 279 996 q 314 931 314 963 q 333 977 314 960 q 382 1001 353 994 q 440 1001 411 1007 q 489 977 469 994 q 508 931 508 960 q 534 990 513 971 q 582 1006 556 1008 q 627 981 608 1003 q 642 918 646 958 q 676 972 654 963 q 710 963 697 982 q 711 899 724 943 q 760 938 732 932 q 811 929 788 943 q 842 888 835 915 q 831 828 850 861 q 886 831 858 844 q 932 790 914 818 q 949 731 950 761 q 921 682 949 700 q 988 680 969 692 q 994 650 1007 668 q 933 622 981 632 q 981 603 963 622 q 1006 556 1000 585 q 1007 499 1013 528 q 984 450 1001 469 q 938 429 967 431 q 993 409 979 428 q 992 373 1007 390 q 935 357 976 356 q 969 315 964 347 q 961 248 974 283 q 925 191 949 213 q 871 181 901 169 q 906 125 906 149 q 883 100 906 101 q 825 132 860 99 q 820 91 835 111 q 778 55 806 71 q 721 31 751 39 q 665 26 690 22 q 632 50 640 31 q 621 1 635 18 q 588 -19 607 -17 q 551 -6 568 -21 q 532 42 535 10 q 511 -3 532 14 q 459 -26 490 -21 q 397 -26 428 -32 q 344 -3 365 -21 q 322 42 322 14 q 301 0 322 15 q 250 -19 281 -15 q 188 -15 219 -22 q 137 13 157 -7 q 118 65 117 32 m 382 290 q 417 269 407 290 q 440 278 426 289 q 453 229 453 268 q 464 274 453 261 q 487 278 475 286 q 501 244 499 271 q 526 279 504 269 q 568 281 549 289 q 572 324 563 301 q 600 362 582 346 q 639 376 618 378 q 615 411 622 389 q 613 457 608 433 q 631 497 617 481 q 669 514 644 514 q 624 531 638 513 q 614 573 610 550 q 642 607 618 596 q 601 624 611 604 q 610 663 592 643 q 586 669 594 658 q 583 696 578 679 q 535 691 563 681 q 506 729 508 701 q 478 694 500 700 q 443 706 457 689 q 435 685 443 692 q 414 683 426 678 q 382 676 403 676 q 419 654 407 676 q 432 602 432 632 q 419 550 432 572 q 382 528 407 528 q 419 505 407 528 q 431 453 431 482 q 419 401 431 424 q 382 378 407 378 q 431 356 418 378 q 431 313 443 335 q 382 290 418 290 m 378 1064 q 342 1062 364 1051 q 301 1094 321 1072 q 272 1139 281 1117 q 276 1174 264 1161 q 245 1176 261 1165 q 219 1206 229 1186 q 208 1244 208 1225 q 224 1271 208 1263 q 249 1300 225 1292 q 305 1306 274 1308 q 359 1291 336 1303 q 381 1258 382 1279 q 411 1274 388 1276 q 459 1259 435 1272 q 490 1229 483 1246 q 513 1255 494 1246 q 551 1260 532 1264 q 576 1235 569 1256 q 590 1269 571 1254 q 636 1290 608 1283 q 688 1293 664 1297 q 717 1271 711 1289 q 749 1278 731 1286 q 778 1251 768 1269 q 775 1218 789 1233 q 781 1181 789 1204 q 751 1135 772 1157 q 708 1102 731 1113 q 671 1104 686 1092 q 663 1074 678 1090 q 625 1047 649 1058 q 580 1035 601 1036 q 551 1049 558 1033 q 531 1021 551 1031 q 479 1013 510 1011 q 420 1026 449 1014 q 378 1064 392 1039 z "},"Đ":{"ha":1061,"x_min":26,"x_max":1043,"o":"m 151 82 q 103 108 119 82 q 88 167 88 133 q 103 227 88 201 q 151 253 119 253 q 85 284 104 253 q 74 349 65 315 q 55 379 60 357 q 61 436 50 401 q 32 467 38 444 q 35 514 26 490 q 64 551 44 538 q 107 556 83 565 q 100 594 101 576 q 81 646 85 615 q 83 706 76 676 q 106 756 89 736 q 151 775 124 775 q 103 795 119 775 q 88 842 88 815 q 103 888 88 868 q 151 907 119 907 q 151 972 138 951 q 188 983 165 992 q 225 931 211 974 q 246 995 225 979 q 288 995 267 1011 q 308 931 308 979 q 329 994 308 978 q 371 994 350 1010 q 392 931 392 978 q 406 984 392 967 q 439 1001 421 1001 q 472 984 457 1001 q 486 931 486 967 q 501 988 486 969 q 537 1007 517 1007 q 572 988 557 1007 q 586 929 588 968 q 619 972 594 960 q 674 983 643 985 q 733 969 706 982 q 777 933 761 956 q 786 881 793 910 q 839 913 810 911 q 891 897 868 915 q 919 850 914 879 q 899 790 924 821 q 952 788 928 804 q 990 740 976 771 q 998 681 1003 710 q 964 639 993 651 q 1021 626 1001 642 q 1042 590 1040 611 q 1026 551 1043 568 q 971 531 1008 533 q 1015 510 999 531 q 1035 460 1031 489 q 1033 401 1039 431 q 1009 353 1026 372 q 965 335 992 335 q 1015 302 1001 324 q 1023 260 1029 281 q 993 228 1017 239 q 933 229 969 218 q 947 175 956 207 q 913 117 939 143 q 856 82 888 90 q 803 96 825 74 q 813 35 821 54 q 784 23 804 15 q 746 71 764 31 q 740 9 754 32 q 703 -19 726 -14 q 657 -8 679 -24 q 626 46 635 7 q 600 -3 628 14 q 536 -20 572 -19 q 472 -6 500 -21 q 444 42 444 10 q 428 -6 444 10 q 392 -22 413 -22 q 356 -6 371 -22 q 340 42 340 10 q 324 -8 340 8 q 288 -25 308 -25 q 251 -8 267 -25 q 235 42 235 8 q 222 -8 235 8 q 192 -22 208 -25 q 163 8 175 -18 q 151 82 150 33 m 514 229 q 528 263 511 250 q 569 275 546 275 q 606 263 592 275 q 624 307 603 285 q 667 328 644 329 q 649 367 650 342 q 663 412 649 392 q 701 428 676 432 q 668 445 679 428 q 657 485 657 463 q 668 525 657 508 q 703 542 679 542 q 656 556 671 539 q 647 592 642 572 q 678 619 653 611 q 643 647 657 622 q 638 690 629 671 q 598 686 621 682 q 556 703 575 690 q 535 733 538 717 q 515 708 531 715 q 483 704 500 701 q 476 665 486 685 q 447 639 467 644 q 470 622 463 633 q 476 597 478 610 q 513 591 496 600 q 531 560 529 582 q 564 547 556 560 q 564 519 572 533 q 531 506 556 506 q 565 492 557 506 q 565 465 574 479 q 531 451 557 451 q 533 402 550 418 q 493 407 515 386 q 485 359 503 383 q 442 335 467 335 q 468 296 458 321 q 488 250 478 271 q 514 229 497 229 z "},"E":{"ha":926,"x_min":32,"x_max":894,"o":"m 118 176 q 67 199 85 176 q 50 253 50 222 q 67 308 50 285 q 118 331 85 331 q 69 349 85 331 q 53 390 53 367 q 69 430 53 413 q 118 447 85 447 q 49 468 67 447 q 49 510 32 489 q 118 531 67 531 q 65 547 83 531 q 47 586 47 564 q 65 625 47 608 q 118 642 83 642 q 60 667 79 642 q 42 724 42 692 q 60 782 42 757 q 118 807 79 807 q 85 838 92 815 q 87 885 79 861 q 113 924 94 910 q 158 931 132 939 q 174 988 158 974 q 204 988 189 1001 q 219 931 219 974 q 240 971 219 956 q 292 991 261 986 q 355 991 324 996 q 408 971 386 986 q 429 931 429 956 q 451 990 429 975 q 494 990 472 1004 q 517 931 517 975 q 535 986 517 968 q 576 1004 553 1004 q 616 986 599 1004 q 633 931 633 968 q 653 971 633 956 q 701 991 672 986 q 758 991 729 996 q 807 971 788 986 q 826 931 826 956 q 881 913 868 926 q 879 888 894 900 q 822 881 864 876 q 875 854 858 876 q 889 805 892 832 q 866 759 886 778 q 810 743 846 740 q 794 684 810 699 q 764 684 779 669 q 749 743 749 699 q 727 687 749 701 q 683 687 706 672 q 661 743 661 701 q 640 710 661 722 q 590 694 619 697 q 531 697 560 692 q 486 717 501 701 q 483 685 489 700 q 465 658 478 669 q 492 631 482 647 q 504 597 503 615 q 538 620 515 614 q 583 624 560 626 q 624 608 607 621 q 640 572 640 594 q 656 618 640 603 q 693 633 672 633 q 730 618 714 633 q 746 572 746 603 q 779 625 763 615 q 802 616 796 635 q 792 554 808 597 q 848 526 831 551 q 863 471 865 501 q 839 419 860 440 q 779 400 818 397 q 759 367 779 379 q 709 350 739 354 q 649 350 679 346 q 599 367 619 354 q 579 400 579 379 q 558 360 579 372 q 513 350 538 347 q 476 372 489 353 q 466 343 475 356 q 444 324 457 331 q 458 290 460 310 q 488 271 475 286 q 500 229 500 256 q 527 267 500 254 q 589 281 554 281 q 651 267 624 281 q 678 229 678 254 q 699 286 678 272 q 740 286 719 300 q 760 229 760 272 q 804 254 779 257 q 841 229 829 251 q 833 179 853 207 q 869 142 863 168 q 867 88 876 115 q 834 46 857 61 q 782 42 811 31 q 766 -15 782 4 q 729 -33 750 -33 q 693 -15 708 -33 q 678 42 678 4 q 655 -16 678 3 q 603 -35 632 -35 q 551 -16 574 -35 q 528 42 528 3 q 510 -10 528 7 q 467 -28 492 -28 q 425 -10 443 -28 q 407 42 407 7 q 384 -19 407 1 q 332 -39 361 -39 q 280 -19 303 -39 q 257 42 257 1 q 235 -8 257 7 q 186 -10 214 -22 q 138 47 158 1 q 118 176 117 92 z "},"É":{"ha":926,"x_min":32,"x_max":894,"o":"m 118 176 q 67 199 85 176 q 50 253 50 222 q 67 308 50 285 q 118 331 85 331 q 69 349 85 331 q 53 390 53 367 q 69 430 53 413 q 118 447 85 447 q 49 468 67 447 q 49 510 32 489 q 118 531 67 531 q 65 547 83 531 q 47 586 47 564 q 65 625 47 608 q 118 642 83 642 q 60 667 79 642 q 42 724 42 692 q 60 782 42 757 q 118 807 79 807 q 85 838 92 815 q 87 885 79 861 q 113 924 94 910 q 158 931 132 939 q 174 988 158 974 q 204 988 189 1001 q 219 931 219 974 q 240 971 219 956 q 292 991 261 986 q 355 991 324 996 q 408 971 386 986 q 429 931 429 956 q 451 990 429 975 q 494 990 472 1004 q 517 931 517 975 q 535 986 517 968 q 576 1004 553 1004 q 616 986 599 1004 q 633 931 633 968 q 653 971 633 956 q 701 991 672 986 q 758 991 729 996 q 807 971 788 986 q 826 931 826 956 q 881 913 868 926 q 879 888 894 900 q 822 881 864 876 q 875 854 858 876 q 889 805 892 832 q 866 759 886 778 q 810 743 846 740 q 794 684 810 699 q 764 684 779 669 q 749 743 749 699 q 727 687 749 701 q 683 687 706 672 q 661 743 661 701 q 640 710 661 722 q 590 694 619 697 q 531 697 560 692 q 486 717 501 701 q 483 685 489 700 q 465 658 478 669 q 492 631 482 647 q 504 597 503 615 q 538 620 515 614 q 583 624 560 626 q 624 608 607 621 q 640 572 640 594 q 656 618 640 603 q 693 633 672 633 q 730 618 714 633 q 746 572 746 603 q 779 625 763 615 q 802 616 796 635 q 792 554 808 597 q 848 526 831 551 q 863 471 865 501 q 839 419 860 440 q 779 400 818 397 q 759 367 779 379 q 709 350 739 354 q 649 350 679 346 q 599 367 619 354 q 579 400 579 379 q 558 360 579 372 q 513 350 538 347 q 476 372 489 353 q 466 343 475 356 q 444 324 457 331 q 458 290 460 310 q 488 271 475 286 q 500 229 500 256 q 527 267 500 254 q 589 281 554 281 q 651 267 624 281 q 678 229 678 254 q 699 286 678 272 q 740 286 719 300 q 760 229 760 272 q 804 254 779 257 q 841 229 829 251 q 833 179 853 207 q 869 142 863 168 q 867 88 876 115 q 834 46 857 61 q 782 42 811 31 q 766 -15 782 4 q 729 -33 750 -33 q 693 -15 708 -33 q 678 42 678 4 q 655 -16 678 3 q 603 -35 632 -35 q 551 -16 574 -35 q 528 42 528 3 q 510 -10 528 7 q 467 -28 492 -28 q 425 -10 443 -28 q 407 42 407 7 q 384 -19 407 1 q 332 -39 361 -39 q 280 -19 303 -39 q 257 42 257 1 q 235 -8 257 7 q 186 -10 214 -22 q 138 47 158 1 q 118 176 117 92 m 367 1129 q 358 1159 353 1139 q 380 1199 364 1179 q 415 1228 396 1218 q 447 1226 433 1238 q 449 1260 435 1243 q 483 1283 463 1278 q 515 1271 504 1289 q 540 1294 515 1286 q 596 1303 564 1303 q 652 1294 628 1303 q 676 1271 676 1286 q 696 1302 676 1294 q 735 1302 715 1310 q 754 1271 754 1294 q 778 1294 764 1293 q 802 1284 793 1296 q 801 1250 811 1272 q 813 1217 818 1233 q 791 1197 807 1201 q 758 1207 775 1192 q 765 1176 772 1192 q 741 1157 757 1161 q 713 1169 725 1153 q 716 1136 724 1154 q 691 1103 708 1118 q 654 1085 674 1089 q 622 1096 635 1081 q 629 1065 636 1079 q 607 1047 622 1050 q 578 1060 592 1043 q 565 1033 581 1043 q 526 1022 549 1024 q 487 1026 504 1019 q 467 1049 469 1032 q 447 1021 467 1029 q 405 1020 428 1013 q 368 1053 382 1028 q 367 1129 354 1079 z "},"Ĕ":{"ha":926,"x_min":32,"x_max":894,"o":"m 118 176 q 67 199 85 176 q 50 253 50 222 q 67 308 50 285 q 118 331 85 331 q 69 349 85 331 q 53 390 53 367 q 69 430 53 413 q 118 447 85 447 q 49 468 67 447 q 49 510 32 489 q 118 531 67 531 q 65 547 83 531 q 47 586 47 564 q 65 625 47 608 q 118 642 83 642 q 60 667 79 642 q 42 724 42 692 q 60 782 42 757 q 118 807 79 807 q 85 838 92 815 q 87 885 79 861 q 113 924 94 910 q 158 931 132 939 q 174 988 158 974 q 204 988 189 1001 q 219 931 219 974 q 240 971 219 956 q 292 991 261 986 q 355 991 324 996 q 408 971 386 986 q 429 931 429 956 q 451 990 429 975 q 494 990 472 1004 q 517 931 517 975 q 535 986 517 968 q 576 1004 553 1004 q 616 986 599 1004 q 633 931 633 968 q 653 971 633 956 q 701 991 672 986 q 758 991 729 996 q 807 971 788 986 q 826 931 826 956 q 881 913 868 926 q 879 888 894 900 q 822 881 864 876 q 875 854 858 876 q 889 805 892 832 q 866 759 886 778 q 810 743 846 740 q 794 684 810 699 q 764 684 779 669 q 749 743 749 699 q 727 687 749 701 q 683 687 706 672 q 661 743 661 701 q 640 710 661 722 q 590 694 619 697 q 531 697 560 692 q 486 717 501 701 q 483 685 489 700 q 465 658 478 669 q 492 631 482 647 q 504 597 503 615 q 538 620 515 614 q 583 624 560 626 q 624 608 607 621 q 640 572 640 594 q 656 618 640 603 q 693 633 672 633 q 730 618 714 633 q 746 572 746 603 q 779 625 763 615 q 802 616 796 635 q 792 554 808 597 q 848 526 831 551 q 863 471 865 501 q 839 419 860 440 q 779 400 818 397 q 759 367 779 379 q 709 350 739 354 q 649 350 679 346 q 599 367 619 354 q 579 400 579 379 q 558 360 579 372 q 513 350 538 347 q 476 372 489 353 q 466 343 475 356 q 444 324 457 331 q 458 290 460 310 q 488 271 475 286 q 500 229 500 256 q 527 267 500 254 q 589 281 554 281 q 651 267 624 281 q 678 229 678 254 q 699 286 678 272 q 740 286 719 300 q 760 229 760 272 q 804 254 779 257 q 841 229 829 251 q 833 179 853 207 q 869 142 863 168 q 867 88 876 115 q 834 46 857 61 q 782 42 811 31 q 766 -15 782 4 q 729 -33 750 -33 q 693 -15 708 -33 q 678 42 678 4 q 655 -16 678 3 q 603 -35 632 -35 q 551 -16 574 -35 q 528 42 528 3 q 510 -10 528 7 q 467 -28 492 -28 q 425 -10 443 -28 q 407 42 407 7 q 384 -19 407 1 q 332 -39 361 -39 q 280 -19 303 -39 q 257 42 257 1 q 235 -8 257 7 q 186 -10 214 -22 q 138 47 158 1 q 118 176 117 92 m 351 1060 q 320 1052 340 1047 q 281 1073 300 1057 q 251 1108 261 1089 q 253 1139 242 1126 q 217 1151 231 1132 q 203 1193 203 1169 q 226 1224 204 1217 q 228 1248 219 1235 q 251 1271 236 1261 q 282 1281 267 1281 q 306 1271 297 1282 q 327 1284 310 1283 q 364 1278 344 1285 q 395 1258 383 1271 q 403 1233 407 1246 q 433 1254 411 1253 q 476 1244 454 1256 q 508 1217 499 1233 q 529 1248 514 1232 q 560 1272 544 1264 q 585 1271 575 1279 q 605 1295 586 1289 q 647 1299 624 1301 q 688 1286 671 1297 q 701 1257 704 1275 q 726 1234 721 1253 q 728 1194 732 1215 q 710 1157 724 1172 q 679 1146 697 1142 q 687 1109 696 1131 q 657 1076 678 1088 q 618 1081 636 1065 q 601 1047 624 1063 q 537 1026 578 1032 q 447 1027 496 1019 q 351 1060 399 1035 z "},"Ě":{"ha":926,"x_min":32,"x_max":894,"o":"m 118 176 q 67 199 85 176 q 50 253 50 222 q 67 308 50 285 q 118 331 85 331 q 69 349 85 331 q 53 390 53 367 q 69 430 53 413 q 118 447 85 447 q 49 468 67 447 q 49 510 32 489 q 118 531 67 531 q 65 547 83 531 q 47 586 47 564 q 65 625 47 608 q 118 642 83 642 q 60 667 79 642 q 42 724 42 692 q 60 782 42 757 q 118 807 79 807 q 85 838 92 815 q 87 885 79 861 q 113 924 94 910 q 158 931 132 939 q 174 988 158 974 q 204 988 189 1001 q 219 931 219 974 q 240 971 219 956 q 292 991 261 986 q 355 991 324 996 q 408 971 386 986 q 429 931 429 956 q 451 990 429 975 q 494 990 472 1004 q 517 931 517 975 q 535 986 517 968 q 576 1004 553 1004 q 616 986 599 1004 q 633 931 633 968 q 653 971 633 956 q 701 991 672 986 q 758 991 729 996 q 807 971 788 986 q 826 931 826 956 q 881 913 868 926 q 879 888 894 900 q 822 881 864 876 q 875 854 858 876 q 889 805 892 832 q 866 759 886 778 q 810 743 846 740 q 794 684 810 699 q 764 684 779 669 q 749 743 749 699 q 727 687 749 701 q 683 687 706 672 q 661 743 661 701 q 640 710 661 722 q 590 694 619 697 q 531 697 560 692 q 486 717 501 701 q 483 685 489 700 q 465 658 478 669 q 492 631 482 647 q 504 597 503 615 q 538 620 515 614 q 583 624 560 626 q 624 608 607 621 q 640 572 640 594 q 656 618 640 603 q 693 633 672 633 q 730 618 714 633 q 746 572 746 603 q 779 625 763 615 q 802 616 796 635 q 792 554 808 597 q 848 526 831 551 q 863 471 865 501 q 839 419 860 440 q 779 400 818 397 q 759 367 779 379 q 709 350 739 354 q 649 350 679 346 q 599 367 619 354 q 579 400 579 379 q 558 360 579 372 q 513 350 538 347 q 476 372 489 353 q 466 343 475 356 q 444 324 457 331 q 458 290 460 310 q 488 271 475 286 q 500 229 500 256 q 527 267 500 254 q 589 281 554 281 q 651 267 624 281 q 678 229 678 254 q 699 286 678 272 q 740 286 719 300 q 760 229 760 272 q 804 254 779 257 q 841 229 829 251 q 833 179 853 207 q 869 142 863 168 q 867 88 876 115 q 834 46 857 61 q 782 42 811 31 q 766 -15 782 4 q 729 -33 750 -33 q 693 -15 708 -33 q 678 42 678 4 q 655 -16 678 3 q 603 -35 632 -35 q 551 -16 574 -35 q 528 42 528 3 q 510 -10 528 7 q 467 -28 492 -28 q 425 -10 443 -28 q 407 42 407 7 q 384 -19 407 1 q 332 -39 361 -39 q 280 -19 303 -39 q 257 42 257 1 q 235 -8 257 7 q 186 -10 214 -22 q 138 47 158 1 q 118 176 117 92 m 336 1064 q 301 1062 322 1051 q 259 1094 279 1072 q 231 1139 239 1117 q 235 1174 222 1161 q 203 1176 219 1165 q 177 1206 188 1186 q 167 1244 167 1225 q 182 1271 167 1263 q 208 1300 183 1292 q 263 1306 232 1308 q 317 1291 294 1303 q 339 1258 340 1279 q 369 1274 346 1276 q 417 1259 393 1272 q 449 1229 442 1246 q 472 1255 453 1246 q 509 1260 490 1264 q 535 1235 528 1256 q 548 1269 529 1254 q 594 1290 567 1283 q 646 1293 622 1297 q 675 1271 669 1289 q 708 1278 689 1286 q 737 1251 726 1269 q 733 1218 747 1233 q 739 1181 747 1204 q 710 1135 731 1157 q 667 1102 689 1113 q 629 1104 644 1092 q 622 1074 636 1090 q 583 1047 607 1058 q 538 1035 560 1036 q 510 1049 517 1033 q 489 1021 510 1031 q 438 1013 468 1011 q 378 1026 407 1014 q 336 1064 350 1039 z "},"Ê":{"ha":926,"x_min":32,"x_max":894,"o":"m 118 176 q 67 199 85 176 q 50 253 50 222 q 67 308 50 285 q 118 331 85 331 q 69 349 85 331 q 53 390 53 367 q 69 430 53 413 q 118 447 85 447 q 49 468 67 447 q 49 510 32 489 q 118 531 67 531 q 65 547 83 531 q 47 586 47 564 q 65 625 47 608 q 118 642 83 642 q 60 667 79 642 q 42 724 42 692 q 60 782 42 757 q 118 807 79 807 q 85 838 92 815 q 87 885 79 861 q 113 924 94 910 q 158 931 132 939 q 174 988 158 974 q 204 988 189 1001 q 219 931 219 974 q 240 971 219 956 q 292 991 261 986 q 355 991 324 996 q 408 971 386 986 q 429 931 429 956 q 451 990 429 975 q 494 990 472 1004 q 517 931 517 975 q 535 986 517 968 q 576 1004 553 1004 q 616 986 599 1004 q 633 931 633 968 q 653 971 633 956 q 701 991 672 986 q 758 991 729 996 q 807 971 788 986 q 826 931 826 956 q 881 913 868 926 q 879 888 894 900 q 822 881 864 876 q 875 854 858 876 q 889 805 892 832 q 866 759 886 778 q 810 743 846 740 q 794 684 810 699 q 764 684 779 669 q 749 743 749 699 q 727 687 749 701 q 683 687 706 672 q 661 743 661 701 q 640 710 661 722 q 590 694 619 697 q 531 697 560 692 q 486 717 501 701 q 483 685 489 700 q 465 658 478 669 q 492 631 482 647 q 504 597 503 615 q 538 620 515 614 q 583 624 560 626 q 624 608 607 621 q 640 572 640 594 q 656 618 640 603 q 693 633 672 633 q 730 618 714 633 q 746 572 746 603 q 779 625 763 615 q 802 616 796 635 q 792 554 808 597 q 848 526 831 551 q 863 471 865 501 q 839 419 860 440 q 779 400 818 397 q 759 367 779 379 q 709 350 739 354 q 649 350 679 346 q 599 367 619 354 q 579 400 579 379 q 558 360 579 372 q 513 350 538 347 q 476 372 489 353 q 466 343 475 356 q 444 324 457 331 q 458 290 460 310 q 488 271 475 286 q 500 229 500 256 q 527 267 500 254 q 589 281 554 281 q 651 267 624 281 q 678 229 678 254 q 699 286 678 272 q 740 286 719 300 q 760 229 760 272 q 804 254 779 257 q 841 229 829 251 q 833 179 853 207 q 869 142 863 168 q 867 88 876 115 q 834 46 857 61 q 782 42 811 31 q 766 -15 782 4 q 729 -33 750 -33 q 693 -15 708 -33 q 678 42 678 4 q 655 -16 678 3 q 603 -35 632 -35 q 551 -16 574 -35 q 528 42 528 3 q 510 -10 528 7 q 467 -28 492 -28 q 425 -10 443 -28 q 407 42 407 7 q 384 -19 407 1 q 332 -39 361 -39 q 280 -19 303 -39 q 257 42 257 1 q 235 -8 257 7 q 186 -10 214 -22 q 138 47 158 1 q 118 176 117 92 m 168 1058 q 155 1089 153 1069 q 171 1126 157 1108 q 202 1151 185 1143 q 235 1146 219 1158 q 226 1175 222 1158 q 242 1206 229 1192 q 272 1226 256 1221 q 301 1219 289 1231 q 305 1247 294 1232 q 334 1272 315 1261 q 371 1283 353 1282 q 396 1271 389 1283 q 418 1298 396 1289 q 469 1307 440 1307 q 521 1298 499 1307 q 543 1271 543 1289 q 568 1283 551 1285 q 601 1272 585 1282 q 626 1247 618 1263 q 626 1219 635 1232 q 655 1225 639 1231 q 684 1205 671 1219 q 701 1174 697 1190 q 693 1146 706 1157 q 719 1135 708 1149 q 733 1103 729 1122 q 733 1068 738 1085 q 713 1049 728 1051 q 698 1019 713 1026 q 668 1019 683 1011 q 653 1049 653 1026 q 628 1031 647 1033 q 585 1034 608 1028 q 543 1053 561 1040 q 524 1082 525 1067 q 496 1060 518 1068 q 447 1050 474 1051 q 400 1056 421 1049 q 379 1078 379 1063 q 362 1049 382 1061 q 314 1032 342 1038 q 263 1030 286 1026 q 236 1049 240 1033 q 222 1016 236 1024 q 192 1018 208 1008 q 168 1058 175 1028 z "},"Ë":{"ha":926,"x_min":32,"x_max":894,"o":"m 118 176 q 67 199 85 176 q 50 253 50 222 q 67 308 50 285 q 118 331 85 331 q 69 349 85 331 q 53 390 53 367 q 69 430 53 413 q 118 447 85 447 q 49 468 67 447 q 49 510 32 489 q 118 531 67 531 q 65 547 83 531 q 47 586 47 564 q 65 625 47 608 q 118 642 83 642 q 60 667 79 642 q 42 724 42 692 q 60 782 42 757 q 118 807 79 807 q 85 838 92 815 q 87 885 79 861 q 113 924 94 910 q 158 931 132 939 q 174 988 158 974 q 204 988 189 1001 q 219 931 219 974 q 240 971 219 956 q 292 991 261 986 q 355 991 324 996 q 408 971 386 986 q 429 931 429 956 q 451 990 429 975 q 494 990 472 1004 q 517 931 517 975 q 535 986 517 968 q 576 1004 553 1004 q 616 986 599 1004 q 633 931 633 968 q 653 971 633 956 q 701 991 672 986 q 758 991 729 996 q 807 971 788 986 q 826 931 826 956 q 881 913 868 926 q 879 888 894 900 q 822 881 864 876 q 875 854 858 876 q 889 805 892 832 q 866 759 886 778 q 810 743 846 740 q 794 684 810 699 q 764 684 779 669 q 749 743 749 699 q 727 687 749 701 q 683 687 706 672 q 661 743 661 701 q 640 710 661 722 q 590 694 619 697 q 531 697 560 692 q 486 717 501 701 q 483 685 489 700 q 465 658 478 669 q 492 631 482 647 q 504 597 503 615 q 538 620 515 614 q 583 624 560 626 q 624 608 607 621 q 640 572 640 594 q 656 618 640 603 q 693 633 672 633 q 730 618 714 633 q 746 572 746 603 q 779 625 763 615 q 802 616 796 635 q 792 554 808 597 q 848 526 831 551 q 863 471 865 501 q 839 419 860 440 q 779 400 818 397 q 759 367 779 379 q 709 350 739 354 q 649 350 679 346 q 599 367 619 354 q 579 400 579 379 q 558 360 579 372 q 513 350 538 347 q 476 372 489 353 q 466 343 475 356 q 444 324 457 331 q 458 290 460 310 q 488 271 475 286 q 500 229 500 256 q 527 267 500 254 q 589 281 554 281 q 651 267 624 281 q 678 229 678 254 q 699 286 678 272 q 740 286 719 300 q 760 229 760 272 q 804 254 779 257 q 841 229 829 251 q 833 179 853 207 q 869 142 863 168 q 867 88 876 115 q 834 46 857 61 q 782 42 811 31 q 766 -15 782 4 q 729 -33 750 -33 q 693 -15 708 -33 q 678 42 678 4 q 655 -16 678 3 q 603 -35 632 -35 q 551 -16 574 -35 q 528 42 528 3 q 510 -10 528 7 q 467 -28 492 -28 q 425 -10 443 -28 q 407 42 407 7 q 384 -19 407 1 q 332 -39 361 -39 q 280 -19 303 -39 q 257 42 257 1 q 235 -8 257 7 q 186 -10 214 -22 q 138 47 158 1 q 118 176 117 92 m 165 1163 q 148 1187 150 1168 q 153 1227 146 1206 q 174 1263 161 1249 q 201 1271 186 1276 q 217 1301 201 1290 q 254 1311 233 1311 q 291 1301 275 1311 q 307 1271 307 1290 q 329 1280 314 1282 q 360 1269 344 1278 q 385 1247 376 1260 q 388 1224 394 1235 q 417 1206 410 1224 q 417 1169 424 1188 q 388 1151 410 1151 q 413 1135 407 1151 q 413 1101 419 1118 q 388 1085 407 1085 q 385 1056 397 1069 q 356 1038 374 1042 q 329 1049 339 1033 q 308 1020 329 1028 q 256 1022 286 1013 q 201 1066 226 1032 q 165 1163 175 1100 m 539 1146 q 523 1167 526 1147 q 523 1212 519 1188 q 536 1254 526 1236 q 558 1271 546 1272 q 578 1300 558 1290 q 622 1310 597 1310 q 667 1300 647 1310 q 686 1271 686 1290 q 714 1274 697 1281 q 745 1251 731 1267 q 766 1217 760 1235 q 761 1190 772 1200 q 785 1175 776 1190 q 793 1140 793 1160 q 785 1106 793 1121 q 761 1090 776 1090 q 753 1062 767 1075 q 719 1040 740 1049 q 678 1033 697 1032 q 653 1049 658 1033 q 639 1027 653 1033 q 605 1029 625 1021 q 567 1066 585 1038 q 539 1146 549 1094 z "},"Ė":{"ha":926,"x_min":32,"x_max":894,"o":"m 118 176 q 67 199 85 176 q 50 253 50 222 q 67 308 50 285 q 118 331 85 331 q 69 349 85 331 q 53 390 53 367 q 69 430 53 413 q 118 447 85 447 q 49 468 67 447 q 49 510 32 489 q 118 531 67 531 q 65 547 83 531 q 47 586 47 564 q 65 625 47 608 q 118 642 83 642 q 60 667 79 642 q 42 724 42 692 q 60 782 42 757 q 118 807 79 807 q 85 838 92 815 q 87 885 79 861 q 113 924 94 910 q 158 931 132 939 q 174 988 158 974 q 204 988 189 1001 q 219 931 219 974 q 240 971 219 956 q 292 991 261 986 q 355 991 324 996 q 408 971 386 986 q 429 931 429 956 q 451 990 429 975 q 494 990 472 1004 q 517 931 517 975 q 535 986 517 968 q 576 1004 553 1004 q 616 986 599 1004 q 633 931 633 968 q 653 971 633 956 q 701 991 672 986 q 758 991 729 996 q 807 971 788 986 q 826 931 826 956 q 881 913 868 926 q 879 888 894 900 q 822 881 864 876 q 875 854 858 876 q 889 805 892 832 q 866 759 886 778 q 810 743 846 740 q 794 684 810 699 q 764 684 779 669 q 749 743 749 699 q 727 687 749 701 q 683 687 706 672 q 661 743 661 701 q 640 710 661 722 q 590 694 619 697 q 531 697 560 692 q 486 717 501 701 q 483 685 489 700 q 465 658 478 669 q 492 631 482 647 q 504 597 503 615 q 538 620 515 614 q 583 624 560 626 q 624 608 607 621 q 640 572 640 594 q 656 618 640 603 q 693 633 672 633 q 730 618 714 633 q 746 572 746 603 q 779 625 763 615 q 802 616 796 635 q 792 554 808 597 q 848 526 831 551 q 863 471 865 501 q 839 419 860 440 q 779 400 818 397 q 759 367 779 379 q 709 350 739 354 q 649 350 679 346 q 599 367 619 354 q 579 400 579 379 q 558 360 579 372 q 513 350 538 347 q 476 372 489 353 q 466 343 475 356 q 444 324 457 331 q 458 290 460 310 q 488 271 475 286 q 500 229 500 256 q 527 267 500 254 q 589 281 554 281 q 651 267 624 281 q 678 229 678 254 q 699 286 678 272 q 740 286 719 300 q 760 229 760 272 q 804 254 779 257 q 841 229 829 251 q 833 179 853 207 q 869 142 863 168 q 867 88 876 115 q 834 46 857 61 q 782 42 811 31 q 766 -15 782 4 q 729 -33 750 -33 q 693 -15 708 -33 q 678 42 678 4 q 655 -16 678 3 q 603 -35 632 -35 q 551 -16 574 -35 q 528 42 528 3 q 510 -10 528 7 q 467 -28 492 -28 q 425 -10 443 -28 q 407 42 407 7 q 384 -19 407 1 q 332 -39 361 -39 q 280 -19 303 -39 q 257 42 257 1 q 235 -8 257 7 q 186 -10 214 -22 q 138 47 158 1 q 118 176 117 92 m 344 1085 q 320 1099 328 1085 q 313 1132 313 1114 q 320 1165 313 1150 q 344 1179 328 1179 q 326 1202 329 1183 q 328 1242 322 1221 q 347 1278 335 1264 q 375 1288 360 1292 q 397 1311 375 1303 q 447 1319 418 1319 q 498 1311 476 1319 q 519 1288 519 1303 q 549 1294 529 1301 q 581 1270 568 1286 q 583 1240 593 1254 q 613 1226 603 1240 q 624 1193 624 1211 q 613 1160 624 1175 q 583 1146 603 1146 q 592 1122 594 1140 q 580 1085 590 1104 q 556 1054 569 1065 q 531 1049 542 1043 q 506 1022 531 1031 q 447 1017 481 1014 q 383 1036 413 1019 q 344 1085 354 1053 z "},"È":{"ha":926,"x_min":32,"x_max":894,"o":"m 118 176 q 67 199 85 176 q 50 253 50 222 q 67 308 50 285 q 118 331 85 331 q 69 349 85 331 q 53 390 53 367 q 69 430 53 413 q 118 447 85 447 q 49 468 67 447 q 49 510 32 489 q 118 531 67 531 q 65 547 83 531 q 47 586 47 564 q 65 625 47 608 q 118 642 83 642 q 60 667 79 642 q 42 724 42 692 q 60 782 42 757 q 118 807 79 807 q 85 838 92 815 q 87 885 79 861 q 113 924 94 910 q 158 931 132 939 q 174 988 158 974 q 204 988 189 1001 q 219 931 219 974 q 240 971 219 956 q 292 991 261 986 q 355 991 324 996 q 408 971 386 986 q 429 931 429 956 q 451 990 429 975 q 494 990 472 1004 q 517 931 517 975 q 535 986 517 968 q 576 1004 553 1004 q 616 986 599 1004 q 633 931 633 968 q 653 971 633 956 q 701 991 672 986 q 758 991 729 996 q 807 971 788 986 q 826 931 826 956 q 881 913 868 926 q 879 888 894 900 q 822 881 864 876 q 875 854 858 876 q 889 805 892 832 q 866 759 886 778 q 810 743 846 740 q 794 684 810 699 q 764 684 779 669 q 749 743 749 699 q 727 687 749 701 q 683 687 706 672 q 661 743 661 701 q 640 710 661 722 q 590 694 619 697 q 531 697 560 692 q 486 717 501 701 q 483 685 489 700 q 465 658 478 669 q 492 631 482 647 q 504 597 503 615 q 538 620 515 614 q 583 624 560 626 q 624 608 607 621 q 640 572 640 594 q 656 618 640 603 q 693 633 672 633 q 730 618 714 633 q 746 572 746 603 q 779 625 763 615 q 802 616 796 635 q 792 554 808 597 q 848 526 831 551 q 863 471 865 501 q 839 419 860 440 q 779 400 818 397 q 759 367 779 379 q 709 350 739 354 q 649 350 679 346 q 599 367 619 354 q 579 400 579 379 q 558 360 579 372 q 513 350 538 347 q 476 372 489 353 q 466 343 475 356 q 444 324 457 331 q 458 290 460 310 q 488 271 475 286 q 500 229 500 256 q 527 267 500 254 q 589 281 554 281 q 651 267 624 281 q 678 229 678 254 q 699 286 678 272 q 740 286 719 300 q 760 229 760 272 q 804 254 779 257 q 841 229 829 251 q 833 179 853 207 q 869 142 863 168 q 867 88 876 115 q 834 46 857 61 q 782 42 811 31 q 766 -15 782 4 q 729 -33 750 -33 q 693 -15 708 -33 q 678 42 678 4 q 655 -16 678 3 q 603 -35 632 -35 q 551 -16 574 -35 q 528 42 528 3 q 510 -10 528 7 q 467 -28 492 -28 q 425 -10 443 -28 q 407 42 407 7 q 384 -19 407 1 q 332 -39 361 -39 q 280 -19 303 -39 q 257 42 257 1 q 235 -8 257 7 q 186 -10 214 -22 q 138 47 158 1 q 118 176 117 92 m 358 1054 q 328 1043 347 1040 q 293 1058 310 1046 q 269 1088 276 1071 q 274 1119 263 1106 q 246 1106 261 1103 q 224 1124 231 1110 q 232 1156 218 1139 q 202 1149 222 1143 q 162 1172 182 1156 q 131 1208 142 1189 q 131 1239 121 1226 q 122 1263 118 1251 q 137 1279 125 1275 q 161 1271 149 1283 q 176 1294 161 1286 q 211 1303 192 1303 q 246 1294 231 1303 q 261 1271 261 1286 q 276 1299 261 1290 q 311 1308 292 1308 q 346 1299 331 1308 q 361 1271 361 1290 q 379 1296 364 1289 q 413 1299 394 1303 q 444 1285 432 1296 q 454 1256 457 1274 q 492 1264 474 1272 q 516 1236 511 1256 q 501 1200 521 1217 q 540 1204 519 1217 q 568 1169 561 1192 q 557 1132 575 1147 q 584 1110 578 1131 q 582 1068 590 1089 q 553 1049 574 1047 q 539 1013 553 1022 q 511 1013 525 1004 q 497 1049 497 1022 q 481 1026 497 1033 q 439 1018 464 1018 q 392 1027 414 1018 q 358 1054 369 1036 z "},"Ē":{"ha":926,"x_min":32,"x_max":894,"o":"m 118 176 q 67 199 85 176 q 50 253 50 222 q 67 308 50 285 q 118 331 85 331 q 69 349 85 331 q 53 390 53 367 q 69 430 53 413 q 118 447 85 447 q 49 468 67 447 q 49 510 32 489 q 118 531 67 531 q 65 547 83 531 q 47 586 47 564 q 65 625 47 608 q 118 642 83 642 q 60 667 79 642 q 42 724 42 692 q 60 782 42 757 q 118 807 79 807 q 85 838 92 815 q 87 885 79 861 q 113 924 94 910 q 158 931 132 939 q 174 988 158 974 q 204 988 189 1001 q 219 931 219 974 q 240 971 219 956 q 292 991 261 986 q 355 991 324 996 q 408 971 386 986 q 429 931 429 956 q 451 990 429 975 q 494 990 472 1004 q 517 931 517 975 q 535 986 517 968 q 576 1004 553 1004 q 616 986 599 1004 q 633 931 633 968 q 653 971 633 956 q 701 991 672 986 q 758 991 729 996 q 807 971 788 986 q 826 931 826 956 q 881 913 868 926 q 879 888 894 900 q 822 881 864 876 q 875 854 858 876 q 889 805 892 832 q 866 759 886 778 q 810 743 846 740 q 794 684 810 699 q 764 684 779 669 q 749 743 749 699 q 727 687 749 701 q 683 687 706 672 q 661 743 661 701 q 640 710 661 722 q 590 694 619 697 q 531 697 560 692 q 486 717 501 701 q 483 685 489 700 q 465 658 478 669 q 492 631 482 647 q 504 597 503 615 q 538 620 515 614 q 583 624 560 626 q 624 608 607 621 q 640 572 640 594 q 656 618 640 603 q 693 633 672 633 q 730 618 714 633 q 746 572 746 603 q 779 625 763 615 q 802 616 796 635 q 792 554 808 597 q 848 526 831 551 q 863 471 865 501 q 839 419 860 440 q 779 400 818 397 q 759 367 779 379 q 709 350 739 354 q 649 350 679 346 q 599 367 619 354 q 579 400 579 379 q 558 360 579 372 q 513 350 538 347 q 476 372 489 353 q 466 343 475 356 q 444 324 457 331 q 458 290 460 310 q 488 271 475 286 q 500 229 500 256 q 527 267 500 254 q 589 281 554 281 q 651 267 624 281 q 678 229 678 254 q 699 286 678 272 q 740 286 719 300 q 760 229 760 272 q 804 254 779 257 q 841 229 829 251 q 833 179 853 207 q 869 142 863 168 q 867 88 876 115 q 834 46 857 61 q 782 42 811 31 q 766 -15 782 4 q 729 -33 750 -33 q 693 -15 708 -33 q 678 42 678 4 q 655 -16 678 3 q 603 -35 632 -35 q 551 -16 574 -35 q 528 42 528 3 q 510 -10 528 7 q 467 -28 492 -28 q 425 -10 443 -28 q 407 42 407 7 q 384 -19 407 1 q 332 -39 361 -39 q 280 -19 303 -39 q 257 42 257 1 q 235 -8 257 7 q 186 -10 214 -22 q 138 47 158 1 q 118 176 117 92 m 176 1079 q 144 1099 153 1079 q 144 1138 136 1118 q 176 1157 153 1157 q 157 1176 161 1161 q 158 1209 153 1192 q 174 1237 163 1226 q 201 1243 186 1247 q 223 1267 201 1260 q 273 1275 244 1275 q 323 1267 301 1275 q 344 1243 344 1260 q 363 1274 344 1264 q 406 1283 382 1283 q 447 1274 429 1283 q 465 1243 465 1264 q 480 1270 465 1261 q 513 1279 494 1279 q 546 1270 532 1279 q 560 1243 560 1261 q 580 1272 560 1263 q 626 1281 600 1281 q 672 1272 651 1281 q 692 1243 692 1263 q 717 1242 703 1251 q 744 1215 732 1232 q 758 1182 756 1199 q 750 1157 761 1165 q 781 1136 774 1157 q 781 1094 789 1115 q 750 1074 774 1074 q 751 1043 760 1056 q 728 1031 743 1031 q 703 1049 713 1031 q 680 1022 703 1031 q 626 1014 657 1014 q 572 1022 596 1014 q 549 1049 549 1031 q 525 1023 549 1032 q 471 1014 501 1014 q 417 1023 440 1014 q 394 1049 394 1032 q 376 1021 394 1028 q 340 1021 358 1014 q 322 1049 322 1028 q 306 1020 322 1028 q 273 1020 289 1013 q 257 1049 257 1028 q 242 1022 257 1028 q 208 1030 226 1017 q 176 1079 189 1043 z "},"Ę":{"ha":926,"x_min":33,"x_max":911,"o":"m 749 -256 q 703 -302 728 -297 q 669 -285 679 -307 q 679 -221 658 -262 q 622 -237 646 -240 q 588 -217 597 -233 q 587 -177 578 -200 q 629 -135 596 -154 q 569 -124 589 -137 q 553 -90 550 -110 q 583 -60 557 -71 q 546 -48 560 -60 q 531 -19 532 -36 q 469 -26 503 -29 q 413 -6 436 -22 q 389 42 389 11 q 369 -11 389 7 q 324 -29 350 -29 q 277 -11 297 -29 q 257 42 257 7 q 238 -12 258 7 q 190 -31 217 -31 q 141 -15 163 -32 q 118 38 119 3 q 67 58 86 38 q 42 108 49 78 q 42 167 36 138 q 67 217 49 197 q 118 238 86 238 q 59 258 74 238 q 59 299 44 278 q 118 319 74 319 q 74 341 90 319 q 52 394 57 363 q 52 456 47 425 q 74 509 57 488 q 118 531 90 531 q 51 550 68 531 q 51 589 33 569 q 118 608 68 608 q 69 629 88 608 q 45 680 51 650 q 45 740 39 710 q 69 792 51 771 q 118 813 88 813 q 62 826 76 813 q 62 854 47 840 q 118 868 76 868 q 97 913 97 892 q 109 946 96 933 q 143 956 122 958 q 186 931 164 954 q 204 995 186 979 q 240 995 222 1011 q 257 931 257 979 q 274 979 257 963 q 313 996 290 996 q 351 979 335 996 q 368 931 368 963 q 389 973 368 957 q 441 994 410 989 q 504 994 472 1000 q 557 973 536 989 q 578 931 578 957 q 598 977 578 960 q 648 1001 618 994 q 707 1001 678 1007 q 756 977 736 994 q 776 931 776 960 q 826 965 806 964 q 849 944 847 965 q 822 892 850 924 q 866 859 854 885 q 872 804 878 833 q 845 756 865 775 q 793 743 825 738 q 767 695 793 711 q 708 679 742 679 q 648 695 674 679 q 622 743 622 711 q 606 692 622 704 q 572 692 589 679 q 556 743 556 704 q 540 697 556 708 q 510 697 525 685 q 494 743 494 708 q 469 692 494 703 q 428 699 444 681 q 425 690 426 693 q 424 633 447 661 q 436 601 440 624 q 483 626 453 619 q 547 628 514 632 q 601 611 579 625 q 624 572 624 597 q 643 612 624 599 q 688 625 663 625 q 732 612 713 625 q 751 572 751 599 q 803 569 782 582 q 833 531 825 556 q 831 484 840 507 q 792 450 822 461 q 792 406 803 426 q 761 376 782 386 q 718 371 740 367 q 685 400 696 375 q 660 362 685 375 q 601 347 635 349 q 536 353 567 344 q 494 382 506 363 q 473 339 496 358 q 424 315 450 319 q 433 290 432 304 q 492 293 461 297 q 545 273 524 289 q 567 229 567 257 q 588 276 567 261 q 638 292 610 292 q 689 276 667 292 q 711 229 711 261 q 742 263 719 256 q 790 263 765 271 q 828 236 814 256 q 833 190 842 217 q 892 175 872 190 q 911 140 911 160 q 892 106 911 121 q 833 92 872 92 q 851 40 857 65 q 824 2 846 14 q 776 3 801 -10 q 799 -38 800 -21 q 776 -57 797 -56 q 779 -75 783 -65 q 826 -97 806 -78 q 850 -142 846 -115 q 833 -196 854 -169 q 897 -228 886 -207 q 872 -260 907 -249 q 749 -256 836 -271 z "},"F":{"ha":897,"x_min":29,"x_max":901,"o":"m 118 93 q 72 111 88 93 q 56 153 56 129 q 72 197 56 178 q 118 215 88 215 q 51 233 68 215 q 51 269 33 251 q 118 286 68 286 q 59 314 79 286 q 39 378 39 342 q 59 442 39 414 q 118 469 79 469 q 63 485 76 469 q 63 515 49 500 q 118 531 76 531 q 66 554 83 531 q 49 608 49 578 q 66 663 49 639 q 118 686 83 686 q 47 699 65 686 q 47 726 29 713 q 118 740 65 740 q 70 764 86 740 q 54 818 54 788 q 70 872 54 849 q 118 896 86 896 q 114 958 100 936 q 153 976 128 981 q 197 931 179 971 q 220 979 197 963 q 272 996 243 996 q 324 979 301 996 q 347 931 347 963 q 366 978 347 963 q 408 993 385 993 q 451 978 432 993 q 469 931 469 963 q 491 985 469 967 q 542 1004 513 1004 q 592 985 571 1004 q 614 931 614 967 q 634 972 614 957 q 683 993 654 988 q 742 993 713 999 q 790 972 771 988 q 810 929 810 956 q 883 913 865 929 q 883 879 901 896 q 810 863 865 863 q 864 844 846 863 q 882 801 882 825 q 864 759 882 778 q 810 740 846 740 q 799 682 817 699 q 759 676 781 665 q 731 728 738 686 q 711 678 731 690 q 672 678 692 665 q 653 728 653 690 q 631 690 653 703 q 581 678 610 678 q 530 690 551 678 q 508 728 508 703 q 496 674 508 689 q 471 668 483 658 q 454 642 467 651 q 467 594 472 622 q 488 577 479 590 q 497 542 497 564 q 514 588 497 576 q 547 588 531 600 q 564 542 564 576 q 588 585 564 571 q 644 600 613 600 q 701 585 676 600 q 725 542 725 571 q 775 544 753 556 q 809 510 797 533 q 815 462 821 486 q 782 425 810 438 q 799 381 801 404 q 779 342 796 358 q 740 323 763 325 q 697 340 717 321 q 674 281 697 301 q 619 261 650 261 q 565 281 589 261 q 542 340 542 301 q 515 278 542 299 q 460 261 489 258 q 435 233 453 244 q 389 224 417 222 q 436 192 421 218 q 450 133 451 165 q 430 78 449 101 q 375 54 411 54 q 354 4 378 22 q 299 -17 331 -14 q 241 -5 267 -19 q 214 42 215 10 q 199 -11 214 6 q 164 -24 183 -28 q 131 9 144 -19 q 118 93 117 38 z "},"G":{"ha":1046,"x_min":17,"x_max":1038,"o":"m 338 50 q 294 2 319 8 q 253 19 268 -4 q 256 83 238 42 q 211 56 235 58 q 170 67 188 53 q 151 104 153 81 q 169 153 149 128 q 115 153 139 139 q 77 194 90 167 q 69 250 64 222 q 103 292 74 278 q 42 307 64 289 q 19 351 21 325 q 35 397 17 376 q 92 421 53 418 q 41 444 58 421 q 24 497 24 467 q 41 549 24 526 q 92 572 58 572 q 61 601 69 576 q 56 657 53 625 q 69 719 58 689 q 99 767 81 749 q 139 781 117 785 q 122 835 115 806 q 152 888 128 865 q 206 913 176 910 q 260 892 236 917 q 252 956 243 935 q 283 968 261 976 q 322 917 304 960 q 328 979 311 960 q 369 989 346 999 q 403 936 393 979 q 423 992 401 972 q 474 1013 444 1011 q 528 997 504 1014 q 553 944 551 981 q 573 998 557 981 q 608 1013 589 1015 q 639 991 626 1011 q 647 933 651 971 q 681 974 656 964 q 732 975 706 983 q 774 946 758 967 q 781 894 789 925 q 831 918 800 921 q 888 894 861 915 q 926 845 915 874 q 915 790 936 817 q 955 771 943 788 q 965 734 967 754 q 948 699 963 714 q 907 688 933 685 q 885 656 907 668 q 833 640 864 643 q 772 640 803 636 q 719 656 740 643 q 699 688 699 668 q 663 652 688 661 q 610 649 639 643 q 558 669 582 654 q 522 707 533 685 q 490 672 513 685 q 443 663 467 660 q 439 611 454 638 q 388 586 424 585 q 422 560 415 579 q 415 525 428 542 q 369 510 401 508 q 420 488 407 510 q 422 446 433 467 q 376 425 411 425 q 422 408 407 425 q 438 367 438 390 q 421 328 438 343 q 455 315 440 328 q 474 285 469 303 q 525 308 494 307 q 578 292 556 310 q 585 313 576 307 q 610 313 594 318 l 608 314 q 572 353 583 325 q 582 411 560 381 q 530 429 543 411 q 530 465 517 447 q 582 482 543 482 q 528 497 542 482 q 528 528 515 513 q 582 543 542 543 q 601 579 582 565 q 650 598 621 593 q 708 599 679 603 q 757 581 738 594 q 776 544 776 567 q 808 581 779 571 q 872 588 836 592 q 933 569 907 585 q 956 526 958 553 q 1017 510 996 526 q 1038 472 1038 493 q 1017 433 1038 450 q 956 417 996 417 q 1013 394 994 415 q 1029 346 1031 372 q 1007 301 1028 319 q 947 286 986 283 q 974 240 974 271 q 959 181 975 210 q 917 137 943 151 q 863 138 890 122 q 873 75 882 103 q 838 32 864 47 q 783 22 813 17 q 733 61 754 26 q 733 -8 747 13 q 694 -18 718 -29 q 658 40 671 -7 q 622 -19 663 -3 q 506 -20 581 -36 q 338 50 432 -4 z "},"Ğ":{"ha":1046,"x_min":17,"x_max":1038,"o":"m 338 50 q 294 2 319 8 q 253 19 268 -4 q 256 83 238 42 q 211 56 235 58 q 170 67 188 53 q 151 104 153 81 q 169 153 149 128 q 115 153 139 139 q 77 194 90 167 q 69 250 64 222 q 103 292 74 278 q 42 307 64 289 q 19 351 21 325 q 35 397 17 376 q 92 421 53 418 q 41 444 58 421 q 24 497 24 467 q 41 549 24 526 q 92 572 58 572 q 61 601 69 576 q 56 657 53 625 q 69 719 58 689 q 99 767 81 749 q 139 781 117 785 q 122 835 115 806 q 152 888 128 865 q 206 913 176 910 q 260 892 236 917 q 252 956 243 935 q 283 968 261 976 q 322 917 304 960 q 328 979 311 960 q 369 989 346 999 q 403 936 393 979 q 423 992 401 972 q 474 1013 444 1011 q 528 997 504 1014 q 553 944 551 981 q 573 998 557 981 q 608 1013 589 1015 q 639 991 626 1011 q 647 933 651 971 q 681 974 656 964 q 732 975 706 983 q 774 946 758 967 q 781 894 789 925 q 831 918 800 921 q 888 894 861 915 q 926 845 915 874 q 915 790 936 817 q 955 771 943 788 q 965 734 967 754 q 948 699 963 714 q 907 688 933 685 q 885 656 907 668 q 833 640 864 643 q 772 640 803 636 q 719 656 740 643 q 699 688 699 668 q 663 652 688 661 q 610 649 639 643 q 558 669 582 654 q 522 707 533 685 q 490 672 513 685 q 443 663 467 660 q 439 611 454 638 q 388 586 424 585 q 422 560 415 579 q 415 525 428 542 q 369 510 401 508 q 420 488 407 510 q 422 446 433 467 q 376 425 411 425 q 422 408 407 425 q 438 367 438 390 q 421 328 438 343 q 455 315 440 328 q 474 285 469 303 q 525 308 494 307 q 578 292 556 310 q 585 313 576 307 q 610 313 594 318 l 608 314 q 572 353 583 325 q 582 411 560 381 q 530 429 543 411 q 530 465 517 447 q 582 482 543 482 q 528 497 542 482 q 528 528 515 513 q 582 543 542 543 q 601 579 582 565 q 650 598 621 593 q 708 599 679 603 q 757 581 738 594 q 776 544 776 567 q 808 581 779 571 q 872 588 836 592 q 933 569 907 585 q 956 526 958 553 q 1017 510 996 526 q 1038 472 1038 493 q 1017 433 1038 450 q 956 417 996 417 q 1013 394 994 415 q 1029 346 1031 372 q 1007 301 1028 319 q 947 286 986 283 q 974 240 974 271 q 959 181 975 210 q 917 137 943 151 q 863 138 890 122 q 873 75 882 103 q 838 32 864 47 q 783 22 813 17 q 733 61 754 26 q 733 -8 747 13 q 694 -18 718 -29 q 658 40 671 -7 q 622 -19 663 -3 q 506 -20 581 -36 q 338 50 432 -4 m 411 1060 q 380 1052 400 1047 q 340 1073 360 1057 q 311 1108 321 1089 q 313 1139 301 1126 q 276 1151 290 1132 q 263 1193 263 1169 q 286 1224 264 1217 q 288 1248 279 1235 q 311 1271 296 1261 q 342 1281 326 1281 q 365 1271 357 1282 q 387 1284 369 1283 q 424 1278 404 1285 q 455 1258 443 1271 q 463 1233 467 1246 q 492 1254 471 1253 q 536 1244 514 1256 q 568 1217 558 1233 q 589 1248 574 1232 q 619 1272 604 1264 q 644 1271 635 1279 q 665 1295 646 1289 q 707 1299 683 1301 q 747 1286 731 1297 q 761 1257 764 1275 q 786 1234 781 1253 q 788 1194 792 1215 q 770 1157 783 1172 q 739 1146 757 1142 q 747 1109 756 1131 q 717 1076 738 1088 q 678 1081 696 1065 q 660 1047 683 1063 q 597 1026 638 1032 q 507 1027 556 1019 q 411 1060 458 1035 z "},"Ĝ":{"ha":1046,"x_min":17,"x_max":1038,"o":"m 338 50 q 294 2 319 8 q 253 19 268 -4 q 256 83 238 42 q 211 56 235 58 q 170 67 188 53 q 151 104 153 81 q 169 153 149 128 q 115 153 139 139 q 77 194 90 167 q 69 250 64 222 q 103 292 74 278 q 42 307 64 289 q 19 351 21 325 q 35 397 17 376 q 92 421 53 418 q 41 444 58 421 q 24 497 24 467 q 41 549 24 526 q 92 572 58 572 q 61 601 69 576 q 56 657 53 625 q 69 719 58 689 q 99 767 81 749 q 139 781 117 785 q 122 835 115 806 q 152 888 128 865 q 206 913 176 910 q 260 892 236 917 q 252 956 243 935 q 283 968 261 976 q 322 917 304 960 q 328 979 311 960 q 369 989 346 999 q 403 936 393 979 q 423 992 401 972 q 474 1013 444 1011 q 528 997 504 1014 q 553 944 551 981 q 573 998 557 981 q 608 1013 589 1015 q 639 991 626 1011 q 647 933 651 971 q 681 974 656 964 q 732 975 706 983 q 774 946 758 967 q 781 894 789 925 q 831 918 800 921 q 888 894 861 915 q 926 845 915 874 q 915 790 936 817 q 955 771 943 788 q 965 734 967 754 q 948 699 963 714 q 907 688 933 685 q 885 656 907 668 q 833 640 864 643 q 772 640 803 636 q 719 656 740 643 q 699 688 699 668 q 663 652 688 661 q 610 649 639 643 q 558 669 582 654 q 522 707 533 685 q 490 672 513 685 q 443 663 467 660 q 439 611 454 638 q 388 586 424 585 q 422 560 415 579 q 415 525 428 542 q 369 510 401 508 q 420 488 407 510 q 422 446 433 467 q 376 425 411 425 q 422 408 407 425 q 438 367 438 390 q 421 328 438 343 q 455 315 440 328 q 474 285 469 303 q 525 308 494 307 q 578 292 556 310 q 585 313 576 307 q 610 313 594 318 l 608 314 q 572 353 583 325 q 582 411 560 381 q 530 429 543 411 q 530 465 517 447 q 582 482 543 482 q 528 497 542 482 q 528 528 515 513 q 582 543 542 543 q 601 579 582 565 q 650 598 621 593 q 708 599 679 603 q 757 581 738 594 q 776 544 776 567 q 808 581 779 571 q 872 588 836 592 q 933 569 907 585 q 956 526 958 553 q 1017 510 996 526 q 1038 472 1038 493 q 1017 433 1038 450 q 956 417 996 417 q 1013 394 994 415 q 1029 346 1031 372 q 1007 301 1028 319 q 947 286 986 283 q 974 240 974 271 q 959 181 975 210 q 917 137 943 151 q 863 138 890 122 q 873 75 882 103 q 838 32 864 47 q 783 22 813 17 q 733 61 754 26 q 733 -8 747 13 q 694 -18 718 -29 q 658 40 671 -7 q 622 -19 663 -3 q 506 -20 581 -36 q 338 50 432 -4 m 228 1058 q 215 1089 213 1069 q 231 1126 217 1108 q 262 1151 244 1143 q 294 1146 279 1158 q 285 1175 282 1158 q 302 1206 289 1192 q 332 1226 315 1221 q 361 1219 349 1231 q 365 1247 354 1232 q 394 1272 375 1261 q 431 1283 413 1282 q 456 1271 449 1283 q 478 1298 456 1289 q 529 1307 500 1307 q 581 1298 558 1307 q 603 1271 603 1289 q 628 1283 611 1285 q 661 1272 644 1282 q 686 1247 678 1263 q 686 1219 694 1232 q 715 1225 699 1231 q 744 1205 731 1219 q 761 1174 757 1190 q 753 1146 765 1157 q 778 1135 768 1149 q 793 1103 789 1122 q 792 1068 797 1085 q 772 1049 788 1051 q 758 1019 772 1026 q 728 1019 743 1011 q 713 1049 713 1026 q 688 1031 707 1033 q 644 1034 668 1028 q 603 1053 621 1040 q 583 1082 585 1067 q 556 1060 578 1068 q 507 1050 533 1051 q 460 1056 481 1049 q 439 1078 439 1063 q 422 1049 442 1061 q 374 1032 401 1038 q 323 1030 346 1026 q 296 1049 300 1033 q 282 1016 296 1024 q 251 1018 268 1008 q 228 1058 235 1028 z "},"Ģ":{"ha":1046,"x_min":17,"x_max":1038,"o":"m 338 50 q 294 2 319 8 q 253 19 268 -4 q 256 83 238 42 q 211 56 235 58 q 170 67 188 53 q 151 104 153 81 q 169 153 149 128 q 115 153 139 139 q 77 194 90 167 q 69 250 64 222 q 103 292 74 278 q 42 307 64 289 q 19 351 21 325 q 35 397 17 376 q 92 421 53 418 q 41 444 58 421 q 24 497 24 467 q 41 549 24 526 q 92 572 58 572 q 61 601 69 576 q 56 657 53 625 q 69 719 58 689 q 99 767 81 749 q 139 781 117 785 q 122 835 115 806 q 152 888 128 865 q 206 913 176 910 q 260 892 236 917 q 252 956 243 935 q 283 968 261 976 q 322 917 304 960 q 328 979 311 960 q 369 989 346 999 q 403 936 393 979 q 423 992 401 972 q 474 1013 444 1011 q 528 997 504 1014 q 553 944 551 981 q 573 998 557 981 q 608 1013 589 1015 q 639 991 626 1011 q 647 933 651 971 q 681 974 656 964 q 732 975 706 983 q 774 946 758 967 q 781 894 789 925 q 831 918 800 921 q 888 894 861 915 q 926 845 915 874 q 915 790 936 817 q 955 771 943 788 q 965 734 967 754 q 948 699 963 714 q 907 688 933 685 q 885 656 907 668 q 833 640 864 643 q 772 640 803 636 q 719 656 740 643 q 699 688 699 668 q 663 652 688 661 q 610 649 639 643 q 558 669 582 654 q 522 707 533 685 q 490 672 513 685 q 443 663 467 660 q 439 611 454 638 q 388 586 424 585 q 422 560 415 579 q 415 525 428 542 q 369 510 401 508 q 420 488 407 510 q 422 446 433 467 q 376 425 411 425 q 422 408 407 425 q 438 367 438 390 q 421 328 438 343 q 455 315 440 328 q 474 285 469 303 q 525 308 494 307 q 578 292 556 310 q 585 313 576 307 q 610 313 594 318 l 608 314 q 572 353 583 325 q 582 411 560 381 q 530 429 543 411 q 530 465 517 447 q 582 482 543 482 q 528 497 542 482 q 528 528 515 513 q 582 543 542 543 q 601 579 582 565 q 650 598 621 593 q 708 599 679 603 q 757 581 738 594 q 776 544 776 567 q 808 581 779 571 q 872 588 836 592 q 933 569 907 585 q 956 526 958 553 q 1017 510 996 526 q 1038 472 1038 493 q 1017 433 1038 450 q 956 417 996 417 q 1013 394 994 415 q 1029 346 1031 372 q 1007 301 1028 319 q 947 286 986 283 q 974 240 974 271 q 959 181 975 210 q 917 137 943 151 q 863 138 890 122 q 873 75 882 103 q 838 32 864 47 q 783 22 813 17 q 733 61 754 26 q 733 -8 747 13 q 694 -18 718 -29 q 658 40 671 -7 q 622 -19 663 -3 q 506 -20 581 -36 q 338 50 432 -4 m 360 -226 q 333 -208 340 -224 q 329 -173 326 -192 q 344 -141 332 -154 q 374 -131 356 -128 q 374 -104 367 -118 q 399 -79 382 -90 q 431 -66 415 -68 q 456 -76 447 -64 q 474 -51 456 -60 q 519 -42 493 -42 q 563 -51 544 -42 q 582 -76 582 -60 q 613 -47 590 -50 q 652 -59 635 -44 q 661 -100 669 -74 q 683 -127 681 -107 q 678 -169 686 -147 q 654 -203 669 -190 q 619 -208 639 -215 q 637 -233 635 -215 q 631 -269 639 -250 q 610 -301 624 -289 q 581 -306 596 -312 q 569 -332 585 -319 q 531 -351 554 -344 q 488 -356 507 -358 q 464 -340 468 -354 q 449 -362 464 -357 q 415 -358 435 -368 q 380 -317 396 -349 q 360 -226 364 -286 z "},"Ġ":{"ha":1046,"x_min":17,"x_max":1038,"o":"m 338 50 q 294 2 319 8 q 253 19 268 -4 q 256 83 238 42 q 211 56 235 58 q 170 67 188 53 q 151 104 153 81 q 169 153 149 128 q 115 153 139 139 q 77 194 90 167 q 69 250 64 222 q 103 292 74 278 q 42 307 64 289 q 19 351 21 325 q 35 397 17 376 q 92 421 53 418 q 41 444 58 421 q 24 497 24 467 q 41 549 24 526 q 92 572 58 572 q 61 601 69 576 q 56 657 53 625 q 69 719 58 689 q 99 767 81 749 q 139 781 117 785 q 122 835 115 806 q 152 888 128 865 q 206 913 176 910 q 260 892 236 917 q 252 956 243 935 q 283 968 261 976 q 322 917 304 960 q 328 979 311 960 q 369 989 346 999 q 403 936 393 979 q 423 992 401 972 q 474 1013 444 1011 q 528 997 504 1014 q 553 944 551 981 q 573 998 557 981 q 608 1013 589 1015 q 639 991 626 1011 q 647 933 651 971 q 681 974 656 964 q 732 975 706 983 q 774 946 758 967 q 781 894 789 925 q 831 918 800 921 q 888 894 861 915 q 926 845 915 874 q 915 790 936 817 q 955 771 943 788 q 965 734 967 754 q 948 699 963 714 q 907 688 933 685 q 885 656 907 668 q 833 640 864 643 q 772 640 803 636 q 719 656 740 643 q 699 688 699 668 q 663 652 688 661 q 610 649 639 643 q 558 669 582 654 q 522 707 533 685 q 490 672 513 685 q 443 663 467 660 q 439 611 454 638 q 388 586 424 585 q 422 560 415 579 q 415 525 428 542 q 369 510 401 508 q 420 488 407 510 q 422 446 433 467 q 376 425 411 425 q 422 408 407 425 q 438 367 438 390 q 421 328 438 343 q 455 315 440 328 q 474 285 469 303 q 525 308 494 307 q 578 292 556 310 q 585 313 576 307 q 610 313 594 318 l 608 314 q 572 353 583 325 q 582 411 560 381 q 530 429 543 411 q 530 465 517 447 q 582 482 543 482 q 528 497 542 482 q 528 528 515 513 q 582 543 542 543 q 601 579 582 565 q 650 598 621 593 q 708 599 679 603 q 757 581 738 594 q 776 544 776 567 q 808 581 779 571 q 872 588 836 592 q 933 569 907 585 q 956 526 958 553 q 1017 510 996 526 q 1038 472 1038 493 q 1017 433 1038 450 q 956 417 996 417 q 1013 394 994 415 q 1029 346 1031 372 q 1007 301 1028 319 q 947 286 986 283 q 974 240 974 271 q 959 181 975 210 q 917 137 943 151 q 863 138 890 122 q 873 75 882 103 q 838 32 864 47 q 783 22 813 17 q 733 61 754 26 q 733 -8 747 13 q 694 -18 718 -29 q 658 40 671 -7 q 622 -19 663 -3 q 506 -20 581 -36 q 338 50 432 -4 m 404 1085 q 380 1099 388 1085 q 372 1132 372 1114 q 380 1165 372 1150 q 404 1179 388 1179 q 385 1202 389 1183 q 388 1242 382 1221 q 407 1278 394 1264 q 435 1288 419 1292 q 456 1311 435 1303 q 507 1319 478 1319 q 558 1311 536 1319 q 579 1288 579 1303 q 608 1294 589 1301 q 640 1270 628 1286 q 643 1240 653 1254 q 673 1226 663 1240 q 683 1193 683 1211 q 673 1160 683 1175 q 643 1146 663 1146 q 652 1122 654 1140 q 640 1085 650 1104 q 615 1054 629 1065 q 590 1049 601 1043 q 565 1022 590 1031 q 506 1017 540 1014 q 443 1036 472 1019 q 404 1085 414 1053 z "},"H":{"ha":1072,"x_min":38,"x_max":1036,"o":"m 118 193 q 66 209 83 193 q 49 246 49 225 q 66 282 49 267 q 118 297 83 297 q 55 313 71 297 q 55 343 39 328 q 118 358 71 358 q 67 374 83 358 q 50 411 50 390 q 67 448 50 432 q 118 464 83 464 q 58 488 78 464 q 38 544 38 513 q 58 601 38 576 q 118 625 78 625 q 64 651 82 625 q 46 710 46 676 q 64 770 46 744 q 118 796 82 796 q 69 817 85 797 q 53 864 53 838 q 69 910 53 890 q 119 931 86 931 q 139 992 119 972 q 183 1013 158 1013 q 228 992 208 1013 q 247 931 247 972 q 266 989 247 969 q 308 1008 285 1008 q 351 989 332 1008 q 369 931 369 969 q 429 922 413 938 q 435 885 446 906 q 382 857 425 864 q 449 831 429 857 q 463 776 469 806 q 422 732 456 746 q 463 708 447 728 q 482 664 479 688 q 547 678 510 681 q 606 651 583 675 q 625 682 607 675 q 627 735 611 707 q 690 763 643 763 q 628 788 649 763 q 608 846 608 813 q 628 904 608 879 q 690 929 649 929 q 710 982 690 964 q 754 1001 729 1000 q 799 983 779 1001 q 819 931 819 965 q 835 992 819 971 q 869 1013 850 1013 q 904 992 889 1013 q 919 931 919 971 q 963 919 944 936 q 988 874 981 901 q 987 822 994 846 q 954 790 979 797 q 1014 763 994 790 q 1033 699 1033 736 q 1014 635 1033 663 q 954 608 994 608 q 1016 583 996 608 q 1036 525 1036 558 q 1016 467 1036 492 q 954 442 996 442 q 1016 415 996 442 q 1036 353 1036 389 q 1016 291 1036 318 q 954 264 996 264 q 1013 251 999 264 q 1013 224 1028 238 q 954 210 999 210 q 1002 192 986 210 q 1018 151 1018 174 q 1002 110 1018 128 q 954 93 986 93 q 956 44 967 65 q 922 13 944 22 q 877 8 900 3 q 842 42 854 14 q 820 -13 843 6 q 767 -33 797 -32 q 715 -16 738 -33 q 690 38 692 1 q 647 63 663 38 q 628 122 632 88 q 635 187 625 156 q 668 231 644 218 q 601 253 625 224 q 582 318 576 283 q 482 319 531 301 q 474 290 485 303 q 444 275 464 278 q 454 233 469 257 q 382 208 439 208 q 453 193 436 208 q 453 163 471 178 q 382 147 436 147 q 433 132 415 147 q 450 96 450 117 q 433 59 450 75 q 382 43 415 43 q 371 -27 383 -10 q 345 -27 358 -44 q 331 42 332 -10 q 315 -8 331 8 q 281 -24 300 -24 q 246 -8 261 -24 q 231 42 231 8 q 215 -31 231 -12 q 185 -31 200 -49 q 169 42 169 -12 q 161 -10 169 6 q 142 -12 153 -26 q 124 51 132 1 q 118 193 117 100 z "},"Ħ":{"ha":1072,"x_min":38,"x_max":1036,"o":"m 118 193 q 66 209 83 193 q 49 246 49 225 q 66 282 49 267 q 118 297 83 297 q 55 313 71 297 q 55 343 39 328 q 118 358 71 358 q 67 374 83 358 q 50 411 50 390 q 67 448 50 432 q 118 464 83 464 q 58 488 78 464 q 38 544 38 513 q 58 601 38 576 q 118 625 78 625 q 64 651 82 625 q 46 710 46 676 q 64 770 46 744 q 118 796 82 796 q 69 817 85 797 q 53 864 53 838 q 69 910 53 890 q 119 931 86 931 q 139 992 119 972 q 183 1013 158 1013 q 228 992 208 1013 q 247 931 247 972 q 266 989 247 969 q 308 1008 285 1008 q 351 989 332 1008 q 369 931 369 969 q 409 931 393 935 q 432 918 425 926 q 455 901 444 918 q 465 851 465 885 q 494 901 465 885 q 562 917 524 917 q 626 900 600 917 q 652 921 636 913 q 690 929 668 929 q 710 982 690 964 q 754 1001 729 1000 q 799 983 779 1001 q 819 931 819 965 q 835 992 819 971 q 869 1013 850 1013 q 904 992 889 1013 q 919 931 919 971 q 963 919 944 936 q 988 874 981 901 q 988 822 994 846 q 960 792 982 799 l 958 790 q 1015 761 997 789 q 1033 697 1033 733 q 1013 635 1033 661 q 954 608 993 608 q 1016 583 996 608 q 1036 525 1036 558 q 1016 467 1036 492 q 954 442 996 442 q 1016 415 996 442 q 1036 353 1036 389 q 1016 291 1036 318 q 954 264 996 264 q 1013 251 999 264 q 1013 224 1028 238 q 954 210 999 210 q 1002 192 986 210 q 1018 151 1018 174 q 1002 110 1018 128 q 954 93 986 93 q 956 44 967 65 q 922 13 944 22 q 877 8 900 3 q 842 42 854 14 q 820 -13 843 6 q 767 -33 797 -32 q 715 -16 738 -33 q 690 38 692 1 q 647 63 663 38 q 628 122 632 88 q 635 187 625 156 q 668 231 644 218 q 601 253 625 224 q 582 318 576 283 q 482 319 531 301 q 474 290 485 303 q 444 275 464 278 q 454 233 469 257 q 382 208 439 208 q 453 193 436 208 q 453 163 471 178 q 382 147 436 147 q 433 132 415 147 q 450 96 450 117 q 433 59 450 75 q 382 43 415 43 q 371 -27 383 -10 q 345 -27 358 -44 q 331 42 332 -10 q 315 -8 331 8 q 281 -24 300 -24 q 246 -8 261 -24 q 231 42 231 8 q 215 -31 231 -12 q 185 -31 200 -49 q 169 42 169 -12 q 161 -10 169 6 q 142 -12 153 -26 q 124 51 132 1 q 118 193 117 100 m 399 856 l 400 861 l 399 861 q 399 857 399 858 q 399 856 399 856 l 399 856 m 499 765 q 488 732 499 746 q 461 711 478 718 q 482 664 479 690 q 547 678 510 681 q 606 651 583 675 q 625 682 607 675 q 618 707 619 693 q 592 731 601 717 q 582 765 582 746 q 561 693 582 711 q 519 693 540 675 q 499 765 499 711 z "},"Ĥ":{"ha":1072,"x_min":38,"x_max":1036,"o":"m 118 193 q 66 209 83 193 q 49 246 49 225 q 66 282 49 267 q 118 297 83 297 q 55 313 71 297 q 55 343 39 328 q 118 358 71 358 q 67 374 83 358 q 50 411 50 390 q 67 448 50 432 q 118 464 83 464 q 58 488 78 464 q 38 544 38 513 q 58 601 38 576 q 118 625 78 625 q 64 651 82 625 q 46 710 46 676 q 64 770 46 744 q 118 796 82 796 q 69 817 85 797 q 53 864 53 838 q 69 910 53 890 q 119 931 86 931 q 139 992 119 972 q 183 1013 158 1013 q 228 992 208 1013 q 247 931 247 972 q 266 989 247 969 q 308 1008 285 1008 q 351 989 332 1008 q 369 931 369 969 q 429 922 413 938 q 435 885 446 906 q 382 857 425 864 q 449 831 429 857 q 463 776 469 806 q 422 732 456 746 q 463 708 447 728 q 482 664 479 688 q 547 678 510 681 q 606 651 583 675 q 625 682 607 675 q 627 735 611 707 q 690 763 643 763 q 628 788 649 763 q 608 846 608 813 q 628 904 608 879 q 690 929 649 929 q 710 982 690 964 q 754 1001 729 1000 q 799 983 779 1001 q 819 931 819 965 q 835 992 819 971 q 869 1013 850 1013 q 904 992 889 1013 q 919 931 919 971 q 963 919 944 936 q 988 874 981 901 q 987 822 994 846 q 954 790 979 797 q 1014 763 994 790 q 1033 699 1033 736 q 1014 635 1033 663 q 954 608 994 608 q 1016 583 996 608 q 1036 525 1036 558 q 1016 467 1036 492 q 954 442 996 442 q 1016 415 996 442 q 1036 353 1036 389 q 1016 291 1036 318 q 954 264 996 264 q 1013 251 999 264 q 1013 224 1028 238 q 954 210 999 210 q 1002 192 986 210 q 1018 151 1018 174 q 1002 110 1018 128 q 954 93 986 93 q 956 44 967 65 q 922 13 944 22 q 877 8 900 3 q 842 42 854 14 q 820 -13 843 6 q 767 -33 797 -32 q 715 -16 738 -33 q 690 38 692 1 q 647 63 663 38 q 628 122 632 88 q 635 187 625 156 q 668 231 644 218 q 601 253 625 224 q 582 318 576 283 q 482 319 531 301 q 474 290 485 303 q 444 275 464 278 q 454 233 469 257 q 382 208 439 208 q 453 193 436 208 q 453 163 471 178 q 382 147 436 147 q 433 132 415 147 q 450 96 450 117 q 433 59 450 75 q 382 43 415 43 q 371 -27 383 -10 q 345 -27 358 -44 q 331 42 332 -10 q 315 -8 331 8 q 281 -24 300 -24 q 246 -8 261 -24 q 231 42 231 8 q 215 -31 231 -12 q 185 -31 200 -49 q 169 42 169 -12 q 161 -10 169 6 q 142 -12 153 -26 q 124 51 132 1 q 118 193 117 100 m 240 1058 q 227 1089 225 1069 q 243 1126 229 1108 q 274 1151 257 1143 q 307 1146 292 1158 q 298 1175 294 1158 q 315 1206 301 1192 q 344 1226 328 1221 q 374 1219 361 1231 q 377 1247 367 1232 q 406 1272 388 1261 q 443 1283 425 1282 q 468 1271 461 1283 q 490 1298 468 1289 q 542 1307 513 1307 q 593 1298 571 1307 q 615 1271 615 1289 q 640 1283 624 1285 q 674 1272 657 1282 q 699 1247 690 1263 q 699 1219 707 1232 q 727 1225 711 1231 q 756 1205 743 1219 q 774 1174 769 1190 q 765 1146 778 1157 q 791 1135 781 1149 q 806 1103 801 1122 q 805 1068 810 1085 q 785 1049 800 1051 q 770 1019 785 1026 q 740 1019 756 1011 q 725 1049 725 1026 q 700 1031 719 1033 q 657 1034 681 1028 q 615 1053 633 1040 q 596 1082 597 1067 q 568 1060 590 1068 q 519 1050 546 1051 q 472 1056 493 1049 q 451 1078 451 1063 q 434 1049 454 1061 q 386 1032 414 1038 q 335 1030 358 1026 q 308 1049 313 1033 q 294 1016 308 1024 q 264 1018 281 1008 q 240 1058 247 1028 z "},"I":{"ha":511,"x_min":26,"x_max":481,"o":"m 118 49 q 73 70 90 49 q 50 124 56 92 q 50 189 44 157 q 73 242 56 221 q 118 264 90 264 q 76 285 92 264 q 55 336 60 306 q 55 397 50 367 q 76 449 60 428 q 118 469 92 469 q 56 484 76 469 q 36 517 36 499 q 56 549 36 535 q 118 564 76 564 q 76 585 92 564 q 56 636 61 606 q 56 697 51 667 q 76 748 61 728 q 118 768 92 768 q 45 786 64 768 q 45 822 26 804 q 118 840 64 840 q 102 885 99 861 q 124 926 106 908 q 165 947 142 943 q 208 931 189 950 q 226 987 208 968 q 267 1006 243 1006 q 308 987 290 1006 q 325 931 325 968 q 375 945 351 950 q 413 922 399 940 q 423 878 426 903 q 393 835 419 854 q 444 815 426 835 q 461 768 461 794 q 444 722 461 742 q 393 703 426 703 q 463 689 446 703 q 463 661 481 675 q 393 647 446 647 q 440 631 425 647 q 456 594 456 615 q 440 558 456 574 q 393 542 425 542 q 453 517 433 542 q 474 461 474 493 q 453 405 474 429 q 393 381 433 381 q 458 363 442 381 q 458 326 474 344 q 393 308 442 308 q 435 288 419 308 q 456 238 451 268 q 456 176 461 207 q 435 125 451 146 q 393 104 419 104 q 402 62 408 82 q 378 29 396 42 q 339 18 360 17 q 303 42 318 19 q 284 -2 303 14 q 237 -24 265 -18 q 181 -23 208 -29 q 135 1 153 -17 q 118 49 117 19 z "},"Ĳ":{"ha":1121,"x_min":33,"x_max":1093,"o":"m 118 126 q 62 144 81 126 q 43 187 43 163 q 62 230 43 211 q 118 249 81 249 q 51 269 68 249 q 51 310 33 289 q 118 331 68 331 q 56 349 76 331 q 36 390 36 367 q 56 430 36 413 q 118 447 76 447 q 63 462 81 447 q 44 494 44 476 q 63 527 44 513 q 118 542 81 542 q 53 564 69 542 q 53 608 36 586 q 118 631 69 631 q 72 651 89 631 q 49 701 54 671 q 49 763 43 732 q 72 814 54 793 q 118 835 89 835 q 97 872 97 850 q 109 913 96 894 q 144 939 122 932 q 186 931 165 946 q 207 978 186 960 q 258 1001 228 996 q 319 1001 289 1007 q 371 978 350 996 q 392 931 392 960 q 451 906 431 931 q 471 850 471 882 q 451 794 471 818 q 393 768 432 769 q 441 751 425 768 q 457 713 457 735 q 441 675 457 692 q 393 658 425 658 q 435 636 419 658 q 457 582 451 614 q 457 518 463 550 q 435 464 451 486 q 393 442 419 442 q 444 422 425 442 q 469 374 463 403 q 469 316 475 344 q 444 268 463 288 q 393 249 425 249 q 438 220 422 249 q 453 154 453 192 q 438 88 453 117 q 393 60 422 60 q 384 1 399 22 q 346 -24 369 -21 q 301 -12 322 -28 q 275 42 281 4 q 251 -12 275 4 q 195 -22 226 -29 q 140 22 164 -14 q 118 126 117 57 m 588 149 q 539 163 556 149 q 522 195 522 176 q 539 228 522 214 q 588 242 556 242 q 578 300 571 274 q 607 342 585 326 q 654 354 629 357 q 664 401 646 379 q 724 421 682 424 q 683 455 696 426 q 672 517 671 483 q 690 577 674 551 q 735 603 706 603 q 690 624 707 603 q 668 678 674 646 q 668 742 663 710 q 690 797 674 775 q 735 818 707 818 q 715 858 714 833 q 732 903 717 882 q 769 935 747 925 q 813 931 792 944 q 832 975 813 958 q 881 998 851 992 q 940 999 910 1004 q 990 978 969 994 q 1011 935 1011 963 q 1073 921 1053 935 q 1093 888 1093 907 q 1073 855 1093 869 q 1011 840 1053 840 q 1058 819 1040 840 q 1081 767 1075 799 q 1081 703 1088 735 q 1058 651 1075 672 q 1011 631 1040 631 q 1069 611 1054 631 q 1069 572 1083 592 q 1011 553 1054 553 q 1071 534 1051 553 q 1090 491 1090 515 q 1071 449 1090 467 q 1011 431 1051 431 q 1059 402 1044 429 q 1072 341 1074 375 q 1053 282 1071 307 q 1003 258 1035 257 q 1042 227 1033 247 q 1044 188 1051 207 q 1017 159 1038 168 q 965 161 996 150 q 1006 101 1004 126 q 982 74 1007 76 q 918 107 957 72 q 929 47 936 72 q 902 10 922 21 q 857 10 882 0 q 814 54 832 19 q 812 -9 825 10 q 779 -17 799 -28 q 750 40 760 -6 q 728 -9 751 7 q 672 -17 704 -25 q 614 31 639 -8 q 588 149 589 71 z "},"Í":{"ha":511,"x_min":26,"x_max":610,"o":"m 118 49 q 73 70 90 49 q 50 124 56 92 q 50 189 44 157 q 73 242 56 221 q 118 264 90 264 q 76 285 92 264 q 55 336 60 306 q 55 397 50 367 q 76 449 60 428 q 118 469 92 469 q 56 484 76 469 q 36 517 36 499 q 56 549 36 535 q 118 564 76 564 q 76 585 92 564 q 56 636 61 606 q 56 697 51 667 q 76 748 61 728 q 118 768 92 768 q 45 786 64 768 q 45 822 26 804 q 118 840 64 840 q 102 885 99 861 q 124 926 106 908 q 165 947 142 943 q 208 931 189 950 q 226 987 208 968 q 267 1006 243 1006 q 308 987 290 1006 q 325 931 325 968 q 375 945 351 950 q 413 922 399 940 q 423 878 426 903 q 393 835 419 854 q 444 815 426 835 q 461 768 461 794 q 444 722 461 742 q 393 703 426 703 q 463 689 446 703 q 463 661 481 675 q 393 647 446 647 q 440 631 425 647 q 456 594 456 615 q 440 558 456 574 q 393 542 425 542 q 453 517 433 542 q 474 461 474 493 q 453 405 474 429 q 393 381 433 381 q 458 363 442 381 q 458 326 474 344 q 393 308 442 308 q 435 288 419 308 q 456 238 451 268 q 456 176 461 207 q 435 125 451 146 q 393 104 419 104 q 402 62 408 82 q 378 29 396 42 q 339 18 360 17 q 303 42 318 19 q 284 -2 303 14 q 237 -24 265 -18 q 181 -23 208 -29 q 135 1 153 -17 q 118 49 117 19 m 158 1129 q 150 1159 144 1139 q 172 1199 156 1179 q 206 1228 188 1218 q 239 1226 225 1238 q 240 1260 226 1243 q 275 1283 254 1278 q 307 1271 296 1289 q 331 1294 307 1286 q 388 1303 356 1303 q 444 1294 419 1303 q 468 1271 468 1286 q 488 1302 468 1294 q 526 1302 507 1310 q 546 1271 546 1294 q 570 1294 556 1293 q 594 1284 585 1296 q 593 1250 603 1272 q 604 1217 610 1233 q 583 1197 599 1201 q 550 1207 567 1192 q 556 1176 564 1192 q 533 1157 549 1161 q 504 1169 517 1153 q 508 1136 515 1154 q 483 1103 500 1118 q 446 1085 465 1089 q 414 1096 426 1081 q 421 1065 428 1079 q 399 1047 414 1050 q 369 1060 383 1043 q 356 1033 372 1043 q 318 1022 340 1024 q 278 1026 296 1019 q 258 1049 261 1032 q 239 1021 258 1029 q 197 1020 219 1013 q 160 1053 174 1028 q 158 1129 146 1079 z "},"Ĭ":{"ha":511,"x_min":-6,"x_max":524,"o":"m 118 49 q 73 70 90 49 q 50 124 56 92 q 50 189 44 157 q 73 242 56 221 q 118 264 90 264 q 76 285 92 264 q 55 336 60 306 q 55 397 50 367 q 76 449 60 428 q 118 469 92 469 q 56 484 76 469 q 36 517 36 499 q 56 549 36 535 q 118 564 76 564 q 76 585 92 564 q 56 636 61 606 q 56 697 51 667 q 76 748 61 728 q 118 768 92 768 q 45 786 64 768 q 45 822 26 804 q 118 840 64 840 q 102 885 99 861 q 124 926 106 908 q 165 947 142 943 q 208 931 189 950 q 226 987 208 968 q 267 1006 243 1006 q 308 987 290 1006 q 325 931 325 968 q 375 945 351 950 q 413 922 399 940 q 423 878 426 903 q 393 835 419 854 q 444 815 426 835 q 461 768 461 794 q 444 722 461 742 q 393 703 426 703 q 463 689 446 703 q 463 661 481 675 q 393 647 446 647 q 440 631 425 647 q 456 594 456 615 q 440 558 456 574 q 393 542 425 542 q 453 517 433 542 q 474 461 474 493 q 453 405 474 429 q 393 381 433 381 q 458 363 442 381 q 458 326 474 344 q 393 308 442 308 q 435 288 419 308 q 456 238 451 268 q 456 176 461 207 q 435 125 451 146 q 393 104 419 104 q 402 62 408 82 q 378 29 396 42 q 339 18 360 17 q 303 42 318 19 q 284 -2 303 14 q 237 -24 265 -18 q 181 -23 208 -29 q 135 1 153 -17 q 118 49 117 19 m 143 1060 q 112 1052 132 1047 q 72 1073 92 1057 q 43 1108 53 1089 q 44 1139 33 1126 q 8 1151 22 1132 q -5 1193 -6 1169 q 18 1224 -4 1217 q 19 1248 11 1235 q 43 1271 28 1261 q 74 1281 58 1281 q 97 1271 89 1282 q 119 1284 101 1283 q 156 1278 136 1285 q 187 1258 175 1271 q 194 1233 199 1246 q 224 1254 203 1253 q 268 1244 246 1256 q 300 1217 290 1233 q 321 1248 306 1232 q 351 1272 336 1264 q 376 1271 367 1279 q 397 1295 378 1289 q 439 1299 415 1301 q 479 1286 463 1297 q 493 1257 496 1275 q 518 1234 513 1253 q 519 1194 524 1215 q 502 1157 515 1172 q 471 1146 489 1142 q 478 1109 488 1131 q 449 1076 469 1088 q 410 1081 428 1065 q 392 1047 415 1063 q 328 1026 369 1032 q 239 1027 288 1019 q 143 1060 190 1035 z "},"Î":{"ha":511,"x_min":-56,"x_max":529,"o":"m 118 49 q 73 70 90 49 q 50 124 56 92 q 50 189 44 157 q 73 242 56 221 q 118 264 90 264 q 76 285 92 264 q 55 336 60 306 q 55 397 50 367 q 76 449 60 428 q 118 469 92 469 q 56 484 76 469 q 36 517 36 499 q 56 549 36 535 q 118 564 76 564 q 76 585 92 564 q 56 636 61 606 q 56 697 51 667 q 76 748 61 728 q 118 768 92 768 q 45 786 64 768 q 45 822 26 804 q 118 840 64 840 q 102 885 99 861 q 124 926 106 908 q 165 947 142 943 q 208 931 189 950 q 226 987 208 968 q 267 1006 243 1006 q 308 987 290 1006 q 325 931 325 968 q 375 945 351 950 q 413 922 399 940 q 423 878 426 903 q 393 835 419 854 q 444 815 426 835 q 461 768 461 794 q 444 722 461 742 q 393 703 426 703 q 463 689 446 703 q 463 661 481 675 q 393 647 446 647 q 440 631 425 647 q 456 594 456 615 q 440 558 456 574 q 393 542 425 542 q 453 517 433 542 q 474 461 474 493 q 453 405 474 429 q 393 381 433 381 q 458 363 442 381 q 458 326 474 344 q 393 308 442 308 q 435 288 419 308 q 456 238 451 268 q 456 176 461 207 q 435 125 451 146 q 393 104 419 104 q 402 62 408 82 q 378 29 396 42 q 339 18 360 17 q 303 42 318 19 q 284 -2 303 14 q 237 -24 265 -18 q 181 -23 208 -29 q 135 1 153 -17 q 118 49 117 19 m -40 1058 q -53 1089 -56 1069 q -37 1126 -51 1108 q -6 1151 -24 1143 q 26 1146 11 1158 q 17 1175 14 1158 q 34 1206 21 1192 q 64 1226 47 1221 q 93 1219 81 1231 q 97 1247 86 1232 q 126 1272 107 1261 q 163 1283 144 1282 q 188 1271 181 1283 q 210 1298 188 1289 q 261 1307 232 1307 q 313 1298 290 1307 q 335 1271 335 1289 q 360 1283 343 1285 q 393 1272 376 1282 q 418 1247 410 1263 q 418 1219 426 1232 q 447 1225 431 1231 q 476 1205 463 1219 q 493 1174 489 1190 q 485 1146 497 1157 q 510 1135 500 1149 q 525 1103 521 1122 q 524 1068 529 1085 q 504 1049 519 1051 q 490 1019 504 1026 q 460 1019 475 1011 q 444 1049 444 1026 q 419 1031 439 1033 q 376 1034 400 1028 q 335 1053 353 1040 q 315 1082 317 1067 q 288 1060 310 1068 q 239 1050 265 1051 q 192 1056 213 1049 q 171 1078 171 1063 q 153 1049 174 1061 q 106 1032 133 1038 q 55 1030 78 1026 q 28 1049 32 1033 q 14 1016 28 1024 q -17 1018 0 1008 q -40 1058 -33 1028 z "},"Ï":{"ha":511,"x_min":-62,"x_max":585,"o":"m 118 49 q 73 70 90 49 q 50 124 56 92 q 50 189 44 157 q 73 242 56 221 q 118 264 90 264 q 76 285 92 264 q 55 336 60 306 q 55 397 50 367 q 76 449 60 428 q 118 469 92 469 q 56 484 76 469 q 36 517 36 499 q 56 549 36 535 q 118 564 76 564 q 76 585 92 564 q 56 636 61 606 q 56 697 51 667 q 76 748 61 728 q 118 768 92 768 q 45 786 64 768 q 45 822 26 804 q 118 840 64 840 q 102 885 99 861 q 124 926 106 908 q 165 947 142 943 q 208 931 189 950 q 226 987 208 968 q 267 1006 243 1006 q 308 987 290 1006 q 325 931 325 968 q 375 945 351 950 q 413 922 399 940 q 423 878 426 903 q 393 835 419 854 q 444 815 426 835 q 461 768 461 794 q 444 722 461 742 q 393 703 426 703 q 463 689 446 703 q 463 661 481 675 q 393 647 446 647 q 440 631 425 647 q 456 594 456 615 q 440 558 456 574 q 393 542 425 542 q 453 517 433 542 q 474 461 474 493 q 453 405 474 429 q 393 381 433 381 q 458 363 442 381 q 458 326 474 344 q 393 308 442 308 q 435 288 419 308 q 456 238 451 268 q 456 176 461 207 q 435 125 451 146 q 393 104 419 104 q 402 62 408 82 q 378 29 396 42 q 339 18 360 17 q 303 42 318 19 q 284 -2 303 14 q 237 -24 265 -18 q 181 -23 208 -29 q 135 1 153 -17 q 118 49 117 19 m -43 1163 q -60 1187 -58 1168 q -55 1227 -62 1206 q -35 1263 -47 1249 q -7 1271 -22 1276 q 9 1301 -7 1290 q 46 1311 25 1311 q 83 1301 67 1311 q 99 1271 99 1290 q 121 1280 106 1282 q 152 1269 136 1278 q 177 1247 168 1260 q 179 1224 186 1235 q 208 1206 201 1224 q 208 1169 215 1188 q 179 1151 201 1151 q 205 1135 199 1151 q 205 1101 211 1118 q 179 1085 199 1085 q 177 1056 189 1069 q 148 1038 165 1042 q 121 1049 131 1033 q 99 1020 121 1028 q 48 1022 78 1013 q -8 1066 18 1032 q -43 1163 -33 1100 m 331 1146 q 315 1167 318 1147 q 315 1212 311 1188 q 328 1254 318 1236 q 350 1271 338 1272 q 369 1300 350 1290 q 414 1310 389 1310 q 458 1300 439 1310 q 478 1271 478 1290 q 506 1274 489 1281 q 537 1251 522 1267 q 558 1217 551 1235 q 553 1190 564 1200 q 576 1175 568 1190 q 585 1140 585 1160 q 576 1106 585 1121 q 553 1090 568 1090 q 545 1062 558 1075 q 510 1040 532 1049 q 469 1033 489 1032 q 444 1049 450 1033 q 431 1027 444 1033 q 397 1029 417 1021 q 358 1066 376 1038 q 331 1146 340 1094 z "},"İ":{"ha":511,"x_min":26,"x_max":481,"o":"m 118 49 q 73 70 90 49 q 50 124 56 92 q 50 189 44 157 q 73 242 56 221 q 118 264 90 264 q 76 285 92 264 q 55 336 60 306 q 55 397 50 367 q 76 449 60 428 q 118 469 92 469 q 56 484 76 469 q 36 517 36 499 q 56 549 36 535 q 118 564 76 564 q 76 585 92 564 q 56 636 61 606 q 56 697 51 667 q 76 748 61 728 q 118 768 92 768 q 45 786 64 768 q 45 822 26 804 q 118 840 64 840 q 102 885 99 861 q 124 926 106 908 q 165 947 142 943 q 208 931 189 950 q 226 987 208 968 q 267 1006 243 1006 q 308 987 290 1006 q 325 931 325 968 q 375 945 351 950 q 413 922 399 940 q 423 878 426 903 q 393 835 419 854 q 444 815 426 835 q 461 768 461 794 q 444 722 461 742 q 393 703 426 703 q 463 689 446 703 q 463 661 481 675 q 393 647 446 647 q 440 631 425 647 q 456 594 456 615 q 440 558 456 574 q 393 542 425 542 q 453 517 433 542 q 474 461 474 493 q 453 405 474 429 q 393 381 433 381 q 458 363 442 381 q 458 326 474 344 q 393 308 442 308 q 435 288 419 308 q 456 238 451 268 q 456 176 461 207 q 435 125 451 146 q 393 104 419 104 q 402 62 408 82 q 378 29 396 42 q 339 18 360 17 q 303 42 318 19 q 284 -2 303 14 q 237 -24 265 -18 q 181 -23 208 -29 q 135 1 153 -17 q 118 49 117 19 m 136 1085 q 112 1099 119 1085 q 104 1132 104 1114 q 112 1165 104 1150 q 136 1179 119 1179 q 117 1202 121 1183 q 120 1242 114 1221 q 139 1278 126 1264 q 167 1288 151 1292 q 188 1311 167 1303 q 239 1319 210 1319 q 290 1311 268 1319 q 311 1288 311 1303 q 340 1294 321 1301 q 372 1270 360 1286 q 375 1240 385 1254 q 405 1226 394 1240 q 415 1193 415 1211 q 405 1160 415 1175 q 375 1146 394 1146 q 384 1122 386 1140 q 372 1085 382 1104 q 347 1054 361 1065 q 322 1049 333 1043 q 297 1022 322 1031 q 238 1017 272 1014 q 175 1036 204 1019 q 136 1085 146 1053 z "},"Ì":{"ha":511,"x_min":-90,"x_max":481,"o":"m 118 49 q 73 70 90 49 q 50 124 56 92 q 50 189 44 157 q 73 242 56 221 q 118 264 90 264 q 76 285 92 264 q 55 336 60 306 q 55 397 50 367 q 76 449 60 428 q 118 469 92 469 q 56 484 76 469 q 36 517 36 499 q 56 549 36 535 q 118 564 76 564 q 76 585 92 564 q 56 636 61 606 q 56 697 51 667 q 76 748 61 728 q 118 768 92 768 q 45 786 64 768 q 45 822 26 804 q 118 840 64 840 q 102 885 99 861 q 124 926 106 908 q 165 947 142 943 q 208 931 189 950 q 226 987 208 968 q 267 1006 243 1006 q 308 987 290 1006 q 325 931 325 968 q 375 945 351 950 q 413 922 399 940 q 423 878 426 903 q 393 835 419 854 q 444 815 426 835 q 461 768 461 794 q 444 722 461 742 q 393 703 426 703 q 463 689 446 703 q 463 661 481 675 q 393 647 446 647 q 440 631 425 647 q 456 594 456 615 q 440 558 456 574 q 393 542 425 542 q 453 517 433 542 q 474 461 474 493 q 453 405 474 429 q 393 381 433 381 q 458 363 442 381 q 458 326 474 344 q 393 308 442 308 q 435 288 419 308 q 456 238 451 268 q 456 176 461 207 q 435 125 451 146 q 393 104 419 104 q 402 62 408 82 q 378 29 396 42 q 339 18 360 17 q 303 42 318 19 q 284 -2 303 14 q 237 -24 265 -18 q 181 -23 208 -29 q 135 1 153 -17 q 118 49 117 19 m 150 1054 q 120 1043 139 1040 q 85 1058 101 1046 q 61 1088 68 1071 q 65 1119 54 1106 q 38 1106 53 1103 q 16 1124 22 1110 q 24 1156 10 1139 q -6 1149 14 1143 q -47 1172 -26 1156 q -77 1208 -67 1189 q -78 1239 -87 1226 q -87 1263 -90 1251 q -72 1279 -83 1275 q -47 1271 -60 1283 q -32 1294 -47 1286 q 3 1303 -17 1303 q 38 1294 22 1303 q 53 1271 53 1286 q 68 1299 53 1290 q 103 1308 83 1308 q 138 1299 122 1308 q 153 1271 153 1290 q 171 1296 156 1289 q 205 1299 186 1303 q 236 1285 224 1296 q 246 1256 249 1274 q 284 1264 265 1272 q 308 1236 303 1256 q 293 1200 313 1217 q 332 1204 311 1217 q 360 1169 353 1192 q 349 1132 367 1147 q 376 1110 369 1131 q 374 1068 382 1089 q 344 1049 365 1047 q 331 1013 344 1022 q 303 1013 317 1004 q 289 1049 289 1022 q 272 1026 289 1033 q 231 1018 256 1018 q 183 1027 206 1018 q 150 1054 161 1036 z "},"Ī":{"ha":511,"x_min":-72,"x_max":581,"o":"m 118 49 q 73 70 90 49 q 50 124 56 92 q 50 189 44 157 q 73 242 56 221 q 118 264 90 264 q 76 285 92 264 q 55 336 60 306 q 55 397 50 367 q 76 449 60 428 q 118 469 92 469 q 56 484 76 469 q 36 517 36 499 q 56 549 36 535 q 118 564 76 564 q 76 585 92 564 q 56 636 61 606 q 56 697 51 667 q 76 748 61 728 q 118 768 92 768 q 45 786 64 768 q 45 822 26 804 q 118 840 64 840 q 102 885 99 861 q 124 926 106 908 q 165 947 142 943 q 208 931 189 950 q 226 987 208 968 q 267 1006 243 1006 q 308 987 290 1006 q 325 931 325 968 q 375 945 351 950 q 413 922 399 940 q 423 878 426 903 q 393 835 419 854 q 444 815 426 835 q 461 768 461 794 q 444 722 461 742 q 393 703 426 703 q 463 689 446 703 q 463 661 481 675 q 393 647 446 647 q 440 631 425 647 q 456 594 456 615 q 440 558 456 574 q 393 542 425 542 q 453 517 433 542 q 474 461 474 493 q 453 405 474 429 q 393 381 433 381 q 458 363 442 381 q 458 326 474 344 q 393 308 442 308 q 435 288 419 308 q 456 238 451 268 q 456 176 461 207 q 435 125 451 146 q 393 104 419 104 q 402 62 408 82 q 378 29 396 42 q 339 18 360 17 q 303 42 318 19 q 284 -2 303 14 q 237 -24 265 -18 q 181 -23 208 -29 q 135 1 153 -17 q 118 49 117 19 m -32 1079 q -64 1099 -56 1079 q -64 1138 -72 1118 q -32 1157 -56 1157 q -51 1176 -47 1161 q -51 1209 -56 1192 q -34 1237 -46 1226 q -7 1243 -22 1247 q 15 1267 -7 1260 q 65 1275 36 1275 q 115 1267 93 1275 q 136 1243 136 1260 q 155 1274 136 1264 q 197 1283 174 1283 q 239 1274 221 1283 q 257 1243 257 1264 q 272 1270 257 1261 q 305 1279 286 1279 q 338 1270 324 1279 q 351 1243 351 1261 q 372 1272 351 1263 q 417 1281 392 1281 q 463 1272 443 1281 q 483 1243 483 1263 q 509 1242 494 1251 q 535 1215 524 1232 q 550 1182 547 1199 q 542 1157 553 1165 q 573 1136 565 1157 q 573 1094 581 1115 q 542 1074 565 1074 q 543 1043 551 1056 q 519 1031 535 1031 q 494 1049 504 1031 q 472 1022 494 1031 q 418 1014 449 1014 q 364 1022 388 1014 q 340 1049 340 1031 q 317 1023 340 1032 q 263 1014 293 1014 q 209 1023 232 1014 q 186 1049 186 1032 q 168 1021 186 1028 q 132 1021 150 1014 q 114 1049 114 1028 q 97 1020 114 1028 q 65 1020 81 1013 q 49 1049 49 1028 q 33 1022 49 1028 q -1 1030 18 1017 q -32 1079 -19 1043 z "},"Į":{"ha":511,"x_min":28,"x_max":479,"o":"m 308 -258 q 267 -306 289 -299 q 237 -292 246 -312 q 247 -229 228 -271 q 208 -221 226 -236 q 176 -178 189 -206 q 156 -121 163 -151 q 154 -65 150 -90 q 175 -31 158 -40 q 121 -35 142 -46 q 108 -24 111 -44 q 118 43 104 -4 q 47 60 65 43 q 47 93 29 76 q 118 110 65 110 q 60 125 75 110 q 60 156 46 140 q 118 171 75 171 q 67 192 86 171 q 42 246 49 214 q 42 310 36 278 q 67 365 49 343 q 118 386 86 386 q 46 407 64 386 q 46 449 28 428 q 118 469 64 469 q 69 491 85 469 q 53 541 53 513 q 69 592 53 569 q 118 614 85 614 q 76 634 92 614 q 54 683 60 654 q 54 742 49 713 q 76 792 60 772 q 118 813 92 813 q 69 831 85 813 q 53 874 53 850 q 69 916 53 897 q 118 935 85 935 q 138 1007 122 989 q 166 1007 153 1025 q 175 938 179 989 q 195 983 178 968 q 233 997 213 999 q 270 979 254 996 q 286 931 286 963 q 303 995 286 979 q 336 995 319 1011 q 353 931 353 979 q 399 931 379 942 q 426 901 418 921 q 427 861 435 882 q 393 829 419 840 q 454 807 439 829 q 454 763 469 785 q 393 740 439 740 q 442 725 425 740 q 458 689 458 710 q 442 652 458 668 q 393 636 425 636 q 446 614 426 636 q 472 560 465 592 q 472 496 479 528 q 446 442 465 464 q 393 419 426 419 q 447 394 429 419 q 464 337 464 369 q 447 279 464 304 q 393 254 429 254 q 435 233 419 254 q 456 182 451 213 q 456 121 461 151 q 435 69 451 90 q 393 49 419 49 q 400 -10 404 7 q 385 -15 396 -26 q 364 -60 382 -40 q 394 -115 390 -79 q 361 -179 397 -150 q 401 -184 388 -174 q 413 -211 415 -194 q 385 -242 410 -228 q 308 -258 360 -257 z "},"Ĩ":{"ha":511,"x_min":-36,"x_max":546,"o":"m 118 49 q 73 70 90 49 q 50 124 56 92 q 50 189 44 157 q 73 242 56 221 q 118 264 90 264 q 76 285 92 264 q 55 336 60 306 q 55 397 50 367 q 76 449 60 428 q 118 469 92 469 q 56 484 76 469 q 36 517 36 499 q 56 549 36 535 q 118 564 76 564 q 76 585 92 564 q 56 636 61 606 q 56 697 51 667 q 76 748 61 728 q 118 768 92 768 q 45 786 64 768 q 45 822 26 804 q 118 840 64 840 q 102 885 99 861 q 124 926 106 908 q 165 947 142 943 q 208 931 189 950 q 226 987 208 968 q 267 1006 243 1006 q 308 987 290 1006 q 325 931 325 968 q 375 945 351 950 q 413 922 399 940 q 423 878 426 903 q 393 835 419 854 q 444 815 426 835 q 461 768 461 794 q 444 722 461 742 q 393 703 426 703 q 463 689 446 703 q 463 661 481 675 q 393 647 446 647 q 440 631 425 647 q 456 594 456 615 q 440 558 456 574 q 393 542 425 542 q 453 517 433 542 q 474 461 474 493 q 453 405 474 429 q 393 381 433 381 q 458 363 442 381 q 458 326 474 344 q 393 308 442 308 q 435 288 419 308 q 456 238 451 268 q 456 176 461 207 q 435 125 451 146 q 393 104 419 104 q 402 62 408 82 q 378 29 396 42 q 339 18 360 17 q 303 42 318 19 q 284 -2 303 14 q 237 -24 265 -18 q 181 -23 208 -29 q 135 1 153 -17 q 118 49 117 19 m 325 1043 q 302 1028 321 1029 q 261 1033 283 1026 q 221 1051 239 1039 q 197 1076 203 1063 q 174 1049 193 1061 q 133 1031 156 1036 q 90 1028 110 1025 q 65 1049 71 1032 q 42 1019 63 1025 q 1 1022 21 1013 q -17 1056 -19 1032 q -35 1085 -33 1060 q -28 1142 -36 1111 q -5 1194 -19 1172 q 25 1211 10 1215 q 22 1247 11 1228 q 55 1273 33 1265 q 90 1264 76 1281 q 115 1282 90 1276 q 170 1286 139 1288 q 225 1276 201 1285 q 249 1256 249 1268 q 272 1279 251 1274 q 317 1280 293 1285 q 353 1261 340 1275 q 360 1285 350 1276 q 385 1292 371 1294 q 411 1271 400 1290 q 425 1306 411 1297 q 453 1306 439 1315 q 467 1271 467 1297 q 496 1280 476 1286 q 527 1258 515 1274 q 529 1228 539 1242 q 544 1197 546 1221 q 532 1145 543 1172 q 503 1101 521 1118 q 469 1092 486 1083 q 460 1060 476 1075 q 419 1036 444 1046 q 367 1027 393 1026 q 325 1043 340 1028 z "},"J":{"ha":975,"x_min":14,"x_max":951,"o":"m 321 43 q 285 20 311 22 q 230 28 260 18 q 175 58 200 39 q 138 99 150 76 q 136 140 125 121 q 89 147 113 129 q 50 197 65 165 q 35 258 35 228 q 57 299 35 288 q 24 358 14 350 q 78 315 35 367 q 93 372 78 358 q 124 372 108 386 q 139 315 139 358 q 159 377 139 357 q 206 397 179 397 q 252 377 232 397 q 272 315 272 357 q 308 338 285 335 q 355 331 331 340 q 399 303 379 321 q 425 263 419 285 q 450 297 433 288 q 483 299 467 306 q 506 353 486 328 q 554 381 526 378 q 510 424 518 393 q 522 481 503 454 q 589 507 542 507 q 535 527 553 507 q 517 573 517 547 q 535 619 517 599 q 589 639 553 639 q 543 644 561 639 q 518 658 525 650 q 514 669 513 661 l 514 671 q 457 676 486 661 q 428 732 428 692 q 406 669 428 685 q 362 669 383 653 q 340 732 340 685 q 316 682 340 699 q 260 665 292 665 q 203 682 228 665 q 179 732 179 699 q 133 737 153 724 q 105 774 113 750 q 105 822 97 799 q 139 853 113 844 q 112 897 114 875 q 124 935 110 919 q 160 951 138 950 q 207 931 182 951 q 232 984 207 967 q 290 1001 257 1001 q 347 984 322 1001 q 372 931 372 967 q 394 974 372 958 q 448 996 415 990 q 513 996 481 1001 q 566 974 544 990 q 588 931 588 958 q 603 981 588 964 q 640 997 619 997 q 677 981 661 997 q 693 931 693 964 q 709 988 693 968 q 745 1007 725 1007 q 781 989 765 1007 q 797 933 797 971 q 812 992 796 976 q 845 993 828 1007 q 865 935 863 979 q 913 910 897 935 q 929 851 929 885 q 913 793 929 818 q 865 768 897 768 q 934 753 917 768 q 934 722 951 738 q 865 707 917 707 q 920 682 901 707 q 939 624 939 657 q 920 567 939 592 q 865 542 901 542 q 921 514 903 542 q 939 450 939 486 q 921 386 939 414 q 865 358 903 358 q 915 332 900 353 q 925 287 929 311 q 901 247 921 263 q 846 239 881 232 q 863 198 864 222 q 848 149 863 174 q 811 105 833 124 q 765 81 789 86 q 724 90 742 75 q 717 34 735 58 q 670 -1 700 10 q 611 -3 640 -11 q 571 38 582 4 q 541 -22 575 -6 q 449 -23 507 -37 q 321 43 392 -8 z "},"Ĵ":{"ha":975,"x_min":14,"x_max":951,"o":"m 321 43 q 285 20 311 22 q 230 28 260 18 q 175 58 200 39 q 138 99 150 76 q 136 140 125 121 q 89 147 113 129 q 50 197 65 165 q 35 258 35 228 q 57 299 35 288 q 24 358 14 350 q 78 315 35 367 q 93 372 78 358 q 124 372 108 386 q 139 315 139 358 q 159 377 139 357 q 206 397 179 397 q 252 377 232 397 q 272 315 272 357 q 308 338 285 335 q 355 331 331 340 q 399 303 379 321 q 425 263 419 285 q 450 297 433 288 q 483 299 467 306 q 506 353 486 328 q 554 381 526 378 q 510 424 518 393 q 522 481 503 454 q 589 507 542 507 q 535 527 553 507 q 517 573 517 547 q 535 619 517 599 q 589 639 553 639 q 543 644 561 639 q 518 658 525 650 q 514 669 513 661 l 514 671 q 457 676 486 661 q 428 732 428 692 q 406 669 428 685 q 362 669 383 653 q 340 732 340 685 q 316 682 340 699 q 260 665 292 665 q 203 682 228 665 q 179 732 179 699 q 133 737 153 724 q 105 774 113 750 q 105 822 97 799 q 139 853 113 844 q 112 897 114 875 q 124 935 110 919 q 160 951 138 950 q 207 931 182 951 q 232 984 207 967 q 290 1001 257 1001 q 347 984 322 1001 q 372 931 372 967 q 394 974 372 958 q 448 996 415 990 q 513 996 481 1001 q 566 974 544 990 q 588 931 588 958 q 603 981 588 964 q 640 997 619 997 q 677 981 661 997 q 693 931 693 964 q 709 988 693 968 q 745 1007 725 1007 q 781 989 765 1007 q 797 933 797 971 q 812 992 796 976 q 845 993 828 1007 q 865 935 863 979 q 913 910 897 935 q 929 851 929 885 q 913 793 929 818 q 865 768 897 768 q 934 753 917 768 q 934 722 951 738 q 865 707 917 707 q 920 682 901 707 q 939 624 939 657 q 920 567 939 592 q 865 542 901 542 q 921 514 903 542 q 939 450 939 486 q 921 386 939 414 q 865 358 903 358 q 915 332 900 353 q 925 287 929 311 q 901 247 921 263 q 846 239 881 232 q 863 198 864 222 q 848 149 863 174 q 811 105 833 124 q 765 81 789 86 q 724 90 742 75 q 717 34 735 58 q 670 -1 700 10 q 611 -3 640 -11 q 571 38 582 4 q 541 -22 575 -6 q 449 -23 507 -37 q 321 43 392 -8 m 219 1058 q 206 1089 204 1069 q 222 1126 208 1108 q 253 1151 236 1143 q 286 1146 271 1158 q 277 1175 274 1158 q 294 1206 281 1192 q 324 1226 307 1221 q 353 1219 340 1231 q 356 1247 346 1232 q 385 1272 367 1261 q 422 1283 404 1282 q 447 1271 440 1283 q 469 1298 447 1289 q 521 1307 492 1307 q 572 1298 550 1307 q 594 1271 594 1289 q 619 1283 603 1285 q 653 1272 636 1282 q 678 1247 669 1263 q 678 1219 686 1232 q 706 1225 690 1231 q 735 1205 722 1219 q 753 1174 749 1190 q 744 1146 757 1157 q 770 1135 760 1149 q 785 1103 781 1122 q 784 1068 789 1085 q 764 1049 779 1051 q 749 1019 764 1026 q 719 1019 735 1011 q 704 1049 704 1026 q 679 1031 699 1033 q 636 1034 660 1028 q 594 1053 613 1040 q 575 1082 576 1067 q 547 1060 569 1068 q 499 1050 525 1051 q 451 1056 472 1049 q 431 1078 431 1063 q 413 1049 433 1061 q 365 1032 393 1038 q 315 1030 338 1026 q 288 1049 292 1033 q 274 1016 288 1024 q 243 1018 260 1008 q 219 1058 226 1028 z "},"K":{"ha":993,"x_min":33,"x_max":997,"o":"m 118 243 q 56 260 76 243 q 36 301 36 278 q 56 341 36 324 q 118 358 76 358 q 66 387 83 358 q 49 453 49 415 q 66 519 49 490 q 118 547 83 547 q 67 567 86 547 q 40 615 47 586 q 40 673 33 644 q 67 721 47 701 q 118 740 86 740 q 59 758 79 740 q 39 797 39 775 q 59 835 39 818 q 118 851 79 851 q 101 890 99 869 q 117 926 103 911 q 152 945 132 942 q 192 931 172 949 q 224 990 194 971 q 289 1006 253 1008 q 351 981 325 1003 q 375 918 378 958 q 421 897 406 918 q 436 849 436 876 q 421 801 436 822 q 375 781 406 781 q 432 767 417 781 q 436 742 447 754 q 486 740 464 753 q 480 786 474 758 q 503 840 486 814 q 542 878 519 865 q 586 879 564 890 q 583 922 574 903 q 611 951 592 942 q 651 958 631 961 q 683 931 672 954 q 710 985 683 965 q 772 1006 736 1004 q 838 995 807 1008 q 878 951 868 982 q 889 1012 871 1014 q 921 938 907 1010 q 954 900 949 921 q 950 863 960 879 q 919 841 940 846 q 869 853 897 836 q 900 810 897 836 q 888 759 903 783 q 849 724 874 735 q 797 729 824 713 q 833 683 828 711 q 823 631 838 656 q 781 597 808 606 q 724 607 754 588 q 761 559 757 588 q 749 511 765 531 q 761 472 767 499 q 715 421 756 444 q 770 429 743 438 q 819 397 797 421 q 851 343 840 374 q 856 285 861 313 q 822 240 850 257 q 890 265 868 268 q 904 240 913 261 q 851 193 896 219 q 905 200 879 210 q 945 165 931 190 q 956 113 960 140 q 925 69 953 86 q 997 60 996 74 q 926 42 997 46 q 906 -7 926 11 q 854 -31 885 -25 q 793 -31 824 -37 q 742 -7 763 -25 q 721 42 721 11 q 682 13 708 15 q 631 22 656 10 q 592 58 606 35 q 593 106 579 81 q 549 109 572 94 q 507 151 525 124 q 481 209 489 179 q 483 258 474 239 q 429 251 458 240 q 432 193 436 224 q 414 141 428 163 q 375 119 400 119 q 390 78 393 100 q 371 40 388 56 q 332 24 354 25 q 290 42 310 22 q 273 -1 290 14 q 229 -12 256 -15 q 177 18 203 -8 q 134 99 151 44 q 118 243 117 154 m 410 729 q 413 729 411 729 q 415 731 414 729 l 410 729 z "},"Ķ":{"ha":993,"x_min":33,"x_max":997,"o":"m 118 243 q 56 260 76 243 q 36 301 36 278 q 56 341 36 324 q 118 358 76 358 q 66 387 83 358 q 49 453 49 415 q 66 519 49 490 q 118 547 83 547 q 67 567 86 547 q 40 615 47 586 q 40 673 33 644 q 67 721 47 701 q 118 740 86 740 q 59 758 79 740 q 39 797 39 775 q 59 835 39 818 q 118 851 79 851 q 101 890 99 869 q 117 926 103 911 q 152 945 132 942 q 192 931 172 949 q 224 990 194 971 q 289 1006 253 1008 q 351 981 325 1003 q 375 918 378 958 q 421 897 406 918 q 436 849 436 876 q 421 801 436 822 q 375 781 406 781 q 432 767 417 781 q 436 742 447 754 q 486 740 464 753 q 480 786 474 758 q 503 840 486 814 q 542 878 519 865 q 586 879 564 890 q 583 922 574 903 q 611 951 592 942 q 651 958 631 961 q 683 931 672 954 q 710 985 683 965 q 772 1006 736 1004 q 838 995 807 1008 q 878 951 868 982 q 889 1012 871 1014 q 921 938 907 1010 q 954 900 949 921 q 950 863 960 879 q 919 841 940 846 q 869 853 897 836 q 900 810 897 836 q 888 759 903 783 q 849 724 874 735 q 797 729 824 713 q 833 683 828 711 q 823 631 838 656 q 781 597 808 606 q 724 607 754 588 q 761 559 757 588 q 749 511 765 531 q 761 472 767 499 q 715 421 756 444 q 770 429 743 438 q 819 397 797 421 q 851 343 840 374 q 856 285 861 313 q 822 240 850 257 q 890 265 868 268 q 904 240 913 261 q 851 193 896 219 q 905 200 879 210 q 945 165 931 190 q 956 113 960 140 q 925 69 953 86 q 997 60 996 74 q 926 42 997 46 q 906 -7 926 11 q 854 -31 885 -25 q 793 -31 824 -37 q 742 -7 763 -25 q 721 42 721 11 q 682 13 708 15 q 631 22 656 10 q 592 58 606 35 q 593 106 579 81 q 549 109 572 94 q 507 151 525 124 q 481 209 489 179 q 483 258 474 239 q 429 251 458 240 q 432 193 436 224 q 414 141 428 163 q 375 119 400 119 q 390 78 393 100 q 371 40 388 56 q 332 24 354 25 q 290 42 310 22 q 273 -1 290 14 q 229 -12 256 -15 q 177 18 203 -8 q 134 99 151 44 q 118 243 117 154 m 410 729 q 413 729 411 729 q 415 731 414 729 l 410 729 m 333 -226 q 307 -208 314 -224 q 303 -173 300 -192 q 317 -141 306 -154 q 347 -131 329 -128 q 348 -104 340 -118 q 372 -79 356 -90 q 405 -66 389 -68 q 429 -76 421 -64 q 448 -51 429 -60 q 492 -42 467 -42 q 537 -51 518 -42 q 556 -76 556 -60 q 586 -47 564 -50 q 626 -59 608 -44 q 635 -100 643 -74 q 657 -127 654 -107 q 651 -169 660 -147 q 628 -203 643 -190 q 593 -208 613 -215 q 610 -233 608 -215 q 605 -269 613 -250 q 583 -301 597 -289 q 554 -306 569 -312 q 543 -332 558 -319 q 504 -351 528 -344 q 461 -356 481 -358 q 438 -340 442 -354 q 423 -362 438 -357 q 389 -358 408 -368 q 353 -317 369 -349 q 333 -226 338 -286 z "},"L":{"ha":869,"x_min":35,"x_max":881,"o":"m 118 210 q 51 224 68 210 q 51 251 35 238 q 118 264 68 264 q 60 282 79 264 q 40 323 40 300 q 60 363 40 346 q 118 381 79 381 q 63 396 81 381 q 44 431 44 411 q 63 465 44 450 q 118 481 81 481 q 67 501 85 481 q 50 550 50 522 q 67 599 50 578 q 118 619 85 619 q 53 639 69 619 q 53 678 36 658 q 118 697 69 697 q 56 715 76 697 q 36 755 36 732 q 56 795 36 778 q 118 813 76 813 q 90 847 94 824 q 97 892 86 869 q 126 928 107 915 q 169 931 146 940 q 190 980 169 964 q 239 996 211 996 q 288 980 267 996 q 308 931 308 964 q 343 953 324 951 q 378 944 363 956 q 398 914 393 933 q 388 874 403 894 q 442 849 424 874 q 461 794 461 825 q 442 738 461 763 q 388 714 424 714 q 440 690 422 714 q 457 636 457 667 q 440 582 457 606 q 388 558 422 558 q 450 544 435 558 q 450 517 465 531 q 388 503 435 503 q 453 485 435 503 q 459 447 471 467 q 407 421 447 426 q 465 386 444 419 q 482 318 485 353 q 539 319 510 325 q 588 294 568 314 q 608 243 608 275 q 628 292 608 274 q 677 315 649 310 q 735 315 706 321 q 783 292 764 310 q 803 243 803 274 q 858 232 839 246 q 879 198 878 218 q 863 161 881 178 q 810 143 846 144 q 830 97 832 122 q 810 52 828 72 q 767 27 792 32 q 719 42 742 22 q 696 -8 719 8 q 642 -24 672 -24 q 588 -8 611 -24 q 564 42 564 8 q 538 -11 564 7 q 478 -29 513 -29 q 417 -11 443 -29 q 392 42 392 7 q 367 -11 392 7 q 308 -29 342 -29 q 250 -11 275 -29 q 225 42 225 7 q 208 -17 225 0 q 170 -19 192 -35 q 133 51 149 -4 q 118 210 117 106 z "},"Ĺ":{"ha":869,"x_min":35,"x_max":881,"o":"m 118 210 q 51 224 68 210 q 51 251 35 238 q 118 264 68 264 q 60 282 79 264 q 40 323 40 300 q 60 363 40 346 q 118 381 79 381 q 63 396 81 381 q 44 431 44 411 q 63 465 44 450 q 118 481 81 481 q 67 501 85 481 q 50 550 50 522 q 67 599 50 578 q 118 619 85 619 q 53 639 69 619 q 53 678 36 658 q 118 697 69 697 q 56 715 76 697 q 36 755 36 732 q 56 795 36 778 q 118 813 76 813 q 90 847 94 824 q 97 892 86 869 q 126 928 107 915 q 169 931 146 940 q 190 980 169 964 q 239 996 211 996 q 288 980 267 996 q 308 931 308 964 q 343 953 324 951 q 378 944 363 956 q 398 914 393 933 q 388 874 403 894 q 442 849 424 874 q 461 794 461 825 q 442 738 461 763 q 388 714 424 714 q 440 690 422 714 q 457 636 457 667 q 440 582 457 606 q 388 558 422 558 q 450 544 435 558 q 450 517 465 531 q 388 503 435 503 q 453 485 435 503 q 459 447 471 467 q 407 421 447 426 q 465 386 444 419 q 482 318 485 353 q 539 319 510 325 q 588 294 568 314 q 608 243 608 275 q 628 292 608 274 q 677 315 649 310 q 735 315 706 321 q 783 292 764 310 q 803 243 803 274 q 858 232 839 246 q 879 198 878 218 q 863 161 881 178 q 810 143 846 144 q 830 97 832 122 q 810 52 828 72 q 767 27 792 32 q 719 42 742 22 q 696 -8 719 8 q 642 -24 672 -24 q 588 -8 611 -24 q 564 42 564 8 q 538 -11 564 7 q 478 -29 513 -29 q 417 -11 443 -29 q 392 42 392 7 q 367 -11 392 7 q 308 -29 342 -29 q 250 -11 275 -29 q 225 42 225 7 q 208 -17 225 0 q 170 -19 192 -35 q 133 51 149 -4 q 118 210 117 106 m 143 1129 q 135 1159 129 1139 q 156 1199 140 1179 q 191 1228 172 1218 q 224 1226 210 1238 q 225 1260 211 1243 q 260 1283 239 1278 q 292 1271 281 1289 q 316 1294 292 1286 q 372 1303 340 1303 q 428 1294 404 1303 q 453 1271 453 1286 q 472 1302 453 1294 q 511 1302 492 1310 q 531 1271 531 1294 q 555 1294 540 1293 q 578 1284 569 1296 q 578 1250 588 1272 q 589 1217 594 1233 q 567 1197 583 1201 q 535 1207 551 1192 q 541 1176 549 1192 q 517 1157 533 1161 q 489 1169 501 1153 q 492 1136 500 1154 q 467 1103 485 1118 q 431 1085 450 1089 q 399 1096 411 1081 q 406 1065 413 1079 q 383 1047 399 1050 q 354 1060 368 1043 q 341 1033 357 1043 q 303 1022 325 1024 q 263 1026 281 1019 q 243 1049 246 1032 q 224 1021 243 1029 q 181 1020 204 1013 q 144 1053 158 1028 q 143 1129 131 1079 z "},"Ľ":{"ha":869,"x_min":35,"x_max":881,"o":"m 118 210 q 51 224 68 210 q 51 251 35 238 q 118 264 68 264 q 60 282 79 264 q 40 323 40 300 q 60 363 40 346 q 118 381 79 381 q 63 396 81 381 q 44 431 44 411 q 63 465 44 450 q 118 481 81 481 q 67 501 85 481 q 50 550 50 522 q 67 599 50 578 q 118 619 85 619 q 53 639 69 619 q 53 678 36 658 q 118 697 69 697 q 56 715 76 697 q 36 755 36 732 q 56 795 36 778 q 118 813 76 813 q 90 847 94 824 q 97 892 86 869 q 126 928 107 915 q 169 931 146 940 q 190 980 169 964 q 239 996 211 996 q 288 980 267 996 q 308 931 308 964 q 343 953 324 951 q 378 944 363 956 q 398 914 393 933 q 388 874 403 894 q 442 849 424 874 q 461 794 461 825 q 442 738 461 763 q 388 714 424 714 q 440 690 422 714 q 457 636 457 667 q 440 582 457 606 q 388 558 422 558 q 450 544 435 558 q 450 517 465 531 q 388 503 435 503 q 453 485 435 503 q 459 447 471 467 q 407 421 447 426 q 465 386 444 419 q 482 318 485 353 q 539 319 510 325 q 588 294 568 314 q 608 243 608 275 q 628 292 608 274 q 677 315 649 310 q 735 315 706 321 q 783 292 764 310 q 803 243 803 274 q 858 232 839 246 q 879 198 878 218 q 863 161 881 178 q 810 143 846 144 q 830 97 832 122 q 810 52 828 72 q 767 27 792 32 q 719 42 742 22 q 696 -8 719 8 q 642 -24 672 -24 q 588 -8 611 -24 q 564 42 564 8 q 538 -11 564 7 q 478 -29 513 -29 q 417 -11 443 -29 q 392 42 392 7 q 367 -11 392 7 q 308 -29 342 -29 q 250 -11 275 -29 q 225 42 225 7 q 208 -17 225 0 q 170 -19 192 -35 q 133 51 149 -4 q 118 210 117 106 m 525 654 q 499 679 506 657 q 496 729 492 701 q 513 776 500 757 q 546 792 526 794 q 543 820 536 800 q 567 860 550 840 q 601 892 583 881 q 629 894 619 903 q 644 930 629 921 q 675 930 660 939 q 690 894 690 921 q 708 930 690 921 q 744 930 726 939 q 763 894 763 921 q 792 905 774 910 q 820 885 810 900 q 819 854 831 869 q 845 822 844 844 q 830 784 846 800 q 789 778 814 768 q 812 752 808 771 q 808 715 815 733 q 785 685 800 696 q 751 681 769 674 q 745 656 757 669 q 713 633 733 643 q 675 621 693 622 q 651 631 657 619 q 635 603 651 613 q 597 597 619 594 q 554 613 575 599 q 525 654 533 626 z "},"Ļ":{"ha":869,"x_min":35,"x_max":881,"o":"m 118 210 q 51 224 68 210 q 51 251 35 238 q 118 264 68 264 q 60 282 79 264 q 40 323 40 300 q 60 363 40 346 q 118 381 79 381 q 63 396 81 381 q 44 431 44 411 q 63 465 44 450 q 118 481 81 481 q 67 501 85 481 q 50 550 50 522 q 67 599 50 578 q 118 619 85 619 q 53 639 69 619 q 53 678 36 658 q 118 697 69 697 q 56 715 76 697 q 36 755 36 732 q 56 795 36 778 q 118 813 76 813 q 90 847 94 824 q 97 892 86 869 q 126 928 107 915 q 169 931 146 940 q 190 980 169 964 q 239 996 211 996 q 288 980 267 996 q 308 931 308 964 q 343 953 324 951 q 378 944 363 956 q 398 914 393 933 q 388 874 403 894 q 442 849 424 874 q 461 794 461 825 q 442 738 461 763 q 388 714 424 714 q 440 690 422 714 q 457 636 457 667 q 440 582 457 606 q 388 558 422 558 q 450 544 435 558 q 450 517 465 531 q 388 503 435 503 q 453 485 435 503 q 459 447 471 467 q 407 421 447 426 q 465 386 444 419 q 482 318 485 353 q 539 319 510 325 q 588 294 568 314 q 608 243 608 275 q 628 292 608 274 q 677 315 649 310 q 735 315 706 321 q 783 292 764 310 q 803 243 803 274 q 858 232 839 246 q 879 198 878 218 q 863 161 881 178 q 810 143 846 144 q 830 97 832 122 q 810 52 828 72 q 767 27 792 32 q 719 42 742 22 q 696 -8 719 8 q 642 -24 672 -24 q 588 -8 611 -24 q 564 42 564 8 q 538 -11 564 7 q 478 -29 513 -29 q 417 -11 443 -29 q 392 42 392 7 q 367 -11 392 7 q 308 -29 342 -29 q 250 -11 275 -29 q 225 42 225 7 q 208 -17 225 0 q 170 -19 192 -35 q 133 51 149 -4 q 118 210 117 106 m 271 -226 q 244 -208 251 -224 q 240 -173 238 -192 q 255 -141 243 -154 q 285 -131 267 -128 q 285 -104 278 -118 q 310 -79 293 -90 q 342 -66 326 -68 q 367 -76 358 -64 q 385 -51 367 -60 q 430 -42 404 -42 q 474 -51 456 -42 q 493 -76 493 -60 q 524 -47 501 -50 q 563 -59 546 -44 q 572 -100 581 -74 q 594 -127 592 -107 q 589 -169 597 -147 q 565 -203 581 -190 q 531 -208 550 -215 q 548 -233 546 -215 q 542 -269 550 -250 q 521 -301 535 -289 q 492 -306 507 -312 q 481 -332 496 -319 q 442 -351 465 -344 q 399 -356 418 -358 q 375 -340 379 -354 q 360 -362 375 -357 q 326 -358 346 -368 q 291 -317 307 -349 q 271 -226 275 -286 z "},"Ŀ":{"ha":874,"x_min":35,"x_max":881,"o":"m 118 210 q 51 224 68 210 q 51 251 35 238 q 118 264 68 264 q 60 282 79 264 q 40 323 40 300 q 60 363 40 346 q 118 381 79 381 q 63 396 81 381 q 44 431 44 411 q 63 465 44 450 q 118 481 81 481 q 67 501 85 481 q 50 550 50 522 q 67 599 50 578 q 118 619 85 619 q 53 639 69 619 q 53 678 36 658 q 118 697 69 697 q 56 715 76 697 q 36 755 36 732 q 56 795 36 778 q 118 813 76 813 q 90 847 94 824 q 97 892 86 869 q 126 928 107 915 q 169 931 146 940 q 190 980 169 964 q 239 996 211 996 q 288 980 267 996 q 308 931 308 964 q 343 953 324 951 q 378 944 363 956 q 398 914 393 933 q 388 874 403 894 q 442 849 424 874 q 461 794 461 825 q 442 738 461 763 q 388 714 424 714 q 440 690 422 714 q 457 636 457 667 q 440 582 457 606 q 388 558 422 558 q 450 544 435 558 q 450 517 465 531 q 388 503 435 503 q 453 485 435 503 q 459 447 471 467 q 407 421 447 426 q 465 386 444 419 q 482 318 485 353 q 539 319 510 325 q 588 294 568 314 q 608 243 608 275 q 628 292 608 274 q 677 315 649 310 q 735 315 706 321 q 783 292 764 310 q 803 243 803 274 q 858 232 839 246 q 879 198 878 218 q 863 161 881 178 q 810 143 846 144 q 830 97 832 122 q 810 52 828 72 q 767 27 792 32 q 719 42 742 22 q 696 -8 719 8 q 642 -24 672 -24 q 588 -8 611 -24 q 564 42 564 8 q 538 -11 564 7 q 478 -29 513 -29 q 417 -11 443 -29 q 392 42 392 7 q 367 -11 392 7 q 308 -29 342 -29 q 250 -11 275 -29 q 225 42 225 7 q 208 -17 225 0 q 170 -19 192 -35 q 133 51 149 -4 q 118 210 117 106 m 599 525 q 558 542 572 525 q 544 583 544 560 q 558 623 544 606 q 599 640 572 640 q 623 676 599 664 q 679 688 647 688 q 736 678 711 689 q 761 643 761 667 q 797 632 783 646 q 814 598 811 618 q 807 561 817 578 q 775 542 797 544 q 816 525 806 542 q 816 492 826 508 q 775 475 806 475 q 750 431 776 446 q 688 420 724 417 q 626 449 653 424 q 599 525 599 474 z "},"Ł":{"ha":881,"x_min":-3,"x_max":906,"o":"m 129 153 q 74 181 93 153 q 52 246 54 208 q 67 313 50 283 q 60 328 63 319 q 11 358 25 332 q 1 417 -3 385 q 25 472 6 450 q 79 490 44 494 q 44 529 50 506 q 49 572 38 553 q 85 596 61 592 q 58 624 61 607 q 72 656 54 642 q 129 671 90 671 q 78 699 96 671 q 61 765 61 728 q 78 830 61 801 q 129 858 96 858 q 108 899 108 878 q 122 933 108 919 q 156 949 135 947 q 197 931 176 950 q 218 993 197 978 q 260 993 239 1008 q 281 931 281 978 q 313 968 290 960 q 359 969 336 976 q 395 940 382 961 q 399 890 408 919 q 451 876 433 890 q 468 842 468 861 q 451 807 468 822 q 399 792 433 792 q 460 769 443 792 q 468 726 478 747 q 479 717 474 722 q 514 719 493 728 q 549 675 535 710 q 539 738 533 714 q 562 769 544 763 q 600 763 579 776 q 636 710 621 749 q 687 695 669 713 q 706 653 704 678 q 692 610 707 629 q 644 588 678 590 q 656 533 661 556 q 633 499 650 510 q 593 494 615 488 q 554 528 571 500 q 555 470 568 499 q 514 424 542 442 q 457 406 486 406 q 466 364 468 386 q 450 325 464 342 q 486 308 482 329 q 542 314 511 318 q 593 292 572 310 q 614 243 614 275 q 635 283 614 268 q 688 303 657 299 q 751 303 719 308 q 803 283 782 299 q 825 243 825 268 q 886 219 867 242 q 905 169 906 197 q 883 119 904 140 q 821 99 863 97 q 839 51 840 72 q 823 19 838 31 q 788 13 808 8 q 747 42 767 17 q 724 -14 747 4 q 669 -32 700 -32 q 615 -14 639 -32 q 592 42 592 4 q 569 -1 592 15 q 515 -22 547 -17 q 451 -22 483 -26 q 397 -1 419 -17 q 375 42 375 15 q 361 -15 375 -1 q 333 -15 347 -29 q 319 42 319 -1 q 300 -10 319 8 q 251 -31 281 -29 q 194 -13 222 -32 q 147 47 165 6 q 129 153 128 88 z "},"M":{"ha":1189,"x_min":31,"x_max":1161,"o":"m 118 221 q 56 247 76 221 q 36 309 36 274 q 56 371 36 344 q 118 397 76 397 q 78 418 93 397 q 57 469 63 439 q 57 531 51 500 q 78 582 63 561 q 118 603 93 603 q 58 630 78 603 q 38 694 38 657 q 58 758 38 731 q 118 785 78 785 q 48 806 65 785 q 48 847 31 826 q 118 868 65 868 q 60 885 75 868 q 60 918 46 901 q 118 935 75 935 q 142 984 119 968 q 192 999 164 1000 q 242 981 221 999 q 263 931 263 964 q 294 959 272 954 q 338 955 315 964 q 372 927 360 946 q 374 885 383 908 q 431 895 406 903 q 471 865 457 888 q 479 817 485 843 q 443 771 474 790 q 505 791 483 796 q 521 765 526 786 q 474 719 515 744 q 538 729 511 742 q 572 689 565 717 q 554 635 579 661 q 597 639 575 647 q 633 669 610 660 q 681 663 656 678 q 642 706 649 682 q 647 748 635 729 q 683 771 658 767 q 738 757 707 775 q 698 799 706 776 q 700 838 690 821 q 733 858 710 854 q 789 842 757 861 q 749 886 757 863 q 751 926 740 910 q 787 946 763 943 q 844 928 811 949 q 864 978 843 961 q 912 997 885 996 q 960 981 939 997 q 982 931 981 964 q 1014 959 994 954 q 1051 955 1033 964 q 1076 927 1068 946 q 1071 885 1083 908 q 1139 864 1122 885 q 1139 822 1156 843 q 1071 801 1122 801 q 1135 782 1119 801 q 1135 743 1151 763 q 1071 724 1119 724 q 1126 702 1113 724 q 1126 658 1140 681 q 1071 636 1113 636 q 1120 615 1101 636 q 1145 564 1139 594 q 1145 503 1151 533 q 1120 451 1139 472 q 1071 431 1101 431 q 1121 415 1104 431 q 1138 381 1138 400 q 1121 346 1138 361 q 1071 331 1104 331 q 1119 309 1101 331 q 1144 256 1138 288 q 1144 191 1150 224 q 1119 137 1138 158 q 1071 115 1101 115 q 1143 101 1125 115 q 1143 74 1161 88 q 1071 60 1125 60 q 1056 3 1075 24 q 1008 -22 1036 -18 q 956 -10 979 -25 q 928 42 932 6 q 896 4 917 13 q 855 4 875 -4 q 826 33 835 13 q 828 82 817 53 q 758 99 775 82 q 758 131 740 115 q 828 147 775 147 q 769 174 789 147 q 747 238 749 201 q 761 303 744 274 q 814 339 778 333 q 772 363 783 339 q 750 371 758 357 q 715 385 733 374 q 738 343 739 368 q 722 297 738 318 q 684 267 707 275 q 638 275 661 258 q 594 252 624 251 q 535 270 565 253 q 490 312 506 288 q 488 361 474 336 q 465 350 476 354 q 440 317 457 331 q 404 301 424 303 q 427 264 425 288 q 413 222 429 240 q 361 203 396 203 q 422 183 407 203 q 422 145 438 164 q 361 126 407 126 q 415 88 406 114 q 403 46 424 63 q 338 42 383 29 q 315 -12 338 6 q 264 -31 293 -31 q 213 -12 235 -31 q 190 42 190 6 q 179 -16 190 1 q 153 -17 168 -33 q 127 56 138 -1 q 118 221 117 113 z "},"N":{"ha":1028,"x_min":29,"x_max":993,"o":"m 118 88 q 47 107 65 88 q 47 146 29 126 q 118 165 65 165 q 61 190 81 165 q 42 248 42 215 q 61 306 42 281 q 118 331 81 331 q 58 353 78 331 q 38 403 38 375 q 58 453 38 432 q 118 475 78 475 q 64 494 82 475 q 46 539 46 514 q 64 583 46 564 q 118 603 82 603 q 58 624 78 603 q 38 672 38 644 q 58 719 38 699 q 118 740 78 740 q 67 764 85 740 q 50 818 50 788 q 67 872 50 849 q 118 896 85 896 q 125 946 110 926 q 165 972 140 965 q 214 969 190 979 q 246 931 238 960 q 261 999 246 982 q 291 999 276 1017 q 306 931 306 982 q 349 958 326 956 q 388 946 372 960 q 407 909 404 932 q 389 861 410 886 q 442 877 419 881 q 474 857 464 874 q 478 818 485 840 q 440 778 471 796 q 492 781 467 793 q 533 744 517 769 q 547 690 549 718 q 521 646 546 663 q 555 653 538 657 q 585 636 572 649 q 621 643 601 647 q 622 694 610 667 q 667 721 633 721 q 608 740 622 721 q 608 778 593 758 q 667 797 622 797 q 615 815 628 797 q 615 851 603 833 q 667 869 628 869 q 662 921 651 897 q 695 956 672 944 q 743 963 718 968 q 783 931 768 958 q 812 980 789 965 q 860 990 835 994 q 901 964 885 985 q 910 907 917 943 q 955 887 938 907 q 978 837 972 867 q 978 778 983 807 q 955 728 972 749 q 910 708 938 708 q 965 683 946 708 q 983 624 983 657 q 965 567 983 592 q 910 542 946 542 q 960 526 943 542 q 978 492 978 511 q 960 457 978 472 q 910 442 943 442 q 960 422 942 442 q 985 374 979 403 q 985 316 992 344 q 960 268 979 288 q 910 249 942 249 q 976 235 960 249 q 976 207 993 221 q 910 193 960 193 q 969 174 950 193 q 989 131 989 156 q 969 89 989 107 q 910 71 950 71 q 909 12 924 32 q 870 -3 894 -8 q 832 42 846 3 q 794 5 825 13 q 729 5 764 -3 q 671 33 694 13 q 654 83 647 54 q 594 63 615 58 q 576 90 572 68 q 617 139 579 113 q 557 121 583 117 q 517 145 531 125 q 510 192 504 165 q 550 239 517 218 q 493 240 524 222 q 444 290 463 258 q 401 283 425 278 q 419 232 415 263 q 419 171 424 201 q 399 119 414 140 q 361 99 385 99 q 389 58 389 79 q 369 30 389 38 q 322 42 350 22 q 306 -9 322 8 q 267 -26 289 -26 q 229 -9 246 -26 q 213 42 213 8 q 198 -10 213 7 q 164 -24 183 -28 q 131 8 144 -19 q 118 88 117 35 z "},"Ń":{"ha":1028,"x_min":29,"x_max":993,"o":"m 118 88 q 47 107 65 88 q 47 146 29 126 q 118 165 65 165 q 61 190 81 165 q 42 248 42 215 q 61 306 42 281 q 118 331 81 331 q 58 353 78 331 q 38 403 38 375 q 58 453 38 432 q 118 475 78 475 q 64 494 82 475 q 46 539 46 514 q 64 583 46 564 q 118 603 82 603 q 58 624 78 603 q 38 672 38 644 q 58 719 38 699 q 118 740 78 740 q 67 764 85 740 q 50 818 50 788 q 67 872 50 849 q 118 896 85 896 q 125 946 110 926 q 165 972 140 965 q 214 969 190 979 q 246 931 238 960 q 261 999 246 982 q 291 999 276 1017 q 306 931 306 982 q 349 958 326 956 q 388 946 372 960 q 407 909 404 932 q 389 861 410 886 q 442 877 419 881 q 474 857 464 874 q 478 818 485 840 q 440 778 471 796 q 492 781 467 793 q 533 744 517 769 q 547 690 549 718 q 521 646 546 663 q 555 653 538 657 q 585 636 572 649 q 621 643 601 647 q 622 694 610 667 q 667 721 633 721 q 608 740 622 721 q 608 778 593 758 q 667 797 622 797 q 615 815 628 797 q 615 851 603 833 q 667 869 628 869 q 662 921 651 897 q 695 956 672 944 q 743 963 718 968 q 783 931 768 958 q 812 980 789 965 q 860 990 835 994 q 901 964 885 985 q 910 907 917 943 q 955 887 938 907 q 978 837 972 867 q 978 778 983 807 q 955 728 972 749 q 910 708 938 708 q 965 683 946 708 q 983 624 983 657 q 965 567 983 592 q 910 542 946 542 q 960 526 943 542 q 978 492 978 511 q 960 457 978 472 q 910 442 943 442 q 960 422 942 442 q 985 374 979 403 q 985 316 992 344 q 960 268 979 288 q 910 249 942 249 q 976 235 960 249 q 976 207 993 221 q 910 193 960 193 q 969 174 950 193 q 989 131 989 156 q 969 89 989 107 q 910 71 950 71 q 909 12 924 32 q 870 -3 894 -8 q 832 42 846 3 q 794 5 825 13 q 729 5 764 -3 q 671 33 694 13 q 654 83 647 54 q 594 63 615 58 q 576 90 572 68 q 617 139 579 113 q 557 121 583 117 q 517 145 531 125 q 510 192 504 165 q 550 239 517 218 q 493 240 524 222 q 444 290 463 258 q 401 283 425 278 q 419 232 415 263 q 419 171 424 201 q 399 119 414 140 q 361 99 385 99 q 389 58 389 79 q 369 30 389 38 q 322 42 350 22 q 306 -9 322 8 q 267 -26 289 -26 q 229 -9 246 -26 q 213 42 213 8 q 198 -10 213 7 q 164 -24 183 -28 q 131 8 144 -19 q 118 88 117 35 m 417 1129 q 408 1159 403 1139 q 430 1199 414 1179 q 465 1228 446 1218 q 497 1226 483 1238 q 499 1260 485 1243 q 533 1283 513 1278 q 565 1271 554 1289 q 590 1294 565 1286 q 646 1303 614 1303 q 702 1294 678 1303 q 726 1271 726 1286 q 746 1302 726 1294 q 785 1302 765 1310 q 804 1271 804 1294 q 828 1294 814 1293 q 852 1284 843 1296 q 851 1250 861 1272 q 863 1217 868 1233 q 841 1197 857 1201 q 808 1207 825 1192 q 815 1176 822 1192 q 791 1157 807 1161 q 763 1169 775 1153 q 766 1136 774 1154 q 741 1103 758 1118 q 704 1085 724 1089 q 672 1096 685 1081 q 679 1065 686 1079 q 657 1047 672 1050 q 628 1060 642 1043 q 615 1033 631 1043 q 576 1022 599 1024 q 537 1026 554 1019 q 517 1049 519 1032 q 497 1021 517 1029 q 455 1020 478 1013 q 418 1053 432 1028 q 417 1129 404 1079 z "},"Ň":{"ha":1028,"x_min":29,"x_max":993,"o":"m 118 88 q 47 107 65 88 q 47 146 29 126 q 118 165 65 165 q 61 190 81 165 q 42 248 42 215 q 61 306 42 281 q 118 331 81 331 q 58 353 78 331 q 38 403 38 375 q 58 453 38 432 q 118 475 78 475 q 64 494 82 475 q 46 539 46 514 q 64 583 46 564 q 118 603 82 603 q 58 624 78 603 q 38 672 38 644 q 58 719 38 699 q 118 740 78 740 q 67 764 85 740 q 50 818 50 788 q 67 872 50 849 q 118 896 85 896 q 125 946 110 926 q 165 972 140 965 q 214 969 190 979 q 246 931 238 960 q 261 999 246 982 q 291 999 276 1017 q 306 931 306 982 q 349 958 326 956 q 388 946 372 960 q 407 909 404 932 q 389 861 410 886 q 442 877 419 881 q 474 857 464 874 q 478 818 485 840 q 440 778 471 796 q 492 781 467 793 q 533 744 517 769 q 547 690 549 718 q 521 646 546 663 q 555 653 538 657 q 585 636 572 649 q 621 643 601 647 q 622 694 610 667 q 667 721 633 721 q 608 740 622 721 q 608 778 593 758 q 667 797 622 797 q 615 815 628 797 q 615 851 603 833 q 667 869 628 869 q 662 921 651 897 q 695 956 672 944 q 743 963 718 968 q 783 931 768 958 q 812 980 789 965 q 860 990 835 994 q 901 964 885 985 q 910 907 917 943 q 955 887 938 907 q 978 837 972 867 q 978 778 983 807 q 955 728 972 749 q 910 708 938 708 q 965 683 946 708 q 983 624 983 657 q 965 567 983 592 q 910 542 946 542 q 960 526 943 542 q 978 492 978 511 q 960 457 978 472 q 910 442 943 442 q 960 422 942 442 q 985 374 979 403 q 985 316 992 344 q 960 268 979 288 q 910 249 942 249 q 976 235 960 249 q 976 207 993 221 q 910 193 960 193 q 969 174 950 193 q 989 131 989 156 q 969 89 989 107 q 910 71 950 71 q 909 12 924 32 q 870 -3 894 -8 q 832 42 846 3 q 794 5 825 13 q 729 5 764 -3 q 671 33 694 13 q 654 83 647 54 q 594 63 615 58 q 576 90 572 68 q 617 139 579 113 q 557 121 583 117 q 517 145 531 125 q 510 192 504 165 q 550 239 517 218 q 493 240 524 222 q 444 290 463 258 q 401 283 425 278 q 419 232 415 263 q 419 171 424 201 q 399 119 414 140 q 361 99 385 99 q 389 58 389 79 q 369 30 389 38 q 322 42 350 22 q 306 -9 322 8 q 267 -26 289 -26 q 229 -9 246 -26 q 213 42 213 8 q 198 -10 213 7 q 164 -24 183 -28 q 131 8 144 -19 q 118 88 117 35 m 386 1064 q 351 1062 372 1051 q 309 1094 329 1072 q 281 1139 289 1117 q 285 1174 272 1161 q 253 1176 269 1165 q 227 1206 238 1186 q 217 1244 217 1225 q 232 1271 217 1263 q 258 1300 233 1292 q 313 1306 282 1308 q 367 1291 344 1303 q 389 1258 390 1279 q 419 1274 396 1276 q 467 1259 443 1272 q 499 1229 492 1246 q 522 1255 503 1246 q 559 1260 540 1264 q 585 1235 578 1256 q 598 1269 579 1254 q 644 1290 617 1283 q 696 1293 672 1297 q 725 1271 719 1289 q 758 1278 739 1286 q 787 1251 776 1269 q 783 1218 797 1233 q 789 1181 797 1204 q 760 1135 781 1157 q 717 1102 739 1113 q 679 1104 694 1092 q 672 1074 686 1090 q 633 1047 657 1058 q 588 1035 610 1036 q 560 1049 567 1033 q 539 1021 560 1031 q 488 1013 518 1011 q 428 1026 457 1014 q 386 1064 400 1039 z "},"Ņ":{"ha":1028,"x_min":29,"x_max":993,"o":"m 118 88 q 47 107 65 88 q 47 146 29 126 q 118 165 65 165 q 61 190 81 165 q 42 248 42 215 q 61 306 42 281 q 118 331 81 331 q 58 353 78 331 q 38 403 38 375 q 58 453 38 432 q 118 475 78 475 q 64 494 82 475 q 46 539 46 514 q 64 583 46 564 q 118 603 82 603 q 58 624 78 603 q 38 672 38 644 q 58 719 38 699 q 118 740 78 740 q 67 764 85 740 q 50 818 50 788 q 67 872 50 849 q 118 896 85 896 q 125 946 110 926 q 165 972 140 965 q 214 969 190 979 q 246 931 238 960 q 261 999 246 982 q 291 999 276 1017 q 306 931 306 982 q 349 958 326 956 q 388 946 372 960 q 407 909 404 932 q 389 861 410 886 q 442 877 419 881 q 474 857 464 874 q 478 818 485 840 q 440 778 471 796 q 492 781 467 793 q 533 744 517 769 q 547 690 549 718 q 521 646 546 663 q 555 653 538 657 q 585 636 572 649 q 621 643 601 647 q 622 694 610 667 q 667 721 633 721 q 608 740 622 721 q 608 778 593 758 q 667 797 622 797 q 615 815 628 797 q 615 851 603 833 q 667 869 628 869 q 662 921 651 897 q 695 956 672 944 q 743 963 718 968 q 783 931 768 958 q 812 980 789 965 q 860 990 835 994 q 901 964 885 985 q 910 907 917 943 q 955 887 938 907 q 978 837 972 867 q 978 778 983 807 q 955 728 972 749 q 910 708 938 708 q 965 683 946 708 q 983 624 983 657 q 965 567 983 592 q 910 542 946 542 q 960 526 943 542 q 978 492 978 511 q 960 457 978 472 q 910 442 943 442 q 960 422 942 442 q 985 374 979 403 q 985 316 992 344 q 960 268 979 288 q 910 249 942 249 q 976 235 960 249 q 976 207 993 221 q 910 193 960 193 q 969 174 950 193 q 989 131 989 156 q 969 89 989 107 q 910 71 950 71 q 909 12 924 32 q 870 -3 894 -8 q 832 42 846 3 q 794 5 825 13 q 729 5 764 -3 q 671 33 694 13 q 654 83 647 54 q 594 63 615 58 q 576 90 572 68 q 617 139 579 113 q 557 121 583 117 q 517 145 531 125 q 510 192 504 165 q 550 239 517 218 q 493 240 524 222 q 444 290 463 258 q 401 283 425 278 q 419 232 415 263 q 419 171 424 201 q 399 119 414 140 q 361 99 385 99 q 389 58 389 79 q 369 30 389 38 q 322 42 350 22 q 306 -9 322 8 q 267 -26 289 -26 q 229 -9 246 -26 q 213 42 213 8 q 198 -10 213 7 q 164 -24 183 -28 q 131 8 144 -19 q 118 88 117 35 m 356 -226 q 329 -208 336 -224 q 325 -173 322 -192 q 340 -141 328 -154 q 369 -131 351 -128 q 370 -104 363 -118 q 394 -79 378 -90 q 427 -66 411 -68 q 451 -76 443 -64 q 470 -51 451 -60 q 515 -42 489 -42 q 559 -51 540 -42 q 578 -76 578 -60 q 608 -47 586 -50 q 648 -59 631 -44 q 657 -100 665 -74 q 679 -127 676 -107 q 674 -169 682 -147 q 650 -203 665 -190 q 615 -208 635 -215 q 633 -233 631 -215 q 627 -269 635 -250 q 606 -301 619 -289 q 576 -306 592 -312 q 565 -332 581 -319 q 526 -351 550 -344 q 483 -356 503 -358 q 460 -340 464 -354 q 445 -362 460 -357 q 411 -358 431 -368 q 376 -317 392 -349 q 356 -226 360 -286 z "},"Ñ":{"ha":1028,"x_min":29,"x_max":993,"o":"m 118 88 q 47 107 65 88 q 47 146 29 126 q 118 165 65 165 q 61 190 81 165 q 42 248 42 215 q 61 306 42 281 q 118 331 81 331 q 58 353 78 331 q 38 403 38 375 q 58 453 38 432 q 118 475 78 475 q 64 494 82 475 q 46 539 46 514 q 64 583 46 564 q 118 603 82 603 q 58 624 78 603 q 38 672 38 644 q 58 719 38 699 q 118 740 78 740 q 67 764 85 740 q 50 818 50 788 q 67 872 50 849 q 118 896 85 896 q 125 946 110 926 q 165 972 140 965 q 214 969 190 979 q 246 931 238 960 q 261 999 246 982 q 291 999 276 1017 q 306 931 306 982 q 349 958 326 956 q 388 946 372 960 q 407 909 404 932 q 389 861 410 886 q 442 877 419 881 q 474 857 464 874 q 478 818 485 840 q 440 778 471 796 q 492 781 467 793 q 533 744 517 769 q 547 690 549 718 q 521 646 546 663 q 555 653 538 657 q 585 636 572 649 q 621 643 601 647 q 622 694 610 667 q 667 721 633 721 q 608 740 622 721 q 608 778 593 758 q 667 797 622 797 q 615 815 628 797 q 615 851 603 833 q 667 869 628 869 q 662 921 651 897 q 695 956 672 944 q 743 963 718 968 q 783 931 768 958 q 812 980 789 965 q 860 990 835 994 q 901 964 885 985 q 910 907 917 943 q 955 887 938 907 q 978 837 972 867 q 978 778 983 807 q 955 728 972 749 q 910 708 938 708 q 965 683 946 708 q 983 624 983 657 q 965 567 983 592 q 910 542 946 542 q 960 526 943 542 q 978 492 978 511 q 960 457 978 472 q 910 442 943 442 q 960 422 942 442 q 985 374 979 403 q 985 316 992 344 q 960 268 979 288 q 910 249 942 249 q 976 235 960 249 q 976 207 993 221 q 910 193 960 193 q 969 174 950 193 q 989 131 989 156 q 969 89 989 107 q 910 71 950 71 q 909 12 924 32 q 870 -3 894 -8 q 832 42 846 3 q 794 5 825 13 q 729 5 764 -3 q 671 33 694 13 q 654 83 647 54 q 594 63 615 58 q 576 90 572 68 q 617 139 579 113 q 557 121 583 117 q 517 145 531 125 q 510 192 504 165 q 550 239 517 218 q 493 240 524 222 q 444 290 463 258 q 401 283 425 278 q 419 232 415 263 q 419 171 424 201 q 399 119 414 140 q 361 99 385 99 q 389 58 389 79 q 369 30 389 38 q 322 42 350 22 q 306 -9 322 8 q 267 -26 289 -26 q 229 -9 246 -26 q 213 42 213 8 q 198 -10 213 7 q 164 -24 183 -28 q 131 8 144 -19 q 118 88 117 35 m 583 1043 q 560 1028 579 1029 q 519 1033 542 1026 q 479 1051 497 1039 q 456 1076 461 1063 q 433 1049 451 1061 q 391 1031 414 1036 q 349 1028 368 1025 q 324 1049 329 1032 q 300 1019 321 1025 q 259 1022 279 1013 q 242 1056 239 1032 q 224 1085 225 1060 q 231 1142 222 1111 q 253 1194 239 1172 q 283 1211 268 1215 q 281 1247 269 1228 q 313 1273 292 1265 q 349 1264 335 1281 q 373 1282 349 1276 q 428 1286 397 1288 q 483 1276 460 1285 q 507 1256 507 1268 q 531 1279 510 1274 q 575 1280 551 1285 q 611 1261 599 1275 q 619 1285 608 1276 q 644 1292 629 1294 q 669 1271 658 1290 q 683 1306 669 1297 q 711 1306 697 1315 q 725 1271 725 1297 q 754 1280 735 1286 q 785 1258 774 1274 q 788 1228 797 1242 q 803 1197 804 1221 q 790 1145 801 1172 q 762 1101 779 1118 q 728 1092 744 1083 q 719 1060 735 1075 q 677 1036 703 1046 q 625 1027 651 1026 q 583 1043 599 1028 z "},"Ŋ":{"ha":1028,"x_min":35,"x_max":994,"o":"m 481 -171 q 423 -158 438 -171 q 423 -131 408 -144 q 481 -117 438 -117 q 474 -76 468 -94 q 495 -49 479 -58 q 530 -44 511 -40 q 561 -69 549 -47 q 549 -22 546 -43 q 565 11 551 0 q 551 78 544 40 q 597 133 558 117 q 556 151 578 133 q 517 194 535 168 q 494 247 500 221 q 496 292 488 274 q 459 279 481 278 q 417 290 438 281 q 398 240 413 261 q 361 219 383 218 q 404 196 390 219 q 418 140 418 172 q 404 84 418 108 q 361 60 390 60 q 364 2 374 19 q 336 -7 354 -15 q 306 42 318 1 q 288 -15 306 4 q 245 -33 269 -33 q 203 -15 221 -33 q 185 42 185 4 q 142 37 163 28 q 108 67 121 46 q 95 112 94 89 q 118 149 96 135 q 67 171 85 149 q 50 223 50 193 q 67 275 50 253 q 118 297 85 297 q 51 314 68 297 q 51 347 35 331 q 118 364 68 364 q 64 385 82 364 q 46 433 46 406 q 64 482 46 461 q 118 503 82 503 q 61 524 81 503 q 42 574 42 546 q 61 625 42 603 q 118 647 81 647 q 64 662 82 647 q 46 697 46 676 q 64 731 46 717 q 118 746 82 746 q 69 766 85 746 q 53 813 53 786 q 69 859 53 839 q 118 879 85 879 q 127 922 110 903 q 173 952 144 942 q 228 958 201 963 q 263 931 254 954 q 293 967 272 958 q 335 969 314 976 q 367 943 356 963 q 368 894 378 924 q 437 919 414 922 q 452 893 460 915 q 400 843 444 871 q 456 856 431 863 q 493 829 481 850 q 500 783 506 808 q 463 740 494 758 q 520 731 489 756 q 571 671 551 707 q 614 681 590 685 q 601 738 600 706 q 618 795 601 771 q 667 819 635 819 q 610 833 625 819 q 610 860 596 847 q 667 874 625 874 q 661 926 651 903 q 692 960 671 949 q 738 965 714 971 q 778 931 763 960 q 815 957 789 954 q 867 947 840 960 q 907 913 893 935 q 910 868 921 892 q 954 848 938 868 q 976 798 971 828 q 976 738 981 768 q 954 688 971 708 q 910 668 938 668 q 974 651 958 668 q 974 618 990 635 q 910 601 958 601 q 978 585 961 601 q 978 551 994 568 q 910 535 961 535 q 960 508 943 535 q 978 447 978 482 q 960 385 978 411 q 910 358 943 358 q 961 338 942 358 q 987 286 981 317 q 987 225 993 256 q 961 174 981 194 q 910 153 942 153 q 972 138 951 153 q 992 105 992 124 q 972 72 992 86 q 910 58 951 58 q 942 27 933 51 q 946 -28 950 3 q 928 -86 942 -58 q 896 -130 915 -114 q 853 -139 876 -146 q 869 -192 874 -167 q 846 -234 865 -218 q 801 -248 826 -250 q 753 -219 775 -246 q 740 -271 761 -249 q 684 -303 718 -293 q 620 -305 650 -312 q 582 -267 590 -297 q 568 -322 583 -304 q 533 -332 553 -340 q 497 -285 513 -324 q 481 -171 481 -247 z "},"O":{"ha":1031,"x_min":14,"x_max":1024,"o":"m 382 40 q 344 6 369 14 q 288 6 318 -1 q 233 31 258 14 q 197 74 208 49 q 197 125 185 99 q 144 112 169 106 q 104 140 119 118 q 91 187 89 161 q 121 232 93 213 q 76 248 94 229 q 47 297 57 267 q 38 360 38 328 q 52 415 39 392 q 92 442 65 439 q 42 466 60 443 q 19 522 24 489 q 22 586 14 554 q 49 639 29 618 q 99 660 68 660 q 77 693 79 669 q 85 744 75 717 q 112 797 94 772 q 150 833 129 821 q 189 835 171 844 q 168 892 163 869 q 197 914 174 914 q 247 879 221 914 q 242 944 232 918 q 275 980 251 971 q 324 977 299 989 q 365 928 350 965 q 375 981 361 961 q 411 1003 389 1000 q 452 991 433 1006 q 476 943 471 976 q 505 991 479 975 q 565 1010 531 1007 q 632 1002 599 1013 q 686 970 665 992 q 703 917 707 949 q 750 971 724 964 q 788 953 776 978 q 779 882 800 929 q 835 926 810 924 q 864 905 860 929 q 838 839 868 881 q 894 860 868 863 q 933 841 919 858 q 940 799 946 824 q 903 750 935 774 q 953 749 933 760 q 978 720 972 739 q 973 683 983 701 q 932 654 963 664 q 974 635 958 656 q 997 585 990 615 q 999 525 1003 556 q 980 474 994 494 q 939 451 965 453 q 1007 433 990 451 q 1006 396 1024 414 q 938 379 989 378 q 983 348 971 374 q 990 293 996 322 q 964 245 985 264 q 910 233 943 226 q 922 193 926 218 q 900 142 918 168 q 858 97 882 117 q 810 72 833 78 q 769 81 786 65 q 755 25 778 49 q 696 -8 732 1 q 628 -10 660 -18 q 588 31 596 -1 q 539 -46 592 -46 q 382 40 486 -46 m 611 247 q 577 290 579 261 q 592 341 575 318 q 639 363 610 364 q 613 396 621 372 q 608 446 606 419 q 624 491 611 472 q 661 510 638 510 q 619 533 633 508 q 609 587 606 557 q 632 632 613 617 q 586 653 606 629 q 572 701 567 676 q 538 697 556 692 q 511 718 521 701 q 483 683 506 694 q 439 678 461 671 q 440 636 446 658 q 419 599 435 614 q 382 583 404 583 q 410 560 401 578 q 417 520 419 542 q 403 483 415 499 q 369 468 392 468 q 408 460 399 469 q 408 440 418 450 q 369 429 399 429 q 417 413 403 431 q 428 374 432 396 q 403 339 425 351 q 447 311 426 336 q 469 260 468 286 q 526 274 489 281 q 611 247 563 268 z "},"Ó":{"ha":1031,"x_min":14,"x_max":1024,"o":"m 382 40 q 344 6 369 14 q 288 6 318 -1 q 233 31 258 14 q 197 74 208 49 q 197 125 185 99 q 144 112 169 106 q 104 140 119 118 q 91 187 89 161 q 121 232 93 213 q 76 248 94 229 q 47 297 57 267 q 38 360 38 328 q 52 415 39 392 q 92 442 65 439 q 42 466 60 443 q 19 522 24 489 q 22 586 14 554 q 49 639 29 618 q 99 660 68 660 q 77 693 79 669 q 85 744 75 717 q 112 797 94 772 q 150 833 129 821 q 189 835 171 844 q 168 892 163 869 q 197 914 174 914 q 247 879 221 914 q 242 944 232 918 q 275 980 251 971 q 324 977 299 989 q 365 928 350 965 q 375 981 361 961 q 411 1003 389 1000 q 452 991 433 1006 q 476 943 471 976 q 505 991 479 975 q 565 1010 531 1007 q 632 1002 599 1013 q 686 970 665 992 q 703 917 707 949 q 750 971 724 964 q 788 953 776 978 q 779 882 800 929 q 835 926 810 924 q 864 905 860 929 q 838 839 868 881 q 894 860 868 863 q 933 841 919 858 q 940 799 946 824 q 903 750 935 774 q 953 749 933 760 q 978 720 972 739 q 973 683 983 701 q 932 654 963 664 q 974 635 958 656 q 997 585 990 615 q 999 525 1003 556 q 980 474 994 494 q 939 451 965 453 q 1007 433 990 451 q 1006 396 1024 414 q 938 379 989 378 q 983 348 971 374 q 990 293 996 322 q 964 245 985 264 q 910 233 943 226 q 922 193 926 218 q 900 142 918 168 q 858 97 882 117 q 810 72 833 78 q 769 81 786 65 q 755 25 778 49 q 696 -8 732 1 q 628 -10 660 -18 q 588 31 596 -1 q 539 -46 592 -46 q 382 40 486 -46 m 611 247 q 577 290 579 261 q 592 341 575 318 q 639 363 610 364 q 613 396 621 372 q 608 446 606 419 q 624 491 611 472 q 661 510 638 510 q 619 533 633 508 q 609 587 606 557 q 632 632 613 617 q 586 653 606 629 q 572 701 567 676 q 538 697 556 692 q 511 718 521 701 q 483 683 506 694 q 439 678 461 671 q 440 636 446 658 q 419 599 435 614 q 382 583 404 583 q 410 560 401 578 q 417 520 419 542 q 403 483 415 499 q 369 468 392 468 q 408 460 399 469 q 408 440 418 450 q 369 429 399 429 q 417 413 403 431 q 428 374 432 396 q 403 339 425 351 q 447 311 426 336 q 469 260 468 286 q 526 274 489 281 q 611 247 563 268 m 418 1129 q 410 1159 404 1139 q 431 1199 415 1179 q 466 1228 447 1218 q 499 1226 485 1238 q 500 1260 486 1243 q 535 1283 514 1278 q 567 1271 556 1289 q 591 1294 567 1286 q 647 1303 615 1303 q 703 1294 679 1303 q 728 1271 728 1286 q 747 1302 728 1294 q 786 1302 767 1310 q 806 1271 806 1294 q 830 1294 815 1293 q 853 1284 844 1296 q 853 1250 863 1272 q 864 1217 869 1233 q 842 1197 858 1201 q 810 1207 826 1192 q 816 1176 824 1192 q 792 1157 808 1161 q 764 1169 776 1153 q 767 1136 775 1154 q 742 1103 760 1118 q 706 1085 725 1089 q 674 1096 686 1081 q 681 1065 688 1079 q 658 1047 674 1050 q 629 1060 643 1043 q 616 1033 632 1043 q 578 1022 600 1024 q 538 1026 556 1019 q 518 1049 521 1032 q 499 1021 518 1029 q 456 1020 479 1013 q 419 1053 433 1028 q 418 1129 406 1079 z "}}}
